<?xml version="1.0" encoding="UTF-8"?>
<svg version="1.1" xmlns="http://www.w3.org/2000/svg" width="1000" height="1000">
<path d="M0 0 C0.99620739 -0.00448277 1.99241478 -0.00896553 3.01881027 -0.01358414 C4.16548676 -0.03057358 5.31216324 -0.04756302 6.49358749 -0.06506729 C7.74768921 -0.05808823 9.00179092 -0.05110916 10.29389572 -0.04391861 C11.63125903 -0.05397108 12.96860799 -0.06611908 14.30593491 -0.08020401 C17.93647179 -0.11154591 21.56634602 -0.11093176 25.19698429 -0.10269833 C28.2310675 -0.09853709 31.26502073 -0.10951349 34.29908156 -0.12034249 C41.46135819 -0.14549071 48.62330494 -0.14435576 55.78559494 -0.12692642 C63.16360116 -0.10942632 70.54052481 -0.13574689 77.91837049 -0.18389297 C84.25999917 -0.22373304 90.60128697 -0.23629125 96.94303393 -0.22717881 C100.72735238 -0.22200549 104.51094553 -0.22697024 108.29515457 -0.25814438 C111.85795806 -0.2862939 115.41913255 -0.28019469 118.98188972 -0.24842834 C120.90310973 -0.23953911 122.82439391 -0.26500012 124.74544907 -0.29169083 C130.37720524 -0.20974783 134.36113656 -0.03763605 138.74451828 3.71065903 C139.984762 4.99512668 141.2004898 6.30371837 142.39057541 7.63479233 C143.64975408 8.86688336 144.91432961 10.09348117 146.18403244 11.31472397 C147.50805871 12.63889633 148.82938885 13.96576857 150.14838791 15.29494858 C150.87797714 16.02599808 151.60756638 16.75704758 152.35926437 17.51025009 C153.92956026 19.08432619 155.49870081 20.65955556 157.06678391 22.23583603 C159.55398127 24.73589682 162.04437633 27.23273305 164.53559494 29.72878647 C170.71960095 35.92610159 176.89813539 42.12886247 183.07685471 48.3314476 C188.3080151 53.5823923 193.54125448 58.83124844 198.77723312 64.07738876 C201.22089421 66.52749331 203.66150389 68.98060926 206.10200119 71.43386459 C207.61210556 72.94760428 209.12235208 74.46120218 210.63276291 75.97463608 C211.63675125 76.9863739 211.63675125 76.9863739 212.66102219 78.01855087 C215.75442424 81.11229424 218.88448619 84.10019739 222.20478439 86.94999313 C227.42651458 91.46203681 232.25312302 96.36535223 237.12104416 101.25173569 C238.17618288 102.30715705 239.23154298 103.36235714 240.28710556 104.41735458 C243.12969284 107.25965691 245.96920307 110.10501486 248.8081398 112.95096278 C251.7838459 115.93295287 254.76241562 118.91207991 257.74067307 121.89152145 C263.37001519 127.52396209 268.99680501 133.15894522 274.62266541 138.79486328 C281.03186511 145.21527025 287.44393073 151.63281179 293.85622978 158.0501231 C307.0375196 171.24184376 320.21523501 184.43712975 333.39057541 197.63479233 C336.90141697 195.98178498 339.14806974 194.09739515 341.87495041 191.31057358 C342.72830978 190.44625717 343.58166916 189.58194077 344.46088791 188.69143295 C345.34518478 187.78586655 346.22948166 186.88030014 347.14057541 185.94729233 C348.88286944 184.17010071 350.62762734 182.39532092 352.37495041 180.62307358 C353.14548752 179.83457016 353.91602463 179.04606674 354.70991135 178.23366928 C356.79719771 176.21006607 358.90314373 174.31061388 361.10495567 172.41842842 C365.10910087 168.92528318 368.8958068 165.26476006 372.64115524 161.49773788 C373.66609618 160.47302023 373.66609618 160.47302023 374.711743 159.42760122 C376.97865275 157.16000233 379.24197752 154.88886003 381.5053215 152.61770248 C383.13848058 150.98262245 384.7718688 149.34777127 386.40546799 147.71313095 C389.91101955 144.20442774 393.41501379 140.69417936 396.91780853 137.182724 C402.45266156 131.63432346 407.99134946 126.08976179 413.53062057 120.54577255 C421.29093997 112.7782774 429.04971857 105.00924617 436.80707932 97.23879623 C437.29847273 96.746575 437.78986615 96.25435377 438.29615028 95.74721675 C441.78600695 92.25145681 445.27579706 88.75563044 448.76557541 85.25979233 C452.7624335 81.25599946 456.75932676 77.25224171 460.75629807 73.24856186 C461.24890674 72.75512506 461.74151541 72.26168826 462.24905162 71.75329883 C470.45369528 63.53498429 478.6603121 55.31864295 486.86829054 47.10365903 C492.37945643 41.58749958 497.8881724 36.06890845 503.39505076 30.54846883 C506.81116731 27.12491917 510.22933081 23.703419 513.64806747 20.28248596 C515.2380988 18.69057504 516.82726175 17.09779625 518.41551208 15.50410843 C520.57536071 13.3370955 522.73822526 11.17313917 524.90189743 9.00994492 C525.85381959 8.05263031 525.85381959 8.05263031 526.82497251 7.07597601 C532.39123087 1.52296915 532.39123087 1.52296915 537.53895187 1.46743393 C538.40810226 1.45594315 539.27725266 1.44445236 540.17274094 1.43261337 C541.60653091 1.42151031 541.60653091 1.42151031 543.06928635 1.41018295 C544.07431198 1.39879288 545.07933762 1.3874028 546.11481857 1.37566757 C556.62464423 1.26508313 567.13517333 1.21759935 577.64545822 1.17483139 C582.63539041 1.15253747 587.62457693 1.1107416 592.61420822 1.05178452 C598.63366089 0.98079379 604.65241048 0.94401358 610.67226028 0.9317131 C612.9672437 0.92129683 615.26220519 0.89883582 617.55694962 0.86411667 C620.77023234 0.81800984 623.98074718 0.81589918 627.19428635 0.82424545 C628.14204941 0.80064957 629.08981247 0.77705368 630.06629562 0.75274277 C636.38803822 0.83221288 636.38803822 0.83221288 639.28745556 3.15333652 C640.82114475 4.91353078 642.12882846 6.67302051 643.39057541 8.63479233 C644.0016716 9.5193309 644.61276779 10.40386948 645.24238205 11.31521225 C645.75663742 12.15672836 646.27089279 12.99824448 646.80073166 13.86526108 C647.39225021 14.82416245 647.98376877 15.78306381 648.59321213 16.7710228 C649.51384445 18.28140121 649.51384445 18.28140121 650.45307541 19.82229233 C651.76792026 21.95476627 653.08435645 24.08625974 654.40229416 26.21682358 C655.06277756 27.28497299 655.72326096 28.35312241 656.403759 29.45363998 C659.99989244 35.21151891 663.71863804 40.88884645 667.4416008 46.56521225 C667.9481218 47.33840805 668.45464279 48.11160385 668.97651291 48.90822983 C669.42043381 49.58289291 669.86435471 50.257556 670.32172775 50.95266342 C672.39226465 54.2112288 673.12816554 57.0931831 673.07807541 61.00490952 C671.55567216 66.82853443 666.17592107 70.77743719 661.89057541 74.75979233 C660.89637923 75.71734657 659.90417171 76.67697008 658.91401291 77.63869858 C654.94301649 81.46820028 650.90335232 85.19800983 646.71479416 88.78860092 C641.95896192 92.93535903 637.52586922 97.38580023 633.08504868 101.86515427 C631.57245209 103.3907321 630.05656339 104.91297319 628.5398674 106.43447495 C625.32058429 109.66508186 622.10527429 112.89962456 618.89057541 116.13479233 C615.15981891 119.88930359 611.4273679 123.64209846 607.6906395 127.39066696 C606.21086985 128.87682922 604.73418976 130.36601228 603.25764084 131.85537338 C598.78124278 136.34793955 594.25874018 140.67719957 589.44562912 144.80459213 C585.561043 148.26414661 581.93102677 151.98667156 578.2702446 155.67995834 C576.79125632 157.17193476 575.30897039 158.66056786 573.82587814 160.1484642 C570.67792292 163.30773998 567.53394271 166.47095255 564.39057541 169.63479233 C560.74242758 173.30670022 557.09258196 176.9768879 553.43845749 180.64284897 C551.99192472 182.09577141 550.54848374 183.55171514 549.10517502 185.0078392 C544.67784573 189.45151727 540.19943459 193.7268649 535.43989182 197.81032944 C531.12470074 201.65205244 527.11220335 205.81391239 523.04682541 209.91604233 C522.06881122 210.89847611 521.0904929 211.8806072 520.11188889 212.86245346 C517.03526146 215.95039803 513.96261105 219.04228047 510.89057541 222.13479233 C507.32503637 225.72409696 503.75779613 229.31167741 500.18627548 232.89503098 C498.77298912 234.3147039 497.3628043 235.73746232 495.9527092 237.16030502 C492.19536162 240.93184498 488.44586757 244.65359975 484.40424728 248.12112045 C479.79603858 252.07684455 475.54377259 256.36848508 471.2702446 260.67995834 C469.79125632 262.17193476 468.30897039 263.66056786 466.82587814 265.1484642 C463.67792292 268.30773998 460.53394271 271.47095255 457.39057541 274.63479233 C453.74242758 278.30670022 450.09258196 281.9768879 446.43845749 285.64284897 C444.99192472 287.09577141 443.54848374 288.55171514 442.10517502 290.0078392 C437.66483743 294.46457361 433.17343882 298.75514665 428.39960861 302.85061264 C424.32448342 306.46964471 420.53673012 310.38881212 416.70307541 314.25979233 C415.80113449 315.16551987 414.89919357 316.07124741 413.96992111 317.00442123 C411.10768977 319.87878802 408.24861739 322.75626173 405.39057541 325.63479233 C401.62283208 329.4295457 397.85141996 333.22060614 394.07807541 337.00979233 C393.2257634 337.87040268 392.37345139 338.73101303 391.49531174 339.61770248 C387.25152573 343.8787004 382.93627785 347.95442684 378.37659836 351.87362289 C374.61711959 355.20746105 371.11830041 358.80608677 367.58588791 362.37697983 C366.78069717 363.18595718 365.97550644 363.99493454 365.14591599 364.82842636 C362.60001005 367.38645109 360.05739892 369.9477114 357.51557541 372.50979233 C354.14602474 375.90586495 350.77322311 379.29865962 347.39838791 382.68947983 C346.23752167 383.86279358 346.23752167 383.86279358 345.05320358 385.05981064 C344.33840836 385.77790909 343.62361313 386.49600754 342.88715744 387.23586655 C341.94406219 388.18681702 341.94406219 388.18681702 340.98191452 389.15697861 C338.59744459 391.37134156 337.4264798 391.63095565 334.11201096 391.98513412 C329.42252363 391.54365841 328.17420383 390.31415337 324.84760666 387.02932358 C324.31037476 386.50747986 323.77314285 385.98563614 323.2196312 385.44797897 C321.25732567 383.52891726 319.32469758 381.58224983 317.39057541 379.63479233 C315.71083281 377.96654758 314.03027648 376.29912192 312.3490715 374.63235092 C306.56896282 368.88520631 300.82165691 363.10588567 295.07807541 357.32229233 C291.6344455 353.85482913 288.18904584 350.38915899 284.73940086 346.92767906 C283.38149007 345.56340246 282.02669107 344.19603078 280.67199326 342.82856369 C276.3747651 338.5144038 272.01211248 334.38075539 267.39431381 330.41367722 C263.47404417 326.93332848 259.82705984 323.17161135 256.14057541 319.44729233 C254.85425217 318.15528915 254.85425217 318.15528915 253.5419426 316.83718491 C249.90562602 313.1846525 246.2753317 309.52615597 242.64448166 305.86819077 C239.97859944 303.18414077 237.30965731 300.50315991 234.64057541 297.82229233 C233.83201096 297.00542953 233.0234465 296.18856674 232.1903801 295.34695053 C228.70909348 291.85081448 225.21812472 288.42996696 221.47260666 285.21682358 C216.84488137 281.2344146 212.56650135 276.92403014 208.2702446 272.58962631 C206.79125632 271.0976499 205.30897039 269.60901679 203.82587814 268.12112045 C200.14610154 264.42811078 196.47184913 260.7296212 192.79743576 257.0312767 C189.68011912 253.89408929 186.56066453 250.75905631 183.43845749 247.62673569 C181.99192472 246.17381325 180.54848374 244.71786952 179.10517502 243.26174545 C174.67784573 238.81806739 170.19943459 234.54271976 165.43989182 230.45925522 C161.12470074 226.61753221 157.11220335 222.45567227 153.04682541 218.35354233 C152.06881122 217.37110855 151.0904929 216.38897745 150.11188889 215.4071312 C146.51558557 211.79759915 142.92480945 208.18258527 139.33387375 204.56771469 C136.28701962 201.50098483 133.23802414 198.43641319 130.18627548 195.37455368 C128.77298912 193.95488075 127.3628043 192.53212234 125.9527092 191.10927963 C122.2134693 187.35591574 118.48463925 183.64986575 114.45893478 180.2031517 C109.56887229 176.00513422 105.06508647 171.4213095 100.52946091 166.84884262 C98.91604027 165.22245964 97.2993427 163.59939537 95.68183517 161.97707748 C91.6681644 157.9501581 87.66000706 153.91776569 83.65168381 149.88552475 C80.25251817 146.46650613 76.85122674 143.04962834 73.44718552 139.63546371 C71.86770475 138.04958227 70.29130744 136.46068136 68.7150383 134.87160873 C64.71271921 130.84911321 60.7249182 126.84618037 56.41083908 123.155056 C51.43353879 118.89309436 46.86437271 114.22009184 42.2525692 109.57195091 C40.59375396 107.90019708 38.93168164 106.23174086 37.26879501 104.56403732 C33.74404253 101.02794985 30.22327051 97.48791595 26.70307541 93.94729233 C22.60947953 89.83001794 18.51422652 85.71441973 14.41473579 81.60301399 C12.78361939 79.96545389 11.15556167 78.32489498 9.52761459 76.68418503 C8.52285535 75.67579172 7.51795457 74.6675394 6.51288986 73.65945053 C5.64211304 72.78343689 4.77133621 71.90742325 3.87417221 71.00486374 C1.41808969 68.58782149 1.41808969 68.58782149 -1.34915543 66.46738815 C-4.85153377 63.62770692 -5.46872026 60.97999468 -5.92827225 56.58645248 C-5.95969315 55.46029526 -5.99111404 54.33413803 -6.02348709 53.17385483 C-6.0625618 51.90783432 -6.10163651 50.64181381 -6.14189529 49.33742905 C-6.17357567 47.97823606 -6.20440159 46.61902293 -6.23442459 45.25979233 C-6.26962435 43.86802292 -6.30502639 42.47625861 -6.34062576 41.08449936 C-6.40963078 38.27780708 -6.47068171 35.47108466 -6.5259285 32.6640892 C-6.59859334 28.99216542 -6.70358591 25.32156138 -6.80864334 21.65041733 C-6.84872777 19.60358652 -6.88663868 17.55671148 -6.92192459 15.50979233 C-6.95173416 14.57602768 -6.98154373 13.64226303 -7.01225662 12.68020248 C-7.01982986 11.81701401 -7.02740311 10.95382553 -7.03520584 10.06447983 C-7.04978836 9.32439682 -7.06437088 8.58431381 -7.07939529 7.82180405 C-6.21060169 3.77886735 -4.05256066 0.98586272 0 0 Z " fill="#000000" transform="translate(166.60942459106445,459.36520767211914)"/>
<path d="M0 0 C1.61106219 -0.14722834 1.61106219 -0.14722834 3.2546711 -0.29743099 C4.43026525 -0.38343343 5.60585941 -0.46943586 6.81707764 -0.55804443 C8.06193373 -0.65996125 9.30678982 -0.76187807 10.58936882 -0.86688328 C27.02452673 -2.14033324 43.48502365 -2.86075013 59.96063232 -3.33831787 C61.14656495 -3.37479864 61.14656495 -3.37479864 62.3564558 -3.41201639 C133.56586726 -5.56601621 133.56586726 -5.56601621 160.52362061 19.12704468 C172.97626555 31.15610353 184.10584053 45.23929003 193.18770218 59.97915268 C195.76946901 64.02554415 198.79213809 66.87650932 202.4554882 69.95881557 C206.87252011 73.78379235 210.92082404 78.00100111 215.03875732 82.14215088 C216.05135031 83.1566673 217.06417436 84.17095314 218.07720947 85.18502808 C220.24369391 87.35465307 222.40861998 89.52581652 224.57232666 91.69821167 C228.00008041 95.13958681 231.43173372 98.57705599 234.86395264 102.01397705 C242.76753728 109.92955989 250.66608113 117.85016639 258.5645752 125.77082825 C265.80892465 133.03540498 273.05435694 140.29889309 280.30385971 147.55832767 C283.7092763 150.96869918 287.11224624 154.38148707 290.51330566 157.79620361 C292.6360672 159.92647165 294.76094096 162.05462343 296.8863678 164.1822319 C297.86434366 165.16206545 298.84146213 166.14275572 299.81761169 167.12440872 C304.76992417 172.10373931 309.76002749 176.96451061 315.10057068 181.52802372 C317.07891035 183.22817373 318.9372193 185.02422078 320.77313232 186.87652588 C321.42410889 187.5307251 322.07508545 188.18492432 322.74578857 188.85894775 C323.39418701 189.5157251 324.04258545 190.17250244 324.71063232 190.84918213 C325.72963623 191.87495361 325.72963623 191.87495361 326.76922607 192.92144775 C328.41871726 194.58255508 330.06533368 196.24642546 331.71063232 197.91168213 C336.9608504 193.5887744 341.55908667 188.99635484 346.09695435 183.9390564 C347.57656616 182.30723389 349.05635758 180.67557421 350.53630066 179.04405212 C351.31983854 178.17737097 352.10337643 177.31068981 352.91065788 176.41774559 C357.23719434 171.63629733 361.58099815 166.87064157 365.931427 162.1109314 C366.39303898 161.60586655 366.85465096 161.10080169 367.33025119 160.58043185 C374.66554756 152.56152004 382.07809981 144.61867982 389.54623413 136.72341919 C390.05535868 136.18514614 390.56448323 135.6468731 391.08903579 135.09228875 C396.35965048 129.52261756 401.64067388 123.96293393 406.93160822 118.41256405 C409.64819786 115.56211085 412.36230684 112.70930727 415.07489014 109.8550415 C415.61459645 109.28722709 416.15430277 108.71941268 416.71036382 108.13439177 C424.27219713 100.16886141 431.6956305 92.0929335 439.02377573 83.91215214 C451.67375226 69.79100283 464.55230181 55.92689108 477.92156982 42.48199463 C478.4389512 41.96073852 478.95633257 41.43948241 479.48939216 40.90243065 C507.39081549 12.87002254 532.59731963 -5.35665781 574.01937866 -5.76144409 C591.51215014 -5.56782067 608.99549101 -4.06418308 626.2305603 -1.05197144 C627.03860025 -0.91717656 627.84664019 -0.78238168 628.6791662 -0.64350212 C633.21583564 0.23243189 635.86512626 1.22308443 638.71063232 4.91168213 C640.2914967 7.2872056 641.79979007 9.65940316 643.27313232 12.09918213 C644.15858943 13.54136375 645.04535269 14.98274409 645.93328857 16.42340088 C646.38977783 17.16509521 646.84626709 17.90678955 647.31658936 18.67095947 C649.56437128 22.28394415 651.88874376 25.84607177 654.21063232 29.41168213 C655.12360775 30.82690803 656.03636793 32.24227281 656.94891357 33.65777588 C658.81362783 36.54492525 660.71134007 39.4068594 662.62860107 42.25933838 C663.55223852 43.66398369 664.47543242 45.06892078 665.39813232 46.47418213 C665.83254639 47.10453369 666.26696045 47.73488525 666.71453857 48.38433838 C669.76344792 53.08723123 670.37682649 56.30985817 669.71063232 61.91168213 C668.53094482 64.09136963 668.53094482 64.09136963 666.83563232 65.78668213 C665.87850342 66.77088135 665.87850342 66.77088135 664.90203857 67.77496338 C664.17887451 68.48008057 663.45571045 69.18519775 662.71063232 69.91168213 C661.91528076 70.73023682 661.1199292 71.5487915 660.30047607 72.39215088 C656.74839761 76.02109039 653.16693496 79.53440536 649.29632568 82.82159424 C644.05971978 87.39375853 639.18777723 92.32200889 634.29393005 97.2532196 C632.57968646 98.98040889 630.8621793 100.70429533 629.14385986 102.4274292 C625.49660791 106.08602184 621.85331917 109.74854494 618.21063232 113.41168213 C613.98422602 117.66181582 609.7561421 121.91025275 605.52378845 126.15446472 C603.84459597 127.84006503 602.16848156 129.52868354 600.49249268 131.21746826 C592.03898843 139.711085 592.03898843 139.711085 587.73797607 143.38433838 C582.52423403 147.84209621 577.75275789 152.75894112 572.92353821 157.62361145 C571.14207984 159.41800548 569.35736595 161.20910622 567.57183838 162.99945068 C563.78192967 166.80070488 559.99598135 170.60588801 556.21063232 174.41168213 C551.81901012 178.82702398 547.42571507 183.24067461 543.02815247 187.65010071 C541.28248522 189.40218009 539.53989281 191.1572769 537.79742432 192.91253662 C529.01277522 201.73729698 529.01277522 201.73729698 524.7243042 205.39801025 C519.44737929 209.90503493 514.62425559 214.88770462 509.73834229 219.80880737 C507.92327667 221.63680392 506.10495931 223.46151169 504.28582764 225.28546143 C500.42459047 229.15804635 496.56731237 233.03455947 492.71063232 236.91168213 C488.23640227 241.40962817 483.76050163 245.9058856 479.28033447 250.3979187 C477.50142977 252.18323758 475.72559837 253.97157352 473.94989014 255.7600708 C469.04226221 260.68969135 464.11088608 265.51116785 458.81732178 270.02984619 C454.33674874 274.03219374 450.15499869 278.36108839 445.92353821 282.62361145 C444.14207984 284.41800548 442.35736595 286.20910622 440.57183838 287.99945068 C436.78192967 291.80070488 432.99598135 295.60588801 429.21063232 299.41168213 C424.81901012 303.82702398 420.42571507 308.24067461 416.02815247 312.65010071 C414.28248522 314.40218009 412.53989281 316.1572769 410.79742432 317.91253662 C402.0127635 326.73730829 402.0127635 326.73730829 397.71942139 330.40289307 C392.46656952 334.88920809 387.66468837 339.84716775 382.80127716 344.7458725 C381.00410406 346.5559594 379.20369392 348.36277196 377.40246582 350.16882324 C373.58568099 353.99695283 369.77287408 357.82902901 365.96063232 361.66168213 C361.52580544 366.12015845 357.08933699 370.5769759 352.64864349 375.02960968 C350.87844278 376.80627243 349.11128869 378.58592743 347.34423828 380.36572266 C346.25851004 381.45508346 345.17264113 382.54430409 344.08660889 383.63336182 C343.59926773 384.12586929 343.11192657 384.61837677 342.6098175 385.12580872 C336.15267855 391.58394435 336.15267855 391.58394435 331.96063232 392.53668213 C326.89024264 391.56160719 324.29992419 388.4893015 320.71063232 384.91168213 C320.21579346 384.41845459 319.72095459 383.92522705 319.21112061 383.41705322 C314.78189771 378.99583254 314.78189771 378.99583254 312.63031006 376.79571533 C309.92936567 374.048744 307.18460093 371.43447786 304.24383545 368.94488525 C299.08698171 364.45227224 294.29336247 359.60708369 289.47912598 354.75534058 C287.79848993 353.06175351 286.11458603 351.37147436 284.42987061 349.6819458 C280.24925221 345.48807195 276.07414253 341.28872813 271.89886475 337.08953857 C268.35877515 333.52960382 264.8165651 329.97180392 261.27160645 326.41671753 C259.62565126 324.76435681 257.98277587 323.10897748 256.34002686 321.45343018 C250.20018384 315.27565566 250.20018384 315.27565566 243.73797607 309.43902588 C238.59115563 305.03623656 233.87663237 300.18853444 229.10873413 295.38494873 C227.3608831 293.62415713 225.60977261 291.86666349 223.85784912 290.10992432 C219.51028282 285.74909622 215.16822084 281.382801 210.82598877 277.0166626 C207.14497552 273.31581141 203.46184675 269.61708957 199.77597046 265.92108154 C198.06354062 264.20224169 196.3541872 262.48038401 194.6449585 260.75836182 C188.3574052 254.42295785 188.3574052 254.42295785 181.73797607 248.43902588 C176.45729461 243.9263568 171.62886225 238.94029948 166.73834229 234.01455688 C164.92327667 232.18656034 163.10495931 230.36185257 161.28582764 228.53790283 C156.77131317 224.0101207 152.26229895 219.47687406 147.75311279 214.94378662 C143.93117617 211.10201874 140.10712857 207.26237511 136.28033447 203.42544556 C134.50142977 201.64012668 132.72559837 199.85179074 130.94989014 198.06329346 C124.50028645 191.55737583 124.50028645 191.55737583 117.71063232 185.41168213 C112.43745964 180.91031017 107.61964771 175.93101857 102.73834229 171.01455688 C100.92327667 169.18656034 99.10495931 167.36185257 97.28582764 165.53790283 C92.77131317 161.0101207 88.26229895 156.47687406 83.75311279 151.94378662 C79.93117617 148.10201874 76.10712857 144.26237511 72.28033447 140.42544556 C70.50142977 138.64012668 68.72559837 136.85179074 66.94989014 135.06329346 C62.02696139 130.11830598 57.080695 125.27909878 51.77029419 120.74649048 C47.52860622 116.96786806 43.57245614 112.88018628 39.57262611 108.84884071 C37.91381088 107.17708688 36.25173855 105.50863066 34.58885193 103.84092712 C31.06409944 100.30483965 27.54332743 96.76480575 24.02313232 93.22418213 C19.92953645 89.10690775 15.83428343 84.99130953 11.73479271 80.87990379 C10.10367631 79.24234369 8.47561858 77.60178478 6.84767151 75.96107483 C5.84291226 74.95268152 4.83801148 73.9444292 3.83294678 72.93634033 C2.96216995 72.06032669 2.09139313 71.18431305 1.19422913 70.28175354 C-1.26170016 67.86468214 -1.26170016 67.86468214 -4.02909851 65.74526978 C-7.48805482 62.93927673 -8.13773485 60.31016404 -8.60821533 55.9710083 C-8.63963623 54.89311035 -8.67105713 53.8152124 -8.70343018 52.70465088 C-8.74250488 51.48890381 -8.78157959 50.27315674 -8.82183838 49.02056885 C-8.85237305 47.72651123 -8.88290771 46.43245361 -8.91436768 45.09918213 C-8.94959871 43.7581946 -8.98500079 42.41721155 -9.02056885 41.07623291 C-9.08989866 38.34913756 -9.15094105 35.62201435 -9.20587158 32.89459229 C-9.25949248 30.33678147 -9.32099018 27.77911686 -9.39239502 25.22174072 C-9.48378024 21.9100701 -9.54774668 18.59914488 -9.60186768 15.28668213 C-9.63167725 14.29305664 -9.66148682 13.29943115 -9.69219971 12.2756958 C-9.69977295 11.35893066 -9.70734619 10.44216553 -9.71514893 9.49761963 C-9.72973145 8.70404053 -9.74431396 7.91046143 -9.75933838 7.09283447 C-8.65050707 1.94670516 -4.82508246 0.41176558 0 0 Z " fill="#000000" transform="translate(169.28936767578125,148.08831787109375)"/>
</svg>
