<?xml version="1.0" encoding="UTF-8"?>
<svg version="1.1" xmlns="http://www.w3.org/2000/svg" width="512" height="512">
<path d="M0 0 C1.40025167 -0.00445668 1.40025167 -0.00445668 2.82879126 -0.0090034 C5.93499325 -0.01762631 9.04115641 -0.0191932 12.14736938 -0.02069092 C14.38385092 -0.02532375 16.62033168 -0.03034903 18.85681152 -0.03573608 C24.91934414 -0.04881998 30.98186571 -0.05529757 37.04441023 -0.05974674 C40.83954102 -0.06268483 44.63466884 -0.06679108 48.42979813 -0.07125092 C58.96434812 -0.08335361 69.49889635 -0.09373692 80.03345299 -0.09712601 C80.70640781 -0.09734557 81.37936263 -0.09756514 82.07271001 -0.09779136 C83.08438713 -0.09811878 83.08438713 -0.09811878 84.11650217 -0.09845281 C85.48291103 -0.09889625 86.8493199 -0.09934282 88.21572876 -0.09979248 C88.89349675 -0.10001391 89.57126473 -0.10023534 90.26957114 -0.10046348 C101.22988947 -0.10440399 112.19014101 -0.12183788 123.15043359 -0.145152 C134.43850517 -0.16896682 145.72654459 -0.18107543 157.01464522 -0.18249393 C163.33814517 -0.18353727 169.66155087 -0.18934405 175.98502731 -0.20731354 C181.94244642 -0.2239139 187.89970164 -0.22589219 193.85713577 -0.21717453 C196.02934461 -0.21641043 198.20156269 -0.22066273 200.37374878 -0.23063278 C231.096979 -0.36324288 256.93939423 5.3592278 281.31387329 25.14044189 C282.17883423 25.83911377 283.04379517 26.53778564 283.93496704 27.25762939 C304.85477929 45.07700145 317.00232169 72.03509457 319.31387329 99.14044189 C319.44465057 102.38130016 319.45343185 105.61701149 319.44758606 108.86021423 C319.44985162 109.79724318 319.45211717 110.73427212 319.45445138 111.69969589 C319.46074599 114.81757127 319.45996495 117.93540268 319.45913696 121.05328369 C319.46213131 123.29787756 319.46553448 125.54247092 319.46931458 127.7870636 C319.47813127 133.86992406 319.48049172 139.95277043 319.48113036 146.03563666 C319.48184225 149.84077904 319.48397922 153.64591785 319.48662758 157.45105934 C319.495397 170.05460093 319.50004825 182.65813228 319.4992971 195.2616761 C319.49923717 196.27903943 319.49923717 196.27903943 319.49917603 197.31695557 C319.49913514 197.9960351 319.49909426 198.67511464 319.49905214 199.37477235 C319.49864602 210.37078502 319.50820912 221.3667634 319.52231439 232.36276617 C319.53671486 243.67906641 319.54339986 254.99534477 319.54272062 266.3116563 C319.54246632 272.65453523 319.54527969 278.99737534 319.55589867 285.3402462 C319.56562038 291.30993602 319.56563099 297.27955021 319.55838203 303.24924278 C319.55734121 305.43161124 319.55966903 307.6139845 319.56574249 309.79634476 C319.60265079 323.98535352 319.3379669 337.80873973 315.18887329 351.51544189 C314.97714478 352.21894775 314.76541626 352.92245361 314.54727173 353.64727783 C305.96278228 380.70471926 286.87701729 402.96139048 261.98574829 416.32403564 C245.88277668 424.53655116 228.60429889 428.3066176 210.59410095 428.27415466 C209.65707201 428.27642022 208.72004306 428.27868578 207.7546193 428.28101999 C204.63674391 428.28731459 201.5189125 428.28653355 198.40103149 428.28570557 C196.15643763 428.28869991 193.91184427 428.29210308 191.66725159 428.29588318 C185.58439113 428.30469987 179.50154475 428.30706033 173.41867852 428.30769897 C169.61353615 428.30841085 165.80839733 428.31054782 162.00325584 428.31319618 C149.39971426 428.3219656 136.7961829 428.32661685 124.19263909 428.32586571 C123.17527575 428.32580577 123.17527575 428.32580577 122.13735962 428.32574463 C121.45828008 428.32570375 120.77920054 428.32566287 120.07954284 428.32562075 C109.08353016 428.32521462 98.08755178 428.33477773 87.09154902 428.348883 C75.77524877 428.36328347 64.45897041 428.36996846 53.14265889 428.36928922 C46.79977995 428.36903492 40.45693985 428.37184829 34.11406898 428.38246727 C28.14437917 428.39218898 22.17476497 428.39219959 16.2050724 428.38495064 C14.02270395 428.38390981 11.84033068 428.38623763 9.65797043 428.3923111 C-4.53103833 428.42921939 -18.35442455 428.1645355 -32.06112671 424.01544189 C-32.76463257 423.80371338 -33.46813843 423.59198486 -34.19296265 423.37384033 C-61.08141453 414.84296604 -83.57966237 395.82383259 -96.80331421 370.98809814 C-98.94453406 366.73789903 -100.78149738 362.38989042 -102.49862671 357.95294189 C-102.91567871 356.91436035 -102.91567871 356.91436035 -103.34115601 355.85479736 C-109.13994073 339.98536824 -109.1259504 322.82699926 -109.0743103 306.17169189 C-109.07838636 303.93373358 -109.08373399 301.69577728 -109.09024048 299.45782471 C-109.10379691 293.43715378 -109.09866412 287.41663887 -109.08910322 281.39596558 C-109.08144559 275.06013606 -109.08856903 268.72431887 -109.09326172 262.38848877 C-109.09904891 251.07478981 -109.08979456 239.76116919 -109.07448371 228.44748592 C-109.06108412 218.23051986 -109.06341333 208.01365612 -109.07723999 197.79669189 C-109.09336598 185.87543439 -109.09923279 173.95423879 -109.0904032 162.03296661 C-109.08575433 155.74316455 -109.08502439 149.45343265 -109.09501266 143.16363525 C-109.1037539 137.24710158 -109.09753122 131.3307589 -109.0803299 125.41424561 C-109.07640296 123.25816157 -109.07743293 121.10206113 -109.08411789 118.94598389 C-109.13012557 102.58399548 -108.68043069 85.72599293 -102.49862671 70.32794189 C-102.19819458 69.55007324 -101.89776245 68.77220459 -101.58822632 67.97076416 C-97.00918363 56.50018565 -90.76791188 46.49745944 -82.68612671 37.14044189 C-82.08413452 36.39407471 -81.48214233 35.64770752 -80.86190796 34.87872314 C-64.1391577 14.79038793 -37.82077184 3.14107987 -12.19627166 0.35669661 C-8.12980942 0.00636161 -4.07930046 -0.0041305 0 0 Z " fill="#696BFB" transform="translate(150.68612670898438,41.85955810546875)"/>
<path d="M0 0 C3.99386332 2.35497671 7.17559028 4.56585722 8.73828125 9.05859375 C9.57579111 15.21800169 8.73290403 20.6417525 6.95910645 26.56384277 C6.41426353 28.40948067 6.41426353 28.40948067 5.8584137 30.29240417 C5.48876999 31.53524673 5.11912628 32.77808929 4.73828125 34.05859375 C4.0898166 36.32633488 3.44487175 38.59508569 2.80358887 40.86486816 C2.31178383 42.5972171 2.31178383 42.5972171 1.81004333 44.36456299 C1.46602982 45.5765033 1.1220163 46.7884436 0.76757812 48.03710938 C-3.02468804 61.39218689 -6.82830229 74.74401132 -10.63790131 88.09415436 C-12.93669461 96.15099552 -15.23145146 104.20894737 -17.51708984 112.26953125 C-19.5220658 119.3402793 -21.53446002 126.40886622 -23.55576086 133.47496557 C-24.62208678 137.20362031 -25.68472576 140.93323521 -26.73841858 144.66548157 C-27.72741043 148.16813048 -28.72631565 151.66779907 -29.73280525 155.16545868 C-30.27345788 157.05390686 -30.80364799 158.94534068 -31.33348083 160.83685303 C-33.380083 167.90505304 -35.3966136 174.21350689 -41.26171875 179.05859375 C-47.06257485 180.99221245 -53.15989335 181.05218394 -58.69921875 178.43359375 C-64.97417235 172.6177831 -64.97417235 172.6177831 -65.52807617 167.68798828 C-65.59705121 160.73100094 -64.38111142 155.06121458 -62.19921875 148.49609375 C-59.62128386 140.58520044 -57.28299482 132.64873803 -55.171875 124.6015625 C-50.79208868 108.13606504 -46.11762616 91.7555677 -41.45428467 75.36865234 C-40.53067755 72.12125396 -39.60904428 68.87329677 -38.68737793 65.62534714 C-36.48311995 57.85785528 -34.2719115 50.09239513 -32.05126953 42.32957077 C-30.75252596 37.78684766 -29.46704126 33.24056188 -28.1875 28.69238281 C-27.57716009 26.54612805 -26.96650886 24.39996177 -26.35546875 22.25390625 C-26.09544067 21.3177951 -25.8354126 20.38168396 -25.56750488 19.41720581 C-23.37936704 11.79339517 -21.224426 4.52186763 -14.26171875 0.05859375 C-9.47048627 -1.53848374 -4.75032512 -1.97725104 0 0 Z " fill="#B2B4FD" transform="translate(284.26171875,165.94140625)"/>
<path d="M0 0 C5.45027769 2.31884542 9.48537995 5.55165656 12 11 C12.9317604 16.95469867 11.89101417 20.71758223 9 26 C2.8865762 33.79242307 -4.53368562 40.65746661 -11.5625 47.625 C-12.58161754 48.63908446 -13.60049899 49.65340625 -14.61914062 50.66796875 C-17.07672412 53.11470835 -19.53744246 55.55826544 -22 58 C-21.34 59.98 -20.68 61.96 -20 64 C-19.34 64 -18.68 64 -18 64 C-16.83921625 65.39976864 -15.68309001 66.80366122 -14.55078125 68.2265625 C-12.85322621 70.16784711 -11.03146832 71.77347706 -9.0625 73.4375 C-5.81976968 76.19869706 -3.07175954 79.09687153 -0.3671875 82.37890625 C0.86629332 83.84146208 2.20962445 85.20962445 3.5625 86.5625 C12.10218978 95.10218978 12.10218978 95.10218978 12.375 101.125 C12.28908405 106.46038054 10.6357057 110.10961927 7 114 C3.35586696 116.7064168 -0.03795609 117.8453858 -4.5 118.5625 C-13.67507354 117.08793461 -20.03317985 109.40700312 -26.30078125 103.09765625 C-27.26821514 102.13224804 -28.23609358 101.16728514 -29.20439148 100.20274353 C-31.22034959 98.19118128 -33.23085051 96.17436293 -35.23754883 94.15356445 C-37.80057241 91.57340441 -40.3768958 89.00701244 -42.95744038 86.4443903 C-44.95410104 84.45860248 -46.94352201 82.46568491 -48.93086815 80.47057915 C-50.33547745 79.06301847 -51.74608999 77.66145661 -53.15681458 76.26002502 C-54.01167953 75.39570358 -54.86654449 74.53138214 -55.74731445 73.64086914 C-56.49817825 72.88761856 -57.24904205 72.13436798 -58.0226593 71.35829163 C-61.66294754 67.01667195 -63.67585306 62.80909871 -63.40077209 57.04618835 C-61.77615387 48.75151182 -53.78722238 42.35114016 -48.09765625 36.69921875 C-47.13224804 35.73178486 -46.16728514 34.76390642 -45.20274353 33.79560852 C-43.19118128 31.77965041 -41.17436293 29.76914949 -39.15356445 27.76245117 C-36.57340441 25.19942759 -34.00701244 22.6231042 -31.4443903 20.04255962 C-29.45860248 18.04589896 -27.46568491 16.05647799 -25.47057915 14.06913185 C-24.06301847 12.66452255 -22.66145661 11.25391001 -21.26002502 9.84318542 C-20.39570358 8.98832047 -19.53138214 8.13345551 -18.64086914 7.25268555 C-17.88761856 6.50182175 -17.13436798 5.75095795 -16.35829163 4.9773407 C-11.46226069 0.87219902 -6.4026203 -1.27093212 0 0 Z " fill="#EEEFFE" transform="translate(196,197)"/>
<path d="M0 0 C0.99902344 -0.01933594 1.99804688 -0.03867188 3.02734375 -0.05859375 C10.91308457 1.23032399 16.52114649 8.57358912 21.9140625 13.953125 C23.31874283 15.34782013 23.31874283 15.34782013 24.75180054 16.77069092 C26.72709062 18.73405353 28.69825223 20.70145721 30.66699219 22.67138672 C33.17619788 25.18079559 35.69888306 27.6761587 38.22533607 30.16818619 C40.1814749 32.10196747 42.12833415 34.04489381 44.07279587 35.99040985 C45.44483217 37.35897495 46.82591188 38.71845465 48.20718384 40.07769775 C53.40129184 45.30979884 58.27063892 50.33080408 59.4453125 57.90625 C58.13406724 68.23727326 49.81891561 74.99841259 42.7890625 82.046875 C41.90648773 82.93610657 41.02391296 83.82533813 40.11459351 84.74151611 C38.25643227 86.6097543 36.39559444 88.47533375 34.53222656 90.33837891 C32.63230924 92.23813307 30.73971153 94.14472789 28.85351562 96.05810547 C26.11292743 98.83540649 23.35913355 101.59894676 20.6015625 104.359375 C19.76485016 105.21045837 18.92813782 106.06154175 18.06607056 106.93841553 C12.97405399 111.99130952 7.95906534 116.75763367 0.55859375 117.78515625 C-4.96951964 117.0194024 -8.94760217 115.42739783 -12.9375 111.4375 C-15.85488506 107.2966954 -16.29996777 103.69868596 -16.43359375 98.78125 C-15.06168952 92.2998127 -9.30096199 87.53443965 -4.765625 83.0703125 C-4.0832074 82.39072479 -3.40078979 81.71113708 -2.69769287 81.01095581 C-0.53230651 78.85670055 1.63995386 76.70953208 3.8125 74.5625 C5.28822108 73.09681784 6.76348646 71.63067671 8.23828125 70.1640625 C11.84110194 66.58320834 15.45010116 63.00869036 19.0625 59.4375 C17.73998045 56.50204477 16.31607616 54.45127825 14.02148438 52.20117188 C13.10042908 51.29002625 13.10042908 51.29002625 12.1607666 50.36047363 C11.49927612 49.71557983 10.83778564 49.07068604 10.15625 48.40625 C9.47574585 47.73331909 8.7952417 47.06038818 8.09411621 46.36706543 C5.92164875 44.21900911 3.7428944 42.07750783 1.5625 39.9375 C-1.30782953 37.12033644 -4.17151313 34.29666123 -7.03125 31.46875 C-7.69274048 30.8238562 -8.35423096 30.1789624 -9.0357666 29.51452637 C-9.9568219 28.60338074 -9.9568219 28.60338074 -10.89648438 27.67382812 C-11.43672241 27.14406372 -11.97696045 26.61429932 -12.53356934 26.06848145 C-15.82885818 22.24026179 -16.43399573 18.74117246 -16.3203125 13.8203125 C-15.49649376 8.69246116 -12.76380771 4.78401501 -8.6328125 1.73828125 C-5.54169822 0.24648262 -3.41976756 0.00440125 0 0 Z " fill="#EDEEFE" transform="translate(319.9375,197.5625)"/>
</svg>
