<?xml version="1.0" encoding="UTF-8"?>
<svg version="1.1" xmlns="http://www.w3.org/2000/svg" width="512" height="512">
<path d="M0 0 C1.61367958 -0.00271299 3.22735792 -0.00627565 4.84103394 -0.01062012 C9.20422283 -0.01970536 13.56731672 -0.01621703 17.93050718 -0.00986195 C22.49929778 -0.00478713 27.06808041 -0.00949703 31.63687134 -0.01263428 C39.30154884 -0.01626739 46.96618774 -0.0114897 54.63085938 -0.00195312 C63.4992151 0.00895347 72.36747903 0.00538726 81.23583257 -0.00560594 C88.85210596 -0.01466972 96.46835166 -0.01596926 104.0846287 -0.0107286 C108.63302723 -0.00760688 113.18138252 -0.00720556 117.72977829 -0.01380157 C121.99961039 -0.01956201 126.26932342 -0.01560221 130.53914261 -0.00401306 C132.10893811 -0.00136047 133.67874357 -0.00214172 135.24853516 -0.00653839 C137.38452626 -0.01197126 139.52013119 -0.00518799 141.65609741 0.00482178 C143.4518348 0.00595285 143.4518348 0.00595285 145.28384972 0.00710678 C148.06884766 0.25878906 148.06884766 0.25878906 150.06884766 2.25878906 C150.32218075 4.41629887 150.32218075 4.41629887 150.32713318 7.14625549 C150.33396118 8.17935349 150.34078918 9.21245148 150.3478241 10.27685547 C150.34527115 11.41501709 150.3427182 12.55317871 150.34008789 13.72583008 C150.34531464 14.92110825 150.35054138 16.11638641 150.35592651 17.34788513 C150.36887929 20.63341963 150.37322428 23.91884509 150.37476993 27.2044003 C150.37923711 30.64623113 150.39723239 34.08798385 150.41456604 37.5297699 C150.46378015 47.77836487 150.49457459 58.02700593 150.51586914 68.2756958 C150.53242396 76.22829253 150.55535048 84.18074588 150.59888989 92.13324684 C150.61703954 95.55689742 150.62929082 98.98035182 150.62759209 102.40405464 C150.62778465 106.23154527 150.64609213 110.05856847 150.66821289 113.88598633 C150.66363571 115.00997833 150.65905853 116.13397034 150.65434265 117.29202271 C150.71260654 123.65017621 151.17471626 129.49293372 154.06884766 135.25878906 C157.65699645 138.75942203 160.23362009 140.38180549 165.19271851 140.39009094 C166.05634506 140.39409912 166.91997162 140.3981073 167.80976868 140.40223694 C168.75942001 140.40170822 169.70907135 140.4011795 170.6875 140.40063477 C171.68598465 140.40410919 172.6844693 140.40758362 173.71321106 140.41116333 C175.88654394 140.41852788 178.05988438 140.42386952 180.23322678 140.42745399 C183.67065329 140.43460332 187.10793571 140.45025785 190.5453186 140.46879578 C200.32039427 140.5213416 210.09539157 140.56926471 219.87060547 140.5847168 C225.84472788 140.59478104 231.81848911 140.62406618 237.79246902 140.66603661 C240.07224423 140.67837382 242.3520704 140.68346293 244.6318779 140.68123817 C247.81878141 140.67889333 251.0046432 140.70099015 254.19140625 140.72875977 C255.60981056 140.71885765 255.60981056 140.71885765 257.05686951 140.70875549 C257.92613571 140.72122314 258.79540192 140.7336908 259.69100952 140.74653625 C260.82091844 140.75011878 260.82091844 140.75011878 261.97365379 140.75377369 C265.13466525 141.51568857 266.20216487 142.59280715 268.06884766 145.25878906 C268.4615985 148.27656891 268.60923874 150.92877686 268.57678223 153.94622803 C268.58614217 155.27586795 268.58614217 155.27586795 268.5956912 156.63236928 C268.61167374 159.60934835 268.59899579 162.58551454 268.58642578 165.5625 C268.59184502 167.69474262 268.59896656 169.8269815 268.60766602 171.95921326 C268.62593898 177.75954542 268.61881185 183.55959371 268.60614967 189.35993099 C268.59602686 195.43700365 268.60541483 201.51405188 268.61169434 207.59112549 C268.61897947 217.81030637 268.60936724 228.0293718 268.59033203 238.24853516 C268.56863153 250.03403156 268.57556149 261.81925041 268.59763765 273.6047399 C268.61585054 283.73579638 268.61831917 293.86676973 268.60788298 303.99783731 C268.60167134 310.04242504 268.60074658 316.08688289 268.61402893 322.1314621 C268.62567002 327.82787956 268.61741197 333.52394385 268.5944519 339.22032356 C268.58920563 341.30024952 268.59060767 343.38020569 268.59950256 345.46011925 C268.67928736 366.02957812 266.02746414 383.53683436 251.27978516 399.04394531 C250.55017578 399.77484375 249.82056641 400.50574219 249.06884766 401.25878906 C248.50423828 401.835 247.93962891 402.41121094 247.35791016 403.00488281 C233.03104331 416.45816021 214.94913222 416.70432735 196.56176758 416.6628418 C194.27746752 416.66855018 191.99317031 416.67551624 189.70887756 416.68363953 C183.52692655 416.70153556 177.34511775 416.70040903 171.16314864 416.69469714 C165.99193791 416.69159973 160.82075427 416.69770399 155.6495474 416.70373589 C142.74694528 416.71856943 129.84443188 416.71497758 116.94183133 416.70287258 C105.76483405 416.69294605 94.58800246 416.70587509 83.41103073 416.72980677 C71.90480582 416.75425574 60.39867672 416.76339257 48.8924244 416.75715405 C42.44446308 416.75379176 35.99663856 416.75615102 29.54869652 416.77340508 C23.4820439 416.78893117 17.41570621 416.78485569 11.34906578 416.76609993 C9.13122109 416.76242954 6.91335277 416.7654769 4.69552994 416.77598572 C-15.21130388 416.86305997 -31.50499248 414.39132168 -46.68115234 400.19628906 C-64.12321592 381.72229965 -64.54043248 360.39098107 -64.45405102 336.25887108 C-64.44491134 332.474188 -64.45901392 328.68957571 -64.4699707 324.90490723 C-64.48766643 317.51152044 -64.48395615 310.11829699 -64.47232014 302.72490406 C-64.46325061 296.71091698 -64.46207695 290.69697537 -64.46641541 284.6829834 C-64.46702834 283.8238581 -64.46764127 282.96473279 -64.46827278 282.07957339 C-64.4695518 280.33374563 -64.47084866 278.58791787 -64.47216314 276.84209013 C-64.48354273 260.50886806 -64.47049652 244.1757361 -64.44896168 227.84252882 C-64.43109308 213.85753923 -64.43419793 199.8726825 -64.45263672 185.88769531 C-64.47408991 169.60902855 -64.48244434 153.33044056 -64.47018766 137.05176163 C-64.4689136 135.31270601 -64.46765611 133.57365037 -64.46641541 131.83459473 C-64.4657983 130.97916352 -64.4651812 130.12373231 -64.4645454 129.24237895 C-64.46110582 123.24241781 -64.46689066 117.24250705 -64.47633362 111.24255371 C-64.48760459 103.92084727 -64.48440725 96.59931214 -64.46321064 89.27762508 C-64.45276825 85.54894533 -64.44846036 81.82055019 -64.46180725 78.09187317 C-64.53761851 54.96228164 -63.93773944 35.1077977 -47.13427734 17.46972656 C-46.40724609 16.74011719 -45.68021484 16.01050781 -44.93115234 15.25878906 C-44.38974609 14.69417969 -43.84833984 14.12957031 -43.29052734 13.54785156 C-31.16297938 1.97155578 -15.93484234 -0.04500849 0 0 Z M88.99468994 172.85427856 C86.767163 176.79210822 86.52663972 179.7983294 86.61474609 184.19189453 C86.61416199 184.96330276 86.61357788 185.734711 86.61297607 186.52949524 C86.61574781 189.06212427 86.64679499 191.59355488 86.67822266 194.12597656 C86.68568832 195.88859413 86.69137972 197.65122003 86.69537354 199.41384888 C86.71060428 204.04019313 86.74986376 208.66603051 86.79418945 213.29217529 C86.83519758 218.01795598 86.85339636 222.74381902 86.87353516 227.46972656 C86.91636071 236.7329694 86.98458081 245.99583698 87.06884766 255.25878906 C83.71360299 253.03719378 80.427568 250.84678764 77.33447266 248.27050781 C76.68236816 247.73200195 76.03026367 247.19349609 75.35839844 246.63867188 C74.68534668 246.08018555 74.01229492 245.52169922 73.31884766 244.94628906 C61.28250799 234.0614319 61.28250799 234.0614319 46.38525391 229.97753906 C41.73740072 230.54186525 39.02858233 233.35093194 35.75634766 236.44628906 C33.46790062 240.26036746 32.52952422 243.81611224 33.06884766 248.25878906 C35.33914463 255.00776279 39.4246061 258.81148001 44.94384766 263.07128906 C46.07777954 263.97512329 46.07777954 263.97512329 47.23461914 264.8972168 C49.50161382 266.69904028 51.78322446 268.480687 54.06884766 270.25878906 C55.29221963 271.22142184 56.51493235 272.18489335 57.73681641 273.14941406 C59.42870031 274.48296847 61.12218541 275.81415037 62.8215332 277.13818359 C67.35640016 280.67300772 71.80893532 284.30235459 76.25634766 287.94628906 C87.72975853 298.52584494 87.72975853 298.52584494 101.63134766 303.69628906 C102.43701172 303.756875 103.24267578 303.81746094 104.07275391 303.87988281 C111.81489333 302.27492822 118.34730181 295.5578109 124.25634766 290.57128906 C125.74747867 289.32783355 127.23968064 288.08566126 128.73291016 286.84472656 C129.46541992 286.2359668 130.19792969 285.62720703 130.95263672 285 C133.97317974 282.5147078 137.04481379 280.09880921 140.13134766 277.69628906 C147.30279942 272.1085242 154.35749115 266.38029706 161.38916016 260.61791992 C162.87819053 259.41306061 164.39549498 258.24333061 165.91650391 257.07910156 C169.0159347 254.45780437 169.92456072 252.13665035 171.06884766 248.25878906 C171.46383903 243.06878616 170.57343799 239.37083335 167.25634766 235.32128906 C163.98708682 231.76628307 160.7428277 229.97131278 155.88134766 229.75878906 C146.39063326 230.08128907 138.87777058 238.73691578 131.91625977 244.49975586 C131.26278564 245.04027588 130.60931152 245.5807959 129.93603516 246.13769531 C129.35966309 246.61795166 128.78329102 247.09820801 128.18945312 247.59301758 C125.22334672 249.92294436 122.14804875 252.08055307 119.06884766 254.25878906 C119.06298141 253.36422501 119.05711517 252.46966095 119.05107117 251.54798889 C118.9930001 243.08883626 118.92084134 234.62994363 118.83313274 226.17104435 C118.78853778 221.82295167 118.74925817 217.47495034 118.72241211 213.12670898 C118.69627002 208.92493832 118.65579184 204.72352125 118.60566139 200.52197075 C118.58906603 198.92457946 118.57750634 197.32712712 118.57123375 195.72966194 C119.01746203 182.36772843 119.01746203 182.36772843 113.65287781 170.65663147 C109.44553566 166.94382255 105.76247719 165.88931725 100.19384766 165.98144531 C95.21321136 166.63149159 92.07236353 169.00304322 88.99468994 172.85427856 Z " fill="#2563EB" transform="translate(153.93115234375,47.7412109375)"/>
<path d="M0 0 C4.14269046 0.57804983 6.48083465 2.89928231 9.09887695 6.10107422 C10.66595329 8.2095042 12.18273421 10.34665994 13.6875 12.5 C14.84356314 14.1277369 15.99981849 15.7553373 17.15625 17.3828125 C17.74277344 18.21329102 18.32929688 19.04376953 18.93359375 19.89941406 C21.65765702 23.74434746 24.42346443 27.55875827 27.1875 31.375 C28.2697273 32.87355635 29.35175797 34.37225473 30.43359375 35.87109375 C32.61079023 38.88592519 34.79072917 41.89874694 36.97265625 44.91015625 C42.74996537 52.88834504 48.48160865 60.89509966 54.1484375 68.95214844 C57.9789607 74.39057694 61.8543586 79.79554842 65.75 85.1875 C66.29849609 85.94675781 66.84699219 86.70601563 67.41210938 87.48828125 C70.31237312 91.51301425 70.31237312 91.51301425 73.34155273 95.44018555 C75.05387661 97.90167053 75.00504309 99.4377264 74.6875 102.375 C73.01962103 104.04287897 70.99028498 103.50674169 68.76223755 103.52163696 C68.05831879 103.52118378 67.35440002 103.52073059 66.62915039 103.52026367 C65.89094559 103.52362228 65.15274078 103.5269809 64.39216614 103.53044128 C61.93981262 103.53997882 59.48752718 103.54189579 57.03515625 103.54296875 C55.33743765 103.54617939 53.63971934 103.54954331 51.94200134 103.55305481 C48.37840127 103.5590531 44.81482547 103.56089399 41.2512207 103.56030273 C36.67656956 103.56020107 32.1020735 103.5738542 27.52745914 103.59107494 C24.0196816 103.60217344 20.51194179 103.60422261 17.00414848 103.60369301 C15.31718855 103.60487634 13.63022773 103.60931778 11.94328499 103.61702538 C9.58715975 103.62678209 7.23137442 103.62396453 4.87524414 103.61791992 C4.17334961 103.62353943 3.47145508 103.62915894 2.74829102 103.63494873 C-2.08418423 103.60331577 -2.08418423 103.60331577 -4.3125 101.375 C-4.51154271 98.25145011 -4.58510863 95.21651456 -4.57128906 92.09179688 C-4.5747937 91.12911392 -4.57829834 90.16643097 -4.58190918 89.17457581 C-4.59073778 85.98089463 -4.58487333 82.78743357 -4.578125 79.59375 C-4.57947132 77.38179481 -4.58141158 75.16983991 -4.58392334 72.95788574 C-4.58687613 68.31743559 -4.58257195 63.67706232 -4.57324219 59.03662109 C-4.56184761 53.07756175 -4.56840625 47.11868255 -4.58038712 41.15962982 C-4.58760151 36.59070469 -4.58531972 32.02182252 -4.58013153 27.45289612 C-4.57879387 25.25517251 -4.5804468 23.05744506 -4.58509064 20.85972595 C-4.59014894 17.792446 -4.58245539 14.72546101 -4.57128906 11.65820312 C-4.57533752 10.74281265 -4.57938599 9.82742218 -4.58355713 8.8842926 C-4.52837029 0.73433032 -4.52837029 0.73433032 0 0 Z " fill="#2563EB" transform="translate(340.3125,54.625)"/>
</svg>
