<?xml version="1.0" encoding="UTF-8"?>
<svg version="1.1" xmlns="http://www.w3.org/2000/svg" width="512" height="512">
<path d="M0 0 C10.9508949 8.33890367 17.86842017 18.35621726 20.58984375 31.9453125 C22.76156808 48.11948796 18.61773703 61.62552895 8.9375 74.5625 C4.10372355 81.05305106 1.27465287 86.78723379 -0.1015625 94.78125 C-0.35800537 96.25174805 -0.35800537 96.25174805 -0.61962891 97.75195312 C-0.74515137 98.49380859 -0.87067383 99.23566406 -1 100 C-0.0826004 99.98889694 0.83479919 99.97779388 1.77999878 99.96635437 C10.45932688 99.86583781 19.13845725 99.78987591 27.8182354 99.74093914 C32.27979398 99.71493356 36.74086842 99.67970289 41.20214844 99.62280273 C45.51400583 99.5681575 49.8253999 99.53851161 54.13757706 99.52561378 C55.77612722 99.51643181 57.41465431 99.49850226 59.05300522 99.47134972 C69.17358316 99.31041262 78.00454383 99.5372748 85.89498901 106.72660828 C93.12566386 114.16063468 93.43702804 122.80531234 93.38095093 132.63903809 C93.3856309 133.90204664 93.39031087 135.16505519 93.39513266 136.46633673 C93.40761369 139.95598549 93.40148565 143.44538697 93.39217401 146.93503642 C93.3853719 150.7046986 93.39587049 154.47431897 93.40411377 158.24397278 C93.41744093 165.62237993 93.41457791 173.00069544 93.40587585 180.37910616 C93.3990957 186.37666171 93.39818401 192.3741916 93.4014473 198.37174988 C93.401907 199.2259428 93.40236669 200.08013572 93.40284032 200.96021327 C93.40379952 202.69558816 93.40477216 204.43096304 93.4057581 206.16633791 C93.41430901 222.43202504 93.40448255 238.69766142 93.388357 254.96334022 C93.37495409 268.91455041 93.37728226 282.8656857 93.39111328 296.81689453 C93.40717437 313.02509942 93.41348507 329.23325984 93.40427649 345.44147158 C93.40332086 347.17039775 93.40237775 348.89932393 93.4014473 350.62825012 C93.40098447 351.4788746 93.40052164 352.32949907 93.40004479 353.20590004 C93.39745649 359.1949914 93.40182245 365.1840545 93.40888596 371.17314148 C93.41730702 378.47365027 93.41500807 385.77406231 93.39904372 393.07456005 C93.39116915 396.79810082 93.38805544 400.52148039 93.39799118 404.24501991 C93.40860499 408.28380709 93.39591626 412.32218859 93.38095093 416.36096191 C93.38764309 417.53450525 93.39433526 418.70804858 93.40123022 419.91715384 C93.33923185 428.53439829 92.13090511 435.87701835 85.88964653 442.27396452 C77.03077543 450.36580898 66.50562866 449.70864947 55.24951172 449.63491821 C53.3340932 449.6406837 51.41868021 449.64862769 49.50327873 449.65855443 C44.25469677 449.67939209 39.00657044 449.66912643 33.75798702 449.65362334 C28.09190245 449.64230124 22.42589572 449.65977684 16.75982666 449.67352295 C5.66586559 449.69575061 -5.42792629 449.69095619 -16.52189398 449.67645974 C-25.53855623 449.66516569 -34.55517108 449.66363734 -43.57183838 449.66907883 C-45.49712661 449.67022807 -45.49712661 449.67022807 -47.46130955 449.67140054 C-50.06880491 449.67299917 -52.67630026 449.67462024 -55.2837956 449.6762635 C-79.03476009 449.69011327 -102.78562214 449.67575298 -126.53657034 449.64955051 C-148.20867442 449.62582325 -169.88063158 449.62794642 -191.55273438 449.65185547 C-215.91336 449.67864085 -240.27388566 449.68914634 -264.63452721 449.67379415 C-267.23240533 449.67220141 -269.83028347 449.67062956 -272.42816162 449.66907883 C-273.70635179 449.66830745 -274.98454195 449.66753607 -276.30146515 449.66674132 C-285.30681146 449.66242504 -294.31210562 449.66970935 -303.31744385 449.68147659 C-314.29266276 449.69550269 -325.26770288 449.69169914 -336.24290133 449.66507287 C-341.84214652 449.65193638 -347.44109365 449.64677978 -353.04033661 449.66331863 C-358.16757457 449.6782342 -363.29423862 449.67000299 -368.42142463 449.64343087 C-370.27458307 449.63785279 -372.12779014 449.64067122 -373.98091722 449.65280981 C-384.42576297 449.71597053 -393.7427802 449.71545164 -401.88964653 442.27396452 C-409.13471305 434.84817052 -409.43895767 426.16995466 -409.39440918 416.3364563 C-409.40050028 415.07077533 -409.40659139 413.80509435 -409.41286707 412.50105941 C-409.42921459 409.00388536 -409.42695935 405.50693751 -409.4214921 402.00973868 C-409.41881548 398.23184705 -409.43336549 394.45401486 -409.44558716 390.67614746 C-409.46661639 383.28103885 -409.47118346 375.88600869 -409.46939927 368.49087371 C-409.46809044 362.47855452 -409.47190198 356.46625975 -409.47932434 350.45394516 C-409.48142359 348.72055654 -409.48352119 346.98716792 -409.48561716 345.25377929 C-409.48666069 344.39096158 -409.48770422 343.52814387 -409.48877937 342.63918017 C-409.50767146 326.330042 -409.50663464 310.02094883 -409.49981004 293.71180426 C-409.49423473 278.80072132 -409.51506129 263.8898102 -409.54817051 248.97876741 C-409.58192531 233.65774293 -409.59707365 218.33680072 -409.59245348 203.01573837 C-409.59021068 194.41826689 -409.59542431 185.82095422 -409.62034607 177.22351456 C-409.64138229 169.90435543 -409.64492821 162.58544222 -409.62604648 155.26627292 C-409.616903 151.53427268 -409.61570232 147.80273069 -409.63640213 144.07076645 C-409.65862486 140.01932611 -409.64186032 135.96896078 -409.62145996 131.91751099 C-409.63397781 130.74590239 -409.64649566 129.57429379 -409.65939283 128.3671819 C-409.57075541 120.14692941 -407.93266764 113.28450636 -402.24461508 107.0875684 C-395.96669525 101.17612852 -389.50848056 99.54996077 -381.13920593 99.60559082 C-379.83612298 99.59645416 -379.83612298 99.59645416 -378.50671512 99.58713293 C-375.608102 99.57054046 -372.70992998 99.57527341 -369.8112793 99.58007812 C-367.72797185 99.57273558 -365.64466848 99.5641488 -363.56137085 99.55441284 C-357.91043163 99.53220654 -352.25963827 99.52926577 -346.60866141 99.53116035 C-341.88711594 99.53128011 -337.16560132 99.52271384 -332.44406444 99.51438284 C-321.30196276 99.49515151 -310.159936 99.4922638 -299.01782227 99.49902344 C-287.53373763 99.50566253 -276.04997433 99.48280433 -264.56595486 99.44570971 C-254.69735512 99.41499284 -244.82885863 99.4036549 -234.96021205 99.40754652 C-229.07006801 99.40961214 -223.18017397 99.40416354 -217.2900753 99.37965393 C-211.74872076 99.3573571 -206.20788774 99.35928949 -200.66653061 99.37958145 C-198.63728618 99.38298638 -196.60800645 99.37792482 -194.57880974 99.36359787 C-172.99300086 99.22175653 -172.99300086 99.22175653 -165.08819103 106.84329987 C-161.7450162 110.46225155 -159 113.93993701 -159 119 C-158.34 119 -157.68 119 -157 119 C-156.9175 118.29875 -156.835 117.5975 -156.75 116.875 C-155.11953071 110.62486771 -151.11501371 106.7108923 -146 103 C-140.61875374 100.24238121 -136.49145688 99.57434714 -130.49438477 99.65942383 C-129.2639016 99.65876671 -129.2639016 99.65876671 -128.00856018 99.65809631 C-125.31925979 99.66017265 -122.63059663 99.68344856 -119.94140625 99.70703125 C-118.06811361 99.71263132 -116.19481656 99.71689948 -114.32151794 99.71989441 C-109.40760012 99.7313108 -104.49395124 99.76075026 -99.58013916 99.79400635 C-94.55932248 99.82477651 -89.53846206 99.83841456 -84.51757812 99.85351562 C-74.67826771 99.88562313 -64.83915628 99.93678054 -55 100 C-55.59787671 97.44553877 -56.20605947 94.89427777 -56.8203125 92.34375 C-56.98700439 91.62670898 -57.15369629 90.90966797 -57.32543945 90.17089844 C-59.24146199 82.29041046 -63.06198202 76.42385298 -68.0625 70.125 C-76.55138659 59.17880414 -78.07533862 46.35762804 -77 33 C-74.66118702 19.93927932 -67.55049869 8.01807146 -56.65234375 0.34765625 C-39.120548 -10.73503998 -17.69642997 -11.20309425 0 0 Z " fill="#F1FAFE" transform="translate(414,63)"/>
<path d="M0 0 C1.30308295 -0.00913666 1.30308295 -0.00913666 2.63249081 -0.01845789 C5.53110393 -0.03505036 8.42927596 -0.03031741 11.32792664 -0.0255127 C13.41123408 -0.03285525 15.49453745 -0.04144202 17.57783508 -0.05117798 C23.2287743 -0.07338428 28.87956766 -0.07632505 34.53054452 -0.07443047 C39.25208999 -0.07431071 43.97360461 -0.08287698 48.69514149 -0.09120798 C59.83724317 -0.11043931 70.97926994 -0.11332702 82.12138367 -0.10656738 C93.6054683 -0.09992829 105.0892316 -0.12278649 116.57325107 -0.15988111 C126.44185081 -0.19059798 136.3103473 -0.20193592 146.17899388 -0.1980443 C152.06913792 -0.19597869 157.95903196 -0.20142728 163.84913063 -0.22593689 C169.39048517 -0.24823372 174.93131819 -0.24630133 180.47267532 -0.22600937 C182.50191975 -0.22260444 184.53119949 -0.227666 186.56039619 -0.24199295 C207.44980079 -0.37925819 207.44980079 -0.37925819 215.94334888 6.95157623 C223.46210738 14.74411744 223.57852784 24.42870774 223.53793335 34.70106506 C223.5433802 36.03702405 223.55013483 37.37297822 223.55807525 38.70892471 C223.57602814 42.35995412 223.57555246 46.01077937 223.57194579 49.66184247 C223.57132019 53.60653954 223.58795833 57.55116915 223.60246277 61.49583435 C223.62522273 68.32358365 223.63712938 75.15128201 223.64159203 81.97906685 C223.64805999 91.85079283 223.67100875 101.72242685 223.69793532 111.59411573 C223.74117994 127.61159968 223.77115997 143.62907976 223.79277039 159.64660645 C223.81378704 175.20294093 223.84106814 190.75924371 223.87675476 206.31555176 C223.87895359 207.27499982 223.88115241 208.23444789 223.88341787 209.22297014 C223.89448769 214.03640561 223.90568047 218.84984079 223.91693437 223.66327584 C224.01008655 263.57362597 224.08169978 303.48399269 224.13920593 343.39440918 C223.47920593 343.39440918 222.81920593 343.39440918 222.13920593 343.39440918 C221.99225281 342.7885498 221.84529968 342.18269043 221.69389343 341.55847168 C218.9465096 331.29525622 214.2219883 322.32386677 205.13920593 316.39440918 C197.04628073 312.38955545 190.24721268 310.24056821 181.24659729 310.26983643 C180.44577543 310.26842628 179.64495358 310.26701613 178.81986439 310.26556325 C176.13316245 310.26190983 173.44651327 310.26524701 170.7598114 310.26843262 C168.83458413 310.26703781 166.90935718 310.26513847 164.98413086 310.26277161 C160.83553191 310.25827365 156.68694285 310.2564185 152.53834152 310.25630951 C145.97388452 310.25516914 139.40948375 310.24233 132.845047 310.22674561 C131.73699798 310.22417275 130.62894895 310.2215999 129.48732269 310.21894908 C127.22133505 310.21368241 124.95534745 310.20839693 122.6893599 310.20309305 C107.40668274 310.1679925 92.12407519 310.14142971 76.84135437 310.1439209 C66.53311915 310.14551089 56.22507553 310.12944018 45.91690171 310.09321427 C40.46378343 310.07477433 35.01098494 310.06539431 29.55784225 310.07769012 C24.42441015 310.08915256 19.29154981 310.07736262 14.15819359 310.04805565 C12.27893417 310.04143197 10.39962214 310.0432528 8.52038383 310.05435371 C-11.70634639 310.16387791 -11.70634639 310.16387791 -19.9832325 302.40473557 C-27.06488116 295.04894152 -28.30664034 288.24929717 -28.25520325 278.36967468 C-28.26129435 277.26819023 -28.26738545 276.16670578 -28.27366114 275.03184301 C-28.29029344 271.34554569 -28.28551481 267.65959371 -28.28071594 263.9732666 C-28.28805616 261.32838253 -28.29654967 258.68352421 -28.30638123 256.03865051 C-28.32741078 249.60259882 -28.33197748 243.16663725 -28.33019334 236.73055526 C-28.32888438 231.49719635 -28.33269671 226.26386549 -28.34011841 221.03051186 C-28.34221767 219.52153963 -28.34431527 218.0125674 -28.34641123 216.50359517 C-28.34745476 215.75247027 -28.34849828 215.00134537 -28.34957343 214.22745911 C-28.36846608 200.02905188 -28.36742871 185.83069635 -28.36060411 171.63228176 C-28.3550303 158.65461609 -28.3758488 145.67714794 -28.40896457 132.69952842 C-28.4427315 119.36283517 -28.45786611 106.02623646 -28.45324755 92.68949968 C-28.45100576 85.20647744 -28.45620315 77.72363772 -28.48114014 70.24065208 C-28.50219224 63.8693401 -28.50570686 57.49831068 -28.48684055 51.12698694 C-28.47770608 47.87897881 -28.47919869 44.63160407 -28.4971962 41.3836174 C-28.51539535 37.85529822 -28.50263213 34.32837217 -28.48225403 30.8000946 C-28.49477188 29.78344182 -28.50728972 28.76678903 -28.5201869 27.71932858 C-28.42439035 19.96079868 -26.43792365 13.30360342 -21.10540915 7.47607201 C-14.81547973 1.57625846 -8.37363676 -0.05565905 0 0 Z " fill="#F1FAFE" transform="translate(32.86079406738281,162.6055908203125)"/>
<path d="M0 0 C3.11648508 3.05155831 5.58505686 6.37758529 8 10 C8.4021875 9.22076172 8.4021875 9.22076172 8.8125 8.42578125 C11.86908174 2.9862723 15.03028253 -0.80330669 21 -3 C30.29802676 -4.46736689 39.88671278 -2.21523353 47.8125 2.75 C55.16287152 8.12192928 58.60877059 13.62458198 61.82421875 22.1328125 C63.84682378 27.06501215 65.35552105 30.09512945 70.3125 32.3125 C76.10638666 35.3038063 79.22811061 39.52251641 82.1484375 45.25390625 C83.05347763 48.1724531 83.1646404 50.78097747 83.17480469 53.82373047 C83.05070855 60.26453944 83.05070855 60.26453944 85.44140625 66.02734375 C87.23285568 67.39759534 87.23285568 67.39759534 89.1484375 68.578125 C93.64751751 72.03311471 95.81549875 78.58450575 97 84 C98.06805453 99.12060061 96.10008142 111.10618828 86 123 C85.48695313 123.73089844 84.97390625 124.46179688 84.4453125 125.21484375 C83.96835938 125.80394531 83.49140625 126.39304687 83 127 C82.34 127 81.68 127 81 127 C80.85304687 127.58265625 80.70609375 128.1653125 80.5546875 128.765625 C77.29346021 140.68597304 72.4030472 151.91394512 61.4765625 158.52734375 C53.23771095 162.7952173 45.78130147 164.3550749 36.55859375 165.14453125 C32.23875032 166.18300075 30.66290701 167.47921048 28 171 C27.16868793 173.73351344 27.16868793 173.73351344 27 176.5625 C26.45350372 180.24886583 26.23286587 181.70549316 23.875 184.6875 C20.16494185 186.3812222 16.95720961 186.93337692 13 186 C10.6205034 184.54614267 8.99450781 182.99450781 7 181 C6.34 181.825 5.68 182.65 5 183.5 C1.63288 186.30593333 0.1706351 186.79291706 -4.0703125 186.46484375 C-7.71468281 185.58694888 -8.94240167 184.08639749 -11 181 C-11.74955083 178.17888837 -12.24455125 175.41477588 -12.640625 172.5234375 C-12.93997065 169.8812349 -12.93997065 169.8812349 -14 167 C-15.23234375 166.84144531 -16.4646875 166.68289063 -17.734375 166.51953125 C-33.16236491 164.40251503 -46.67089151 160.89981331 -57.1875 148.5625 C-60.34361566 144.13876411 -61.80293608 139.08706733 -63.53759766 133.99755859 C-65.60534342 128.29164408 -68.58259565 124.66740435 -72.8828125 120.3671875 C-76.4060938 116.42787298 -78.18074497 111.90740223 -80 107 C-80.433125 105.906875 -80.86625 104.81375 -81.3125 103.6875 C-83.71698638 90.7907094 -81.90667499 79.76660633 -74.6953125 68.91015625 C-73 67 -73 67 -70.30078125 65.6796875 C-69.54152344 65.12539063 -68.78226563 64.57109375 -68 64 C-67.61998051 60.74200365 -67.61998051 60.74200365 -68.0625 57.0625 C-68.43308525 49.24608934 -66.82048804 43.37168378 -62 37 C-58.63916902 34.02226892 -55.1040114 31.7619306 -50.875 30.23046875 C-48.04351727 28.37230821 -47.67010513 26.10616981 -46.625 22.9375 C-42.85812475 12.56428124 -38.02738492 5.22930404 -28.109375 0.00390625 C-19.40663076 -3.95016667 -8.3827012 -5.09536739 0 0 Z " fill="#FD93BB" transform="translate(121,232)"/>
<path d="M0 0 C0.33 0 0.66 0 1 0 C1.07450314 5.83493296 1.12876864 11.66958518 1.16479492 17.50488281 C1.17982344 19.4873538 1.20025198 21.46979186 1.22631836 23.45214844 C1.26296383 26.31193193 1.27978604 29.17127344 1.29296875 32.03125 C1.30845261 32.90865845 1.32393646 33.78606689 1.33988953 34.69006348 C1.34201668 42.57811645 -0.45923451 49.48187895 -6.11035347 55.27396452 C-14.96922457 63.36580898 -25.49437134 62.70864947 -36.75048828 62.63491821 C-38.6659068 62.6406837 -40.58131979 62.64862769 -42.49672127 62.65855443 C-47.74530323 62.67939209 -52.99342956 62.66912643 -58.24201298 62.65362334 C-63.90809755 62.64230124 -69.57410428 62.65977684 -75.24017334 62.67352295 C-86.33413441 62.69575061 -97.42792629 62.69095619 -108.52189398 62.67645974 C-117.53855623 62.66516569 -126.55517108 62.66363734 -135.57183838 62.66907883 C-136.85536387 62.66984499 -138.13888935 62.67061116 -139.46130955 62.67140054 C-142.06880491 62.67299917 -144.67630026 62.67462024 -147.2837956 62.6762635 C-171.03476009 62.69011327 -194.78562214 62.67575298 -218.53657034 62.64955051 C-240.20867442 62.62582325 -261.88063158 62.62794642 -283.55273438 62.65185547 C-307.91336 62.67864085 -332.27388566 62.68914634 -356.63452721 62.67379415 C-359.23240533 62.67220141 -361.83028347 62.67062956 -364.42816162 62.66907883 C-365.70635179 62.66830745 -366.98454195 62.66753607 -368.30146515 62.66674132 C-377.30681146 62.66242504 -386.31210562 62.66970935 -395.31744385 62.68147659 C-406.29266276 62.69550269 -417.26770288 62.69169914 -428.24290133 62.66507287 C-433.84214652 62.65193638 -439.44109365 62.64677978 -445.04033661 62.66331863 C-450.16757457 62.6782342 -455.29423862 62.67000299 -460.42142463 62.64343087 C-462.27458307 62.63785279 -464.12779014 62.64067122 -465.98091722 62.65280981 C-476.42576297 62.71597053 -485.7427802 62.71545164 -493.88964653 55.27396452 C-499.43218146 49.5931716 -501.34208577 42.7511579 -501.33988953 34.99499512 C-501.32440567 34.16133423 -501.30892181 33.32767334 -501.29296875 32.46875 C-501.28872391 31.59222778 -501.28447906 30.71570557 -501.28010559 29.81262207 C-501.2634513 27.04142177 -501.22582509 24.27097664 -501.1875 21.5 C-501.17243599 19.60938558 -501.1587506 17.71875964 -501.14648438 15.828125 C-501.11359139 11.21846361 -501.06190255 6.60935938 -501 2 C-499.00853316 3.99146684 -498.39651519 5.21899622 -497.3125 7.75 C-494.19527216 14.11145385 -489.4669677 17.63726749 -482.99204004 20.35388386 C-479.62759552 21.44513798 -476.25615827 21.40770324 -472.76008606 21.37181091 C-471.95811206 21.37563548 -471.15613806 21.37946004 -470.32986182 21.3834005 C-467.65698375 21.39264622 -464.98462906 21.38071884 -462.31176758 21.36889648 C-460.38934108 21.37136582 -458.46691593 21.37520558 -456.54449463 21.38031006 C-452.41064274 21.38863758 -448.27692865 21.38784917 -444.14307594 21.38012505 C-437.59879333 21.36852206 -431.05468717 21.3807224 -424.51042175 21.39674377 C-408.25284893 21.43290726 -391.99528029 21.43917168 -375.7376709 21.43664551 C-363.10633955 21.43493209 -350.47515278 21.44212451 -337.84386176 21.47662407 C-331.3466024 21.49337035 -324.84969626 21.49166391 -318.35243857 21.47580135 C-314.29833495 21.4699811 -310.24439673 21.4807866 -306.19032288 21.49604797 C-304.31995407 21.49975646 -302.44955688 21.49671786 -300.5792141 21.48617744 C-285.47055329 21.40675236 -272.65334874 23.12671985 -261.06640625 33.77734375 C-255.9785378 39.12781187 -251.21487914 46.27917031 -250.87109375 53.83203125 C-250.91363281 54.54746094 -250.95617187 55.26289063 -251 56 C-250.34 56 -249.68 56 -249 56 C-248.9175 54.845 -248.835 53.69 -248.75 52.5 C-247.49872599 43.11544493 -241.85314288 36.26632942 -235 30 C-222.67068988 21.26524093 -209.59600028 21.7128436 -195.12304688 21.76049805 C-193.21663844 21.75938377 -191.31023036 21.75732379 -189.40382385 21.75439453 C-185.31424541 21.74968935 -181.22472448 21.75077455 -177.13514709 21.75617027 C-170.66260674 21.76380661 -164.19017615 21.75309521 -157.71765137 21.7389679 C-139.31778512 21.70130207 -120.91796952 21.6830429 -102.51806641 21.69458008 C-92.34383957 21.70080219 -82.16979089 21.68919015 -71.99560785 21.65813476 C-65.56714925 21.63951694 -59.13919676 21.64276354 -52.71074677 21.66230237 C-48.70586467 21.66920111 -44.70125499 21.6551941 -40.69642448 21.63535309 C-38.84617863 21.63032135 -36.99588643 21.63375037 -35.14567757 21.64648628 C-20.00852987 21.74656054 -20.00852987 21.74656054 -7.115242 14.31910229 C-3.0657892 10.2269829 -1.41937465 5.49073877 0 0 Z " fill="#6C7FD8" transform="translate(506,450)"/>
<path d="M0 0 C4.73689991 4.34215825 7.67271653 8.74404939 8.17955399 15.33489609 C8.24603407 18.21264472 8.24722968 21.0839414 8.22705078 23.96240234 C8.22734283 25.05567841 8.22763489 26.14895447 8.22793579 27.27536011 C8.22654556 30.87896742 8.21099852 34.48236643 8.1953125 38.0859375 C8.19158129 40.58842862 8.18873483 43.0909212 8.18673706 45.59341431 C8.17988827 51.50063139 8.16413491 57.40778195 8.14403808 63.31496489 C8.11944978 70.70345292 8.10873951 78.09195026 8.09765625 85.48046875 C8.07622121 98.65368359 8.04248102 111.82683708 8 125 C7.26031982 124.51716553 6.52063965 124.03433105 5.75854492 123.53686523 C4.29058472 122.58855835 4.29058472 122.58855835 2.79296875 121.62109375 C1.82641357 120.99388428 0.8598584 120.3666748 -0.13598633 119.72045898 C-6.40870552 115.95233588 -12.69774218 114.02636562 -20 115 C-23.19003883 116.93921761 -23.19003883 116.93921761 -25 120 C-24.9263784 123.75470151 -24.67158839 125.32841161 -22 128 C-19.83992855 128.53523228 -19.83992855 128.53523228 -17.375 128.875 C-11.04484202 130.10459903 -6.01417357 131.16756842 -2.125 136.63671875 C-0.9486511 138.57617329 0.18359705 140.5433335 1.26171875 142.5390625 C3.29484451 145.41742032 4.75219689 145.85075185 8 147 C8.09932276 151.44736742 8.17168003 155.89413713 8.21972656 160.34228516 C8.23976791 161.85346736 8.26700905 163.36457272 8.30175781 164.87548828 C8.35061109 167.05520643 8.37304224 169.23389431 8.390625 171.4140625 C8.4220459 173.37786865 8.4220459 173.37786865 8.45410156 175.38134766 C7.92523161 179.59581564 6.65540017 181.72796925 4 185 C0.76216806 186.61891597 -2.49986018 186.55760385 -6 186 C-9.36839295 183.87644792 -10.68673116 182.1790613 -11.7109375 178.32421875 C-12.06303951 176.39786354 -12.37485094 174.4635881 -12.640625 172.5234375 C-12.93997065 169.8812349 -12.93997065 169.8812349 -14 167 C-15.23234375 166.84144531 -16.4646875 166.68289063 -17.734375 166.51953125 C-33.16236491 164.40251503 -46.67089151 160.89981331 -57.1875 148.5625 C-60.34361566 144.13876411 -61.80293608 139.08706733 -63.53759766 133.99755859 C-65.60534342 128.29164408 -68.58259565 124.66740435 -72.8828125 120.3671875 C-76.4060938 116.42787298 -78.18074497 111.90740223 -80 107 C-80.433125 105.906875 -80.86625 104.81375 -81.3125 103.6875 C-83.71698638 90.7907094 -81.90667499 79.76660633 -74.6953125 68.91015625 C-73 67 -73 67 -70.30078125 65.6796875 C-69.54152344 65.12539063 -68.78226563 64.57109375 -68 64 C-67.61998051 60.74200365 -67.61998051 60.74200365 -68.0625 57.0625 C-68.43308525 49.24608934 -66.82048804 43.37168378 -62 37 C-58.63916902 34.02226892 -55.1040114 31.7619306 -50.875 30.23046875 C-48.04351727 28.37230821 -47.67010513 26.10616981 -46.625 22.9375 C-42.85812475 12.56428124 -38.02738492 5.22930404 -28.109375 0.00390625 C-19.40663076 -3.95016667 -8.3827012 -5.09536739 0 0 Z " fill="#FDA3C6" transform="translate(121,232)"/>
<path d="M0 0 C10.9508949 8.33890367 17.86842017 18.35621726 20.58984375 31.9453125 C22.76156808 48.11948796 18.61773703 61.62552895 8.9375 74.5625 C-0.60351534 87.37369386 -1.3171047 100.54593381 -1.390625 116.12304688 C-1.52360675 122.19218607 -1.65054363 126.36688343 -6 131 C-10.4296336 134.46673906 -13.2941896 135.50489416 -18.90234375 135.49609375 C-20.85624023 135.49706055 -20.85624023 135.49706055 -22.84960938 135.49804688 C-23.52145264 135.48765381 -24.1932959 135.47726074 -24.88549805 135.46655273 C-26.92905206 135.43761961 -28.97000114 135.44595484 -31.01367188 135.45898438 C-38.9941514 135.40770102 -45.01953064 135.33498784 -51.3125 130.0625 C-54.72536474 125.89122087 -55.24571799 122.8598206 -55.2734375 117.46875 C-55.2940625 116.18226563 -55.3146875 114.89578125 -55.3359375 113.5703125 C-55.36561345 110.88786452 -55.38008403 108.20611482 -55.390625 105.5234375 C-55.61874915 92.77383232 -58.45160355 83.23891399 -66 73 C-75.10360771 60.2910031 -78.25007897 48.52821559 -77 33 C-74.66118702 19.93927932 -67.55049869 8.01807146 -56.65234375 0.34765625 C-39.120548 -10.73503998 -17.69642997 -11.20309425 0 0 Z " fill="#FCEAA3" transform="translate(414,63)"/>
<path d="M0 0 C4.51651109 -0.12483978 9.03207334 -0.2149125 13.54980469 -0.2746582 C15.0822095 -0.29959759 16.61449792 -0.33356266 18.14648438 -0.37719727 C28.27338929 -0.65813294 36.7580344 -0.35157373 44.81762695 6.55834961 C52.30857657 14.38122676 52.43937776 24.02016605 52.39872742 34.30665588 C52.40417427 35.64261487 52.4109289 36.97856904 52.41886932 38.31451553 C52.43682221 41.96554494 52.43634652 45.61637019 52.43273985 49.26743329 C52.43211425 53.21213036 52.4487524 57.15675997 52.46325684 61.10142517 C52.4860168 67.92917447 52.49792345 74.75687283 52.50238609 81.58465767 C52.50885406 91.45638365 52.53180282 101.32801767 52.55872939 111.19970655 C52.60197401 127.2171905 52.63195404 143.23467058 52.65356445 159.25219727 C52.67458111 174.80853175 52.70186221 190.36483453 52.73754883 205.92114258 C52.73974765 206.88059064 52.74194648 207.84003871 52.74421193 208.82856096 C52.75528176 213.64199643 52.76647453 218.45543161 52.77772844 223.26886666 C52.87088062 263.17921679 52.94249385 303.08958351 53 343 C52.34 343 51.68 343 51 343 C50.85304687 342.39414062 50.70609375 341.78828125 50.5546875 341.1640625 C47.80955864 330.90927079 43.08572613 321.91628678 34 316 C30.95360528 314.52770641 27.89720604 313.24336965 24.734375 312.04296875 C22.39581431 311.15097489 20.21219647 310.16403671 18 309 C18.66 309 19.32 309 20 309 C20.06867208 272.44668957 20.12153181 235.89339045 20.15319599 199.34002879 C20.15694809 195.0242118 20.16083106 190.70839493 20.16479492 186.39257812 C20.16597532 185.10378027 20.16597532 185.10378027 20.16717956 183.78894609 C20.18023217 169.87836592 20.20388523 155.96782296 20.23145839 142.05726486 C20.2595166 127.78291191 20.27617714 113.50857844 20.28226548 99.23419905 C20.28638106 90.42670177 20.29937813 81.61930967 20.3237494 72.81184477 C20.33961171 66.77158855 20.34439923 60.73138668 20.34050413 54.69111115 C20.33858335 51.20658943 20.34152028 47.72225146 20.35761642 44.23776245 C20.3725319 40.45690478 20.36895648 36.67649788 20.36076355 32.89562988 C20.36950207 31.79833951 20.3782406 30.70104913 20.38724393 29.57050753 C20.33623401 20.86712496 18.74126654 14.11057128 12.75 7.53515625 C10.33170345 5.41374879 7.76804002 4.10401744 4.83203125 2.82421875 C3 2 3 2 0 0 Z " fill="#DEF5FC" transform="translate(204,163)"/>
<path d="M0 0 C4.65892053 -0.12478566 9.31684181 -0.21488741 13.97705078 -0.2746582 C15.55795259 -0.29960626 17.13874142 -0.33357805 18.71923828 -0.37719727 C29.05829162 -0.65512881 37.79834128 -0.65567613 45.89404297 6.72729492 C52.66956213 13.68608105 53.44230185 21.7836981 53.38095093 31.03782654 C53.38797089 32.67401722 53.38797089 32.67401722 53.39513266 34.34326226 C53.40706983 37.98734845 53.39763007 41.6310577 53.38818359 45.27514648 C53.39224987 47.89223449 53.39759206 50.50932077 53.40411377 53.12640381 C53.41743245 59.49047501 53.41458159 65.85443989 53.40587585 72.21851521 C53.39909175 77.39274135 53.39818572 82.56693776 53.4014473 87.74116707 C53.401907 88.47850609 53.40236669 89.21584512 53.40284032 89.97552775 C53.40379953 91.47358291 53.40477217 92.97163805 53.4057581 94.46969319 C53.41430668 108.50736964 53.40448653 122.54498726 53.388357 136.58265407 C53.37495708 148.61706252 53.37728023 160.65138413 53.39111328 172.68579102 C53.40718331 186.67279761 53.41347982 200.65975266 53.40427649 214.6467672 C53.40332088 216.13951718 53.40237777 217.63226717 53.4014473 219.12501717 C53.40098447 219.8594083 53.40052164 220.59379943 53.40004479 221.35044483 C53.39745896 226.51552258 53.40181717 231.68056752 53.40888596 236.84564018 C53.41819935 243.80355179 53.41152771 250.76129699 53.39420319 257.7191925 C53.3902399 260.27131949 53.39136966 262.82346027 53.39799118 265.37558174 C53.40620272 268.86230321 53.39588895 272.34850157 53.38095093 275.83518982 C53.39098918 277.34600582 53.39098918 277.34600582 53.40123022 278.88734335 C53.33323384 287.08396396 52.01995198 294.55194626 46.375 300.8125 C45.45847656 301.87404297 45.45847656 301.87404297 44.5234375 302.95703125 C35.48038169 310.27826684 26.00370504 309.48571139 14.9375 309.25 C13.29233946 309.22990347 11.64715521 309.21165827 10.00195312 309.1953125 C6.00070931 309.15156759 2.00062015 309.0827166 -2 309 C-2 308.67 -2 308.34 -2 308 C-1.1646875 307.88785156 -1.1646875 307.88785156 -0.3125 307.7734375 C6.89799084 306.53108942 12.26771344 303.85096469 16.57421875 297.78125 C19.7291818 292.35724476 21.121517 287.60086395 21.13142776 281.3025322 C21.13526891 280.38199421 21.13911005 279.46145622 21.1430676 278.51302314 C21.14220112 277.51040702 21.14133463 276.5077909 21.14044189 275.47479248 C21.14341302 274.40289618 21.14638414 273.33099988 21.1494453 272.22662187 C21.15812896 268.62861243 21.15964027 265.03063628 21.16113281 261.43261719 C21.1657612 258.85538156 21.17078588 256.27814662 21.17617798 253.70091248 C21.18974608 246.69463109 21.19578358 239.68835544 21.20018864 232.6820631 C21.20295351 228.3054384 21.2071913 223.9288159 21.21169281 219.55219269 C21.22388325 207.4290722 21.23418316 195.30595348 21.2375679 183.182827 C21.23778747 182.4072849 21.23800703 181.6317428 21.23823325 180.83269943 C21.23845153 180.05532775 21.23866981 179.27795606 21.2388947 178.47702765 C21.23933816 176.90184005 21.23978473 175.32665245 21.24023438 173.75146484 C21.2404558 172.97012146 21.24067723 172.18877808 21.24090537 171.38375762 C21.24485274 158.72543691 21.26230589 146.06717379 21.2855939 133.40887532 C21.30932301 120.40561858 21.32177045 107.40239072 21.32293582 94.39911199 C21.32385168 87.10113337 21.32958152 79.80322982 21.34775543 72.50527191 C21.3647915 65.64016537 21.36639739 58.77520336 21.35761642 51.91008186 C21.35684542 49.39181449 21.36119703 46.87353949 21.37107468 44.35529137 C21.38377874 40.91440525 21.37792521 37.47402479 21.36749268 34.03314209 C21.37554908 33.03944886 21.38360548 32.04575563 21.39190602 31.02195048 C21.32384692 21.40701724 18.99635362 12.90244283 12 6 C9.43882098 4.33696083 6.81919907 3.1527899 4 2 C2.66390939 1.33887664 1.33020844 0.67288018 0 0 Z " fill="#DEF5FC" transform="translate(454,163)"/>
<path d="M0 0 C10.9508949 8.33890367 17.86842017 18.35621726 20.58984375 31.9453125 C22.76156808 48.11948796 18.61773703 61.62552895 8.9375 74.5625 C2.68174311 82.96241461 0.94630787 89.29530673 -1 100 C-10.57 100 -20.14 100 -30 100 C-28.75055289 87.50552887 -25.79309865 80.75120291 -18.65258789 71.12011719 C-15.36967007 66.65471208 -12.83169667 62.25617304 -11 57 C-10.47019531 55.69095703 -10.47019531 55.69095703 -9.9296875 54.35546875 C-6.91915943 43.48973928 -7.7571193 29.96147333 -13 20 C-13.4125 19.154375 -13.825 18.30875 -14.25 17.4375 C-20.52817083 5.73727254 -30.00251478 -0.20476688 -42 -5 C-32.45466949 -14.54533051 -9.66825995 -6.1206937 0 0 Z " fill="#FEE177" transform="translate(414,63)"/>
<path d="M0 0 C0.71128241 -0.00694553 1.42256481 -0.01389106 2.15540123 -0.02104706 C4.53312122 -0.03930884 6.90984252 -0.02905579 9.28759766 -0.01878357 C10.99449408 -0.02584245 12.70138424 -0.03458734 14.40826416 -0.04489136 C19.04049001 -0.06739735 23.67237438 -0.06444303 28.30463409 -0.05556989 C32.17160806 -0.05046113 36.0385178 -0.05775155 39.90548515 -0.06504196 C49.02705369 -0.08204443 58.14845494 -0.07847116 67.27001953 -0.06175232 C76.68200466 -0.04482435 86.09352623 -0.060674 95.50546074 -0.0929752 C103.58628714 -0.11965799 111.66696912 -0.12695084 119.74783516 -0.11846012 C124.57424331 -0.11352783 129.40037241 -0.11576301 134.22674561 -0.13624763 C138.76431086 -0.15458461 143.30120827 -0.14867063 147.83873749 -0.12404823 C149.50402238 -0.11903428 151.16935798 -0.12254529 152.83460236 -0.13519669 C155.10827832 -0.15110423 157.37974876 -0.13620217 159.65332031 -0.11352539 C161.56136948 -0.11264593 161.56136948 -0.11264593 163.50796509 -0.1117487 C167.72027984 0.68333675 169.20796728 2.18656478 171.82666016 5.5146637 C172.38916016 8.5771637 172.38916016 8.5771637 171.82666016 11.5146637 C169.56946243 14.57704362 168.38031097 15.42933908 164.57857418 16.01523495 C162.63206132 16.01554887 162.63206132 16.01554887 160.64622498 16.01586914 C159.56009032 16.02417074 159.56009032 16.02417074 158.45201355 16.03264004 C156.02503323 16.04625653 153.59907955 16.03127289 151.17211914 16.01637268 C149.43257205 16.02015548 147.69302797 16.0256552 145.95349121 16.03274536 C141.22834293 16.04672136 136.5035579 16.03551566 131.77842975 16.01903415 C126.83772151 16.00519881 121.89703469 16.01164191 116.95631409 16.01516724 C108.65986262 16.01787031 100.36355574 16.00438455 92.06713867 15.98121643 C82.46834929 15.95459733 72.86980158 15.95286201 63.27098793 15.96460479 C54.04454476 15.97537423 44.81818921 15.96920264 35.59175301 15.95504951 C31.6615702 15.94928334 27.73145139 15.94937732 23.80126762 15.95411491 C19.17602812 15.95887823 14.55105414 15.94880994 9.92586517 15.92716026 C8.22588306 15.92158371 6.52587547 15.92113502 4.82589149 15.92611313 C2.51033439 15.93204476 0.19559499 15.91960272 -2.11988831 15.90234375 C-3.41718652 15.89991385 -4.71448473 15.89748396 -6.05109501 15.89498043 C-9.17333984 15.5146637 -9.17333984 15.5146637 -11.08293056 14.23652744 C-12.62247042 11.80544224 -12.63660271 9.37160424 -12.76708984 6.54981995 C-11.01542201 0.54574797 -5.40753083 0.01193248 0 0 Z " fill="#8F9EAA" transform="translate(302.17333984375,325.48533630371094)"/>
<path d="M0 0 C0.71930065 -0.00538554 1.4386013 -0.01077108 2.17969894 -0.01631981 C4.59035084 -0.03062934 7.00045595 -0.02348855 9.41113281 -0.01637268 C11.13920535 -0.02207465 12.86727411 -0.02903824 14.59533691 -0.03717041 C19.28948797 -0.0551349 23.98345244 -0.05392741 28.67762756 -0.04822803 C32.59434231 -0.0451413 36.51102095 -0.05122278 40.42773056 -0.05726677 C49.66571802 -0.07132084 58.90361301 -0.06974303 68.14160156 -0.05836487 C77.67792052 -0.04687896 87.21395841 -0.06096525 96.75024033 -0.08776134 C104.93377542 -0.10989695 113.11722215 -0.11656067 121.30078506 -0.11068493 C126.19029724 -0.10730947 131.07962916 -0.10976954 135.96911621 -0.12693596 C140.56567106 -0.14236928 145.16180842 -0.13848994 149.75834656 -0.11963081 C151.44662901 -0.11593506 153.13494216 -0.11908202 154.82319641 -0.1295166 C157.12545488 -0.14266141 159.42631789 -0.13123881 161.72851562 -0.11352539 C163.66201874 -0.11321146 163.66201874 -0.11321146 165.63458252 -0.1128912 C169.42374928 0.47439631 170.61158743 1.33681444 172.86425781 4.38768005 C173.42675781 7.32518005 173.42675781 7.32518005 172.86425781 10.38768005 C170.23968544 13.72772203 168.75301669 15.22084999 164.52715206 16.01409245 C163.24644612 16.01467875 161.96574018 16.01526506 160.64622498 16.01586914 C159.93015345 16.02296353 159.21408193 16.03005792 158.47631127 16.03736728 C156.08220926 16.05493853 153.68973275 16.03684898 151.2956543 16.01878357 C149.57728334 16.02392272 147.85891765 16.03120397 146.14056396 16.04046631 C141.47731866 16.05898777 136.81464477 16.04603769 132.15142322 16.02637601 C127.27257793 16.00999697 122.39376904 16.01880124 117.51490784 16.02389526 C109.32275253 16.02841662 101.13082553 16.01254268 92.9387207 15.98460388 C83.46427555 15.9525411 73.99024193 15.95257171 64.51576751 15.96981865 C55.40410091 15.98567486 46.29258535 15.97895671 37.18092537 15.96188164 C33.30178882 15.95500477 29.42277311 15.95605007 25.54363823 15.96342659 C20.97740049 15.97108027 16.41163193 15.95899352 11.84547424 15.93157768 C10.16849218 15.9246835 8.49146639 15.92460694 6.81448555 15.93179321 C4.52756686 15.94046497 2.24210379 15.92457294 -0.04469299 15.90234375 C-1.96518636 15.89813337 -1.96518636 15.89813337 -3.92447758 15.89383793 C-7.68455289 15.30117679 -8.8639222 14.38107329 -11.13574219 11.38768005 C-11.90819186 8.42851624 -11.53354361 6.52036627 -11.13574219 3.38768005 C-7.8557452 -0.17494445 -4.6587408 0.00878218 0 0 Z " fill="#8E9DA9" transform="translate(301.1357421875,358.61231994628906)"/>
<path d="M0 0 C1.0717673 -0.00935994 1.0717673 -0.00935994 2.16518646 -0.01890898 C4.55984641 -0.03486624 6.95349227 -0.02222482 9.34815979 -0.00964355 C11.06475926 -0.01506354 12.78135408 -0.0221855 14.49794006 -0.03088379 C19.1612291 -0.04913625 23.82416459 -0.04204136 28.4874599 -0.02936745 C33.36584608 -0.01924809 38.24420176 -0.02863031 43.12258911 -0.03491211 C51.31648702 -0.04219231 59.51024079 -0.03259176 67.70411682 -0.0135498 C77.17794334 0.00821239 86.65142545 0.00117382 96.1252436 -0.02085543 C104.2569999 -0.03900747 112.38865251 -0.04156849 120.52042252 -0.03110075 C125.37809746 -0.02486381 130.23561053 -0.02403556 135.09327507 -0.0372467 C139.6611251 -0.04880147 144.22853124 -0.04078637 148.79633331 -0.01766968 C150.47290116 -0.01238027 152.14950635 -0.01390036 153.82605934 -0.02272034 C156.11484991 -0.03365099 158.40221806 -0.0199441 160.69091797 0 C161.97162391 0.0015081 163.25232985 0.0030162 164.57184505 0.00457001 C168.49596729 0.59647935 170.1663467 1.68137845 172.90895081 4.50793457 C173.53395081 7.44543457 173.53395081 7.44543457 172.90895081 10.50793457 C170.28140994 13.84549842 168.7979134 15.34106626 164.57184505 16.13434696 C163.29113912 16.13493327 162.01043318 16.13551958 160.69091797 16.13612366 C159.97484644 16.14321804 159.25877492 16.15031243 158.52100426 16.1576218 C156.12690226 16.17519305 153.73442574 16.1571035 151.34034729 16.13903809 C149.62197633 16.14417724 147.90361064 16.15145849 146.18525696 16.16072083 C141.52201165 16.17924229 136.85933776 16.1662922 132.19611621 16.14663053 C127.31727092 16.13025148 122.43846203 16.13905576 117.55960083 16.14414978 C109.36744553 16.14867114 101.17551852 16.1327972 92.9834137 16.1048584 C83.50896854 16.07279562 74.03493492 16.07282623 64.56046051 16.09007317 C55.44879391 16.10592938 46.33727834 16.09921123 37.22561836 16.08213615 C33.34648181 16.07525929 29.4674661 16.07630458 25.58833122 16.08368111 C21.02209349 16.09133478 16.45632492 16.07924803 11.89016724 16.0518322 C10.21318517 16.04493801 8.53615938 16.04486146 6.85917854 16.05204773 C4.57225986 16.06071948 2.28679678 16.04482746 0 16.02259827 C-1.92049337 16.01838789 -1.92049337 16.01838789 -3.87978458 16.01409245 C-7.09104919 15.50793457 -7.09104919 15.50793457 -9.50298977 13.69451809 C-11.82346424 10.49947944 -11.64065808 8.35519679 -11.09104919 4.50793457 C-7.90936118 0.1262568 -5.24437402 0.00617736 0 0 Z " fill="#8D9CA8" transform="translate(301.09104919433594,293.4920654296875)"/>
<path d="M0 0 C0.72252978 -0.00538554 1.44505956 -0.01077108 2.18948418 -0.01631981 C4.61705968 -0.03065803 7.04409438 -0.02348148 9.47169495 -0.01637268 C11.20947205 -0.02207321 12.9472454 -0.02903623 14.68501282 -0.03717041 C19.4102134 -0.05515231 24.1352288 -0.05392399 28.86045337 -0.04822803 C32.80197115 -0.04514335 36.74345299 -0.05122059 40.68496567 -0.05726677 C49.98190698 -0.07132698 59.27875644 -0.06973835 68.57569885 -0.05836487 C78.17391236 -0.04688245 87.7718465 -0.060958 97.37002319 -0.08776134 C105.60449299 -0.10989738 113.83887497 -0.11656045 122.07337242 -0.11068493 C126.99419819 -0.10730908 131.91484486 -0.10977193 136.83564568 -0.12693596 C141.46255502 -0.14236964 146.08904963 -0.13848952 150.71594238 -0.11963081 C152.4155119 -0.11593495 154.11511189 -0.11908234 155.8146534 -0.1295166 C158.13228892 -0.14266082 160.44853811 -0.13123919 162.76611328 -0.11352539 C164.06378852 -0.11331611 165.36146376 -0.11310682 166.69846249 -0.1128912 C170.50019928 0.47300467 171.68935074 1.32530013 173.94654846 4.38768005 C174.50904846 7.32518005 174.50904846 7.32518005 173.94654846 10.38768005 C171.32785558 13.71577897 169.84016815 15.219007 165.62785339 16.01409245 C164.35582062 16.01467875 163.08378784 16.01526506 161.77320862 16.01586914 C161.06192621 16.02296353 160.35064381 16.03005792 159.61780739 16.03736728 C157.23985509 16.05493761 154.86353953 16.03684945 152.48561096 16.01878357 C150.77871456 16.02392281 149.07182346 16.03120412 147.36494446 16.04046631 C142.73262144 16.05898811 138.10087364 16.04603692 133.46857452 16.02637601 C128.62089362 16.0099946 123.77324929 16.0188017 118.92555237 16.02389526 C110.7846711 16.02841679 102.64401956 16.01254273 94.50318909 15.98460388 C85.09124705 15.95255171 75.67971934 15.95256752 66.26774788 15.96981865 C57.21374949 15.98568239 48.159903 15.97895116 39.10591125 15.96188164 C35.25272071 15.95500901 31.39965185 15.95604577 27.54646301 15.96342659 C23.00894841 15.97108771 18.47190533 15.95896907 13.93447113 15.93157768 C12.26919708 15.92469093 10.60387901 15.92459901 8.93860626 15.93179321 C6.66517407 15.94048302 4.39319869 15.92454216 2.11988831 15.90234375 C0.21183914 15.89813337 0.21183914 15.89813337 -1.73475647 15.89383793 C-5.62835786 15.29999699 -7.29808868 14.15129426 -10.05345154 11.38768005 C-10.91262609 8.44274623 -10.45201363 6.52635656 -10.05345154 3.38768005 C-7.57858426 -0.52037935 -4.31108518 0.00807485 0 0 Z " fill="#8E9DA9" transform="translate(300.05345153808594,261.61231994628906)"/>
<path d="M0 0 C1.0717673 -0.00935994 1.0717673 -0.00935994 2.16518646 -0.01890898 C4.55984641 -0.03486624 6.95349227 -0.02222482 9.34815979 -0.00964355 C11.06475926 -0.01506354 12.78135408 -0.0221855 14.49794006 -0.03088379 C19.1612291 -0.04913625 23.82416459 -0.04204136 28.4874599 -0.02936745 C33.36584608 -0.01924809 38.24420176 -0.02863031 43.12258911 -0.03491211 C51.31648702 -0.04219231 59.51024079 -0.03259176 67.70411682 -0.0135498 C77.17794334 0.00821239 86.65142545 0.00117382 96.1252436 -0.02085543 C104.2569999 -0.03900747 112.38865251 -0.04156849 120.52042252 -0.03110075 C125.37809746 -0.02486381 130.23561053 -0.02403556 135.09327507 -0.0372467 C139.6611251 -0.04880147 144.22853124 -0.04078637 148.79633331 -0.01766968 C150.47290116 -0.01238027 152.14950635 -0.01390036 153.82605934 -0.02272034 C156.11484991 -0.03365099 158.40221806 -0.0199441 160.69091797 0 C161.97162391 0.0015081 163.25232985 0.0030162 164.57184505 0.00457001 C168.49596729 0.59647935 170.1663467 1.68137845 172.90895081 4.50793457 C173.53395081 7.44543457 173.53395081 7.44543457 172.90895081 10.50793457 C170.28140994 13.84549842 168.7979134 15.34106626 164.57184505 16.13434696 C163.29113912 16.13493327 162.01043318 16.13551958 160.69091797 16.13612366 C159.97484644 16.14321804 159.25877492 16.15031243 158.52100426 16.1576218 C156.12690226 16.17519305 153.73442574 16.1571035 151.34034729 16.13903809 C149.62197633 16.14417724 147.90361064 16.15145849 146.18525696 16.16072083 C141.52201165 16.17924229 136.85933776 16.1662922 132.19611621 16.14663053 C127.31727092 16.13025148 122.43846203 16.13905576 117.55960083 16.14414978 C109.36744553 16.14867114 101.17551852 16.1327972 92.9834137 16.1048584 C83.50896854 16.07279562 74.03493492 16.07282623 64.56046051 16.09007317 C55.44879391 16.10592938 46.33727834 16.09921123 37.22561836 16.08213615 C33.34648181 16.07525929 29.4674661 16.07630458 25.58833122 16.08368111 C21.02209349 16.09133478 16.45632492 16.07924803 11.89016724 16.0518322 C10.21318517 16.04493801 8.53615938 16.04486146 6.85917854 16.05204773 C4.57225986 16.06071948 2.28679678 16.04482746 0 16.02259827 C-1.92049337 16.01838789 -1.92049337 16.01838789 -3.87978458 16.01409245 C-7.09104919 15.50793457 -7.09104919 15.50793457 -9.50298977 13.69451809 C-11.82346424 10.49947944 -11.64065808 8.35519679 -11.09104919 4.50793457 C-7.90936118 0.1262568 -5.24437402 0.00617736 0 0 Z " fill="#8D9CA8" transform="translate(301.09104919433594,390.4920654296875)"/>
<path d="M0 0 C1.03647675 -0.00554901 2.07295349 -0.01109802 3.14083862 -0.01681519 C6.55847761 -0.02860238 9.97478821 -0.00434574 13.39233398 0.02148438 C15.77074625 0.02319565 18.14916041 0.02312963 20.52757263 0.0213623 C25.50831179 0.02301499 30.48860056 0.04170576 35.46923828 0.07324219 C41.85396895 0.11294063 48.23811034 0.11728448 54.62294102 0.10977936 C59.53258158 0.10671032 64.44208962 0.11882758 69.35169792 0.13591003 C71.70602525 0.14294139 74.0603676 0.1460644 76.41470528 0.1452179 C79.70382989 0.14701513 82.99224758 0.16839099 86.28125 0.1953125 C87.25437637 0.1923819 88.22750275 0.18945129 89.2301178 0.18643188 C94.12638648 0.24828007 97.64497978 0.34042896 101.57592773 3.61523438 C103.02023628 6.50385147 102.95281279 8.41171139 102.57592773 11.61523438 C100.55341713 14.48687719 98.93500433 16.32713989 95.40505981 17.07541084 C92.64982055 17.26080994 89.93497028 17.27914795 87.17358398 17.24633789 C85.60445755 17.25707085 85.60445755 17.25707085 84.00363159 17.26802063 C80.5481185 17.28491986 77.09390045 17.2654965 73.63842773 17.24414062 C71.23616427 17.2449692 68.83390086 17.24742816 66.43164062 17.25144958 C61.39785693 17.25430845 56.36451797 17.23959692 51.33081055 17.2121582 C44.87758062 17.17807603 38.42514604 17.18409322 31.97187805 17.20282078 C27.0116106 17.21338796 22.05152831 17.20445534 17.09127808 17.18943596 C14.7118281 17.18425167 12.33235881 17.18473892 9.95291138 17.19098091 C6.62760828 17.19642944 3.30344476 17.17606783 -0.02172852 17.14868164 C-1.49780075 17.15847046 -1.49780075 17.15847046 -3.00369263 17.16845703 C-7.27060282 17.10868651 -9.76859475 17.00275444 -13.5 14.79673767 C-16.23573006 11.69498092 -16.64047533 9.72689265 -16.42407227 5.61523438 C-11.49133797 0.00537683 -7.20059946 -0.09834528 0 0 Z " fill="#92A1AC" transform="translate(371.424072265625,422.384765625)"/>
<path d="M0 0 C17.49 0 34.98 0 53 0 C53 25 53 25 49 31 C44.66328544 34.60647869 41.69536246 35.50487776 36.09765625 35.49609375 C34.14375977 35.49706055 34.14375977 35.49706055 32.15039062 35.49804688 C31.14262573 35.48245728 31.14262573 35.48245728 30.11450195 35.46655273 C28.07094794 35.43761961 26.02999886 35.44595484 23.98632812 35.45898438 C16.0058486 35.40770102 9.98046936 35.33498784 3.6875 30.0625 C-3.85500816 20.84387892 0 14.47893066 0 0 Z " fill="#8D9CA8" transform="translate(359,163)"/>
<path d="M0 0 C0.33 0 0.66 0 1 0 C1.07450314 5.83493296 1.12876864 11.66958518 1.16479492 17.50488281 C1.17982344 19.4873538 1.20025198 21.46979186 1.22631836 23.45214844 C1.26296383 26.31193193 1.27978604 29.17127344 1.29296875 32.03125 C1.30845261 32.90865845 1.32393646 33.78606689 1.33988953 34.69006348 C1.34201693 42.57905207 -0.46117294 49.4752386 -6.10595703 55.27270508 C-14.83595373 63.23412898 -24.56534983 62.61772884 -35.625 62.3125 C-37.21741266 62.28737029 -38.80986379 62.26456541 -40.40234375 62.24414062 C-44.26919413 62.18954877 -48.1341634 62.10354351 -52 62 C-49.7000174 60.8425894 -47.39492748 59.71677457 -45.0625 58.625 C-39.29478276 55.56457861 -35.84572733 52.3690071 -33.00390625 46.48046875 C-30.73602136 38.61787948 -31.05725937 30.13532118 -31 22 C-30.24976563 21.98582031 -29.49953125 21.97164063 -28.7265625 21.95703125 C-19.59021633 21.53128212 -12.01487556 19.56700612 -5.5625 12.75 C-2.57328942 8.91398756 -1.20568214 4.66408616 0 0 Z " fill="#5066D0" transform="translate(506,450)"/>
<path d="M0 0 C7.45329102 2.24796416 13.95431833 5.07909632 20 10 C20.92619141 9.29423828 20.92619141 9.29423828 21.87109375 8.57421875 C29.4070822 3.03406285 36.40763973 -0.78289304 45.98046875 -0.4140625 C49.54795725 0.31737615 51.02112927 2.06361118 53 5 C53.5625 8.0625 53.5625 8.0625 53 11 C49.96455373 14.88305298 47.39790215 15.63089066 42.625 16.4375 C35.9591101 17.83927551 32.52290084 19.21928404 28.64453125 25.03125 C27.79117203 26.41264088 26.96525002 27.81159532 26.17578125 29.23046875 C25 31 25 31 22 33 C18.6875 33.1875 18.6875 33.1875 15 32 C12.63304646 29.21798826 10.86951166 26.12868274 9 23 C5.60527552 18.83872483 1.33904999 16.36823168 -4.08984375 15.76953125 C-4.78207031 15.72183594 -5.47429687 15.67414063 -6.1875 15.625 C-10 15 -10 15 -12.5625 12.8125 C-14 10 -14 10 -14.0625 6.9375 C-11.64857303 0.26370192 -6.59870656 -1.22471994 0 0 Z " fill="#F9639F" transform="translate(109,346)"/>
<path d="M0 0 C1.86730019 -0.01891296 1.86730019 -0.01891296 3.77232361 -0.03820801 C5.12759976 -0.03104737 6.48287073 -0.02284317 7.83813477 -0.01367188 C9.23291799 -0.01636785 10.62769939 -0.02025115 12.0224762 -0.02526855 C14.94371458 -0.03116076 17.86446317 -0.02261179 20.78564453 -0.00390625 C24.5228582 0.01886304 28.2589215 0.00577293 31.9960928 -0.01819611 C34.87613015 -0.0326803 37.75589676 -0.02803596 40.63594246 -0.01768494 C42.01339925 -0.01502374 43.39088092 -0.01826607 44.76830864 -0.02760315 C46.69709655 -0.03780743 48.62597103 -0.01948568 50.5546875 0 C51.65070786 0.00318237 52.74672821 0.00636475 53.8759613 0.00964355 C57.56181946 0.64083859 59.24257281 1.8644693 61.84204102 4.51757812 C62.40454102 8.01757812 62.40454102 8.01757812 61.84204102 11.51757812 C59.68081501 14.40576069 58.50369448 15.4043371 54.91355896 16.01878357 C53.20837852 16.01903282 53.20837852 16.01903282 51.46875 16.01928711 C49.53170448 16.03335854 49.53170448 16.03335854 47.55552673 16.04771423 C46.14972266 16.03723702 44.74392498 16.02586816 43.33813477 16.01367188 C41.89372179 16.01382688 40.4493084 16.01531609 39.00489807 16.01808167 C35.98110518 16.01946495 32.95778703 16.00691876 29.93408203 15.98413086 C26.05782158 15.95572029 22.18234827 15.95849103 18.30602932 15.97122097 C15.32486747 15.97817418 12.3438877 15.97039354 9.3627491 15.95796394 C7.93340821 15.9534477 6.50404779 15.95311417 5.07470512 15.95702934 C3.0784165 15.95993834 1.08213148 15.94128607 -0.9140625 15.92163086 C-2.05005386 15.91622787 -3.18604523 15.91082489 -4.35646057 15.90525818 C-7.15795898 15.51757812 -7.15795898 15.51757812 -9.02085876 14.23841858 C-10.62745493 11.80706238 -10.57162729 9.40465468 -10.65405273 6.55273438 C-9.28721091 0.94545411 -5.17727113 0.01504349 0 0 Z " fill="#8E9DA9" transform="translate(360.157958984375,228.482421875)"/>
<path d="M0 0 C12.36115802 3.70834741 20.87589785 8.26513157 27.5078125 19.5703125 C30.99762049 26.56987023 31.22174755 30.43922304 32 39 C21.44 39 10.88 39 0 39 C0 26.13 0 13.26 0 0 Z " fill="#4F66D0" transform="translate(224,473)"/>
<path d="M0 0 C8.25 0 16.5 0 25 0 C25.061875 4.021875 25.12375 8.04375 25.1875 12.1875 C25.21481201 13.44715576 25.24212402 14.70681152 25.27026367 16.00463867 C25.27775635 17.0072876 25.28524902 18.00993652 25.29296875 19.04296875 C25.3086792 20.06414795 25.32438965 21.08532715 25.34057617 22.13745117 C24.75781041 27.03560782 22.42427145 29.57572855 19 33 C26.92 33.33 34.84 33.66 43 34 C43 34.33 43 34.66 43 35 C38.85574912 35.07465394 34.71186376 35.12883721 30.56713867 35.16479492 C29.15984266 35.17979877 27.75259276 35.20020863 26.34545898 35.22631836 C24.31222093 35.26307665 22.27960568 35.27980984 20.24609375 35.29296875 C19.02591553 35.3086792 17.8057373 35.32438965 16.54858398 35.34057617 C11.49960714 34.85599945 7.63014419 33.36579648 3.6875 30.0625 C0.50839483 26.17692702 -0.24873571 23.3811566 -0.1953125 18.359375 C-0.18781982 16.91256348 -0.18781982 16.91256348 -0.18017578 15.43652344 C-0.16196777 14.2199707 -0.14375977 13.00341797 -0.125 11.75 C-0.08375 7.8725 -0.0425 3.995 0 0 Z " fill="#AEBCC5" transform="translate(359,163)"/>
<path d="M0 0 C0.73573242 -0.0038269 1.47146484 -0.00765381 2.22949219 -0.01159668 C3.77931086 -0.01430903 5.32917584 -0.00699519 6.87890625 0.00976562 C9.24323143 0.03118867 11.60451866 0.00994489 13.96875 -0.015625 C15.47917333 -0.0129816 16.98959479 -0.00785636 18.5 0 C19.2022168 -0.00809692 19.90443359 -0.01619385 20.62792969 -0.02453613 C25.42181977 0.06646869 27.91726934 1.08909573 31.25 4.53125 C32.3125 7.46875 32.3125 7.46875 32.25 10.53125 C30.47960551 13.27841387 29.18708156 15.06270922 26.25 16.53125 C23.75514374 16.66634379 21.28946156 16.7438361 18.79296875 16.76953125 C18.05299149 16.777603 17.31301422 16.78567474 16.5506134 16.79399109 C14.98290345 16.80782883 13.41516341 16.81855238 11.84741211 16.82641602 C9.45693368 16.84361022 7.06784541 16.88749349 4.67773438 16.93164062 C3.15365599 16.94176956 1.62956586 16.95028503 0.10546875 16.95703125 C-0.60615921 16.97453934 -1.31778717 16.99204742 -2.05097961 17.01008606 C-5.67806569 16.99433933 -7.62127144 16.61424534 -10.69946289 14.62963867 C-12.75 12.53125 -12.75 12.53125 -13.4140625 10.53125 C-13.40117187 9.87125 -13.38828125 9.21125 -13.375 8.53125 C-13.38789063 7.87125 -13.40078125 7.21125 -13.4140625 6.53125 C-11.38115033 0.40859688 -5.59801548 -0.06454802 0 0 Z " fill="#92A0AC" transform="translate(302.75,422.46875)"/>
<path d="M0 0 C3.54202539 2.4577319 4.7820239 3.81324121 5.5625 8.0625 C4.86117386 11.72498093 3.87986107 12.67707074 1 15 C-2.0234375 15.87109375 -2.0234375 15.87109375 -5.375 16.4375 C-11.14441458 17.65075497 -14.08296389 18.59333438 -18 23 C-19.29323496 25.04401878 -20.50952454 27.08601222 -21.62890625 29.23046875 C-23.42271498 31.54555524 -25.29364369 32.00300778 -28 33 C-29.62372702 12.53354543 -29.62372702 12.53354543 -26.08984375 7.01953125 C-23.43950619 5.16388533 -21.05817739 4.04080827 -18 3 C-17.22398437 2.65582031 -16.44796875 2.31164062 -15.6484375 1.95703125 C-10.67689414 -0.05442357 -5.31092571 -1.08889386 0 0 Z " fill="#F9448F" transform="translate(157,346)"/>
<path d="M0 0 C3.68922904 0.81191527 4.99121203 1.47941577 7.03515625 4.66796875 C7.78389198 8.20744675 7.82789992 10.44972688 5.8125 13.546875 C3.97701384 15.69478434 2.04201577 17.67883767 0.03515625 19.66796875 C-0.81820313 20.54582031 -1.6715625 21.42367187 -2.55078125 22.328125 C-11.45892235 31.40606938 -11.45892235 31.40606938 -15.83984375 32.16796875 C-18.96484375 31.66796875 -18.96484375 31.66796875 -21.90234375 29.04296875 C-23.96484375 25.66796875 -23.96484375 25.66796875 -23.84423828 22.75341797 C-22.25246476 17.16851132 -17.88056411 13.7855853 -13.83984375 9.79296875 C-12.99679687 8.91382812 -12.15375 8.0346875 -11.28515625 7.12890625 C-4.26015625 0.10390625 -4.26015625 0.10390625 0 0 Z " fill="#FEE178" transform="translate(393.96484375,88.33203125)"/>
<path d="M0 0 C5.17591558 1.81068719 8.22599209 4.25422341 11 9 C11.4510982 13.87186051 9.75084731 16.71646758 7 20.5625 C3.29743266 24.98585401 -0.6756339 28.6576552 -6 31 C-9.875 31.1875 -9.875 31.1875 -13 30 C-15.12178656 27.53598981 -15.86676215 25.81141848 -16.390625 22.62109375 C-15.81695858 18.77179206 -13.80457576 17.70378908 -10.8125 15.3125 C-5.49377842 10.75457494 -2.50475099 6.50404954 0 0 Z " fill="#F9458F" transform="translate(203,296)"/>
<path d="M0 0 C2.09947056 2.72313682 3.94564665 5.51302842 5.75 8.4375 C8.6358516 12.83498815 11.61423491 15.162152 16 18 C17.56430248 21.12860495 17.35627284 23.55602925 17 27 C14.63206973 29.63855088 13.14907586 30.86151203 9.6015625 31.2890625 C2.85562635 30.53951404 -2.70121564 23.58655187 -6.80859375 18.578125 C-10.01442243 14.33171586 -10.01442243 14.33171586 -9.875 11.125 C-8.5463338 6.37976358 -6.33463997 3.87964907 -2.25 1.1875 C-1.5075 0.795625 -0.765 0.40375 0 0 Z " fill="#F963A0" transform="translate(53,296)"/>
<path d="M0 0 C2.89671317 2.03552817 3.82860176 3.3996881 4.80078125 6.8046875 C5.04948279 10.79366519 4.11538428 12.23785051 1.875 15.5 C1.22917969 16.44617188 0.58335937 17.39234375 -0.08203125 18.3671875 C-6.01050175 26.50525088 -6.01050175 26.50525088 -9 28 C-13.05263598 28.54035146 -14.53730231 28.34199395 -17.875 25.875 C-20.45218321 22.38822272 -20.55863354 21.2506934 -20 17 C-18.68567148 14.39318776 -17.01293164 12.13253784 -15.25 9.8125 C-14.8065625 9.19697266 -14.363125 8.58144531 -13.90625 7.94726562 C-10.0231214 2.6764896 -7.05685276 -1.02912436 0 0 Z " fill="#FCEAA3" transform="translate(446,18)"/>
<path d="M0 0 C3.97488319 0.82810066 5.58743309 2.55326181 8 5.625 C8.67804688 6.47320313 9.35609375 7.32140625 10.0546875 8.1953125 C16.53246786 16.65561638 16.53246786 16.65561638 17 22.625 C15.87981101 25.98556696 15.05465901 26.58856066 12 28.625 C8.17596558 29.2198498 6.44972515 28.89874575 3.125 26.875 C-1.92927426 22.18366565 -7.57859304 15.376438 -8.359375 8.42578125 C-8 5.625 -8 5.625 -5.875 2.75 C-3 0.625 -3 0.625 0 0 Z " fill="#FCEAA3" transform="translate(329,17.375)"/>
<path d="M0 0 C8.47535149 2.8514148 8.47535149 2.8514148 11 7.11328125 C11.68234041 11.12203115 11.3158333 12.63443721 9.0625 16.05078125 C5.36783937 18.53902208 3.86202156 18.51806193 -0.390625 17.76171875 C-14.9514377 14.1433132 -14.9514377 14.1433132 -19 9.11328125 C-19.5 5.61328125 -19.5 5.61328125 -19 2.11328125 C-13.44002694 -4.92935129 -7.70001804 -2.27591679 0 0 Z " fill="#FEE178" transform="translate(305,68.88671875)"/>
<path d="M0 0 C2.5625 2.0625 2.5625 2.0625 4 5 C4.06988293 8.98332677 3.74657153 11.09896539 1.1875 14.1875 C-5.85761154 18.19354382 -13.84862406 21.16448228 -22 20 C-24.5 18.4375 -24.5 18.4375 -26 16 C-26.67169833 11.89517689 -26.53461399 9.85142229 -24.3125 6.3125 C-18.31948183 1.14138147 -7.70326512 -1.26053429 0 0 Z " fill="#FCEAA3" transform="translate(312,122)"/>
<path d="M0 0 C2.4375 2.125 2.4375 2.125 4 5 C3.94272948 8.32169019 3.86733329 10.78511826 1.8984375 13.54296875 C-0.88801465 15.6815421 -4.01001866 16.62518579 -7.3125 17.6875 C-7.96412109 17.91244141 -8.61574219 18.13738281 -9.28710938 18.36914062 C-13.30026181 19.69078942 -16.78219155 20.43337829 -21 20 C-24.32274404 17.54405875 -25.77618008 16.0743356 -26.625 12 C-25.77903968 7.93939047 -24.14151959 6.67595394 -21 4 C-18.46857797 2.84960624 -16.18764075 1.94159413 -13.5625 1.125 C-12.91990234 0.90070313 -12.27730469 0.67640625 -11.61523438 0.4453125 C-7.38968139 -0.92745598 -4.2789295 -1.22255128 0 0 Z " fill="#FEE178" transform="translate(482,67)"/>
<path d="M0 0 C2.89188481 0.68830592 5.6084232 1.67036027 8.375 2.75 C9.44041016 3.12898438 9.44041016 3.12898438 10.52734375 3.515625 C13.43514821 4.6191561 15.58953106 5.45234801 17.484375 7.98046875 C18.31979563 11.25253287 17.8245579 13.76066538 17 17 C15.375 18.9375 15.375 18.9375 13 20 C7.22712312 20.44683941 2.96106301 19.2548931 -2.3125 17.1875 C-3.02728516 16.92646484 -3.74207031 16.66542969 -4.47851562 16.39648438 C-8.12570864 15.00429477 -9.78357705 14.32463443 -12 11 C-12.41857482 7.16306413 -12.54644269 4.88796936 -10.5 1.5625 C-7.04976267 -0.59389833 -3.92808372 -0.39790641 0 0 Z " fill="#FCEAA3" transform="translate(468,122)"/>
<path d="M0 0 C0.66 -0.02191406 1.32 -0.04382812 2 -0.06640625 C5.32767731 0.97999228 6.26765115 2.56405812 8 5.5625 C8.59956446 8.90901833 8.60429093 12.17005944 8.5625 15.5625 C8.58634766 16.45195312 8.61019531 17.34140625 8.63476562 18.2578125 C8.62459169 22.80216961 8.47816031 24.92360675 5.6875 28.65234375 C2.16762007 31.15411888 0.23064252 31.25478696 -4 30.5625 C-6.18359375 29.21484375 -6.18359375 29.21484375 -8 26.5625 C-8.60193533 22.88880503 -8.55759317 19.27725921 -8.5 15.5625 C-8.51546875 14.56476562 -8.5309375 13.56703125 -8.546875 12.5390625 C-8.50816245 5.31917172 -8.50816245 5.31917172 -6.21875 1.91015625 C-3.91674754 0.51193292 -2.67214337 -0.00521903 0 0 Z " fill="#FEE177" transform="translate(386,-0.5625)"/>
</svg>
