<?xml version="1.0" encoding="UTF-8"?>
<svg version="1.1" xmlns="http://www.w3.org/2000/svg" width="512" height="512">
<path d="M0 0 C6.41431318 3.81424742 10.50507205 8.85355164 12.48046875 16.08984375 C12.74218178 19.37376213 12.74218178 19.37376213 12.75894165 22.9994812 C12.76473405 23.67022678 12.77052645 24.34097237 12.77649438 25.03204358 C12.79341796 27.26604088 12.79636421 29.49983063 12.79931641 31.73388672 C12.80861988 33.34066774 12.81878917 34.94744396 12.82975769 36.55421448 C12.85702456 40.90701594 12.87219728 45.2597851 12.88518572 49.61264944 C12.90083075 54.16507256 12.92761661 58.71742985 12.95321655 63.26980591 C12.99998002 71.88628615 13.03673591 80.50277881 13.06988943 89.11932099 C13.10812798 98.93068055 13.15753362 108.74197396 13.20787358 118.55327773 C13.31115728 138.7320842 13.40042928 158.91093257 13.48046875 179.08984375 C14.06405151 178.49737854 14.64763428 177.90491333 15.24890137 177.29449463 C20.76952307 171.69348855 26.29989536 166.10233163 31.84123993 160.52182388 C34.68928266 157.65296963 37.53351059 154.78054207 40.36914062 151.89941406 C43.10945852 149.11540842 45.85963473 146.34149235 48.61671448 143.57408905 C49.66312951 142.52032366 50.70603748 141.46306285 51.745224 140.40216827 C64.01788142 127.88360644 64.01788142 127.88360644 72.89453125 126.59375 C80.49846376 126.73250789 85.13979453 127.30594856 91.10546875 132.27734375 C96.19673846 138.30647893 97.91654265 143.28397758 98.01171875 151.18359375 C96.42952552 159.83912144 90.88496176 165.25829154 84.85986328 171.2121582 C83.99109558 172.08632889 83.12232788 172.96049957 82.22723389 173.86116028 C79.85842603 176.24028422 77.48107541 178.61016097 75.09886408 180.97581887 C72.59961948 183.4611393 70.11061771 185.95668292 67.62008667 188.45072937 C63.43908509 192.63442652 59.2501001 196.80999621 55.05615234 200.98071289 C50.21501638 205.79521716 45.38645923 210.62205993 40.56449425 215.45575935 C35.91342376 220.11762522 31.25389042 224.77094176 26.59035873 229.42033958 C24.61092054 231.39403587 22.63441041 233.37059655 20.6602211 235.34954262 C17.90212787 238.1133136 15.13168157 240.864493 12.35986328 243.61450195 C11.54615265 244.43271423 10.73244202 245.25092651 9.89407349 246.09393311 C3.90767467 252.00228813 -0.69109767 255.51230759 -9.39453125 255.58984375 C-11.12316406 255.63625 -11.12316406 255.63625 -12.88671875 255.68359375 C-21.58155045 254.26250298 -27.56998814 247.47714282 -33.55004883 241.46337891 C-34.41446594 240.60582504 -35.27888306 239.74827118 -36.16949463 238.86473083 C-38.51995481 236.52935301 -40.86352518 234.18748594 -43.20357728 231.8417058 C-45.16405223 229.87812422 -47.12912433 227.9191752 -49.09416121 225.96016061 C-53.7306598 221.33766606 -58.35936648 216.70747195 -62.9831543 212.07226562 C-67.74304431 207.30088067 -72.51560229 202.54244462 -77.29460603 197.79021037 C-81.40991797 193.69708384 -85.51739474 189.59621016 -89.61869544 185.48904455 C-92.06291718 183.04146099 -94.50990792 180.59682674 -96.96442604 178.15956497 C-99.69968528 175.44270353 -102.41850094 172.70974244 -105.13598633 169.97509766 C-105.94484787 169.17590408 -106.75370941 168.37671051 -107.58708191 167.55329895 C-113.12913662 161.9377351 -116.91972075 156.99923364 -117.01953125 148.77734375 C-116.80697479 142.05871134 -114.6731795 136.09167524 -109.734375 131.390625 C-104.96873899 127.85940002 -101.14434071 126.90680903 -95.33203125 126.77734375 C-93.70201172 126.72126953 -93.70201172 126.72126953 -92.0390625 126.6640625 C-82.01211726 127.87708917 -75.93871698 135.14006448 -69.23828125 141.98046875 C-68.17442397 143.05179891 -67.10967077 144.12224009 -66.04406738 145.1918335 C-63.26014335 147.99093138 -60.48844989 150.80183463 -57.71923828 153.61547852 C-54.88399844 156.49185011 -52.03720861 159.35674133 -49.19140625 162.22265625 C-43.62282814 167.8339594 -38.06713434 173.45780313 -32.51953125 179.08984375 C-32.51806469 178.25808152 -32.51659813 177.42631929 -32.51508713 176.56935215 C-32.47800363 156.31229073 -32.41896839 136.05539642 -32.33562851 115.7984705 C-32.2958526 106.00228165 -32.26345274 96.20617296 -32.24853516 86.40991211 C-32.23551115 77.86952007 -32.20852732 69.32930453 -32.16491818 60.7890119 C-32.14232024 56.26873914 -32.12661957 51.74868394 -32.1276474 47.22834969 C-32.128395 42.96911418 -32.11040437 38.71035928 -32.07836342 34.45124817 C-32.0698811 32.89248282 -32.06810314 31.33366346 -32.07372856 29.77488518 C-32.12954592 11.92315824 -32.12954592 11.92315824 -25.74041367 5.22454929 C-18.51140223 -1.37990651 -9.51088841 -3.43571628 0 0 Z " fill="#1D4ED8" transform="translate(265.51953125,224.91015625)"/>
<path d="M0 0 C13.64350011 10.04313203 23.36068198 25.17042745 26 42 C27.59331318 62.15284804 24.41091923 80.23208318 11.06835938 95.96655273 C0.76464822 107.40884583 -14.04432536 115.97570571 -29.59082031 117.20483398 C-49.8114446 117.92910534 -67.10251763 114.55283359 -82.5 100.6875 C-94.03437764 89.7755285 -101.67826421 74.47346006 -102.3359375 58.546875 C-102.50387627 47.81164134 -102.50219749 37.95575219 -98 28 C-97.2884375 26.39318359 -97.2884375 26.39318359 -96.5625 24.75390625 C-88.53216014 8.3650636 -75.16958173 -2.82172733 -58 -9 C-38.17716973 -14.75437763 -17.04329508 -11.34845212 0 0 Z " fill="#1D4ED8" transform="translate(294,43)"/>
</svg>
