<?xml version="1.0" encoding="UTF-8"?>
<svg version="1.1" xmlns="http://www.w3.org/2000/svg" width="512" height="512">
<path d="M0 0 C1.22529419 -0.0112793 2.45058838 -0.02255859 3.7130127 -0.03417969 C5.06796501 -0.02640265 6.42291499 -0.01820998 7.77786255 -0.00964355 C9.20713006 -0.01506473 10.63639198 -0.02218736 12.06564331 -0.03088379 C15.94599012 -0.04912431 19.82591165 -0.04204599 23.70626593 -0.02936745 C27.76872751 -0.01923952 31.83115271 -0.02863291 35.89361572 -0.03491211 C42.71805352 -0.0421908 49.54231822 -0.03259682 56.36672974 -0.0135498 C64.25119196 0.00820204 72.13524017 0.00118093 80.0196923 -0.02085543 C86.79182118 -0.03902401 93.56382561 -0.04156013 100.335971 -0.03110075 C104.37935233 -0.02487155 108.42253929 -0.02401392 112.46590805 -0.0372467 C116.26965136 -0.04882531 120.07286276 -0.04074339 123.87654877 -0.01766968 C125.27049757 -0.01239248 126.66449133 -0.0138795 128.05842209 -0.02272034 C141.11461305 -0.09787483 141.11461305 -0.09787483 146.01663208 4.50793457 C150.4749036 9.53946535 150.5597516 13.66700197 150.40725708 20.06262207 C150.40159729 20.96417023 150.3959375 21.86571838 150.3901062 22.79458618 C150.36781763 25.6579222 150.31763597 28.51998046 150.26663208 31.38293457 C150.24655733 33.33083309 150.22830827 35.27875134 150.21194458 37.22668457 C150.16797755 41.98758927 150.09900271 46.74754571 150.01663208 51.50793457 C150.54854156 51.29640244 151.08045105 51.0848703 151.628479 50.8669281 C152.33551971 50.59240311 153.04256042 50.31787811 153.77102661 50.03503418 C154.4679361 49.76162704 155.16484558 49.48821991 155.88287354 49.20652771 C163.95884998 46.56245078 174.41581605 47.6786536 181.97756958 51.32043457 C190.10717172 56.05491551 195.59975308 63.42800842 198.01663208 72.50793457 C199.0151472 83.60770729 198.3661041 93.24242117 191.26663208 102.32043457 C185.59687566 108.39108286 178.52413605 112.15159185 170.21194458 112.80871582 C168.85524489 112.8231488 167.49839315 112.82689534 166.14163208 112.82043457 C165.47260864 112.83654785 164.80358521 112.85266113 164.11428833 112.8692627 C160.32588262 112.87291241 157.29984849 112.38048981 153.76223755 110.98522949 C153.05646576 110.71007004 152.35069397 110.43491058 151.62353516 110.15141296 C151.09325714 109.93906509 150.56297913 109.72671722 150.01663208 109.50793457 C150.02031925 110.538304 150.02400642 111.56867344 150.02780533 112.63026619 C150.11657478 137.6929758 150.18232143 162.75566504 150.22388077 187.81849861 C150.24451237 199.93866689 150.27264454 212.05873136 150.31838989 224.17883301 C150.35823918 234.74181591 150.38406054 245.30472363 150.39298606 255.86777961 C150.398204 261.4616723 150.41048076 267.05534992 150.43955231 272.64917374 C150.46669109 277.91372877 150.4750801 283.17798001 150.46906281 288.44259834 C150.47016372 290.37516365 150.47812666 292.30773907 150.49345398 294.24024391 C150.51335786 296.87909271 150.50856994 299.51679479 150.49765015 302.15567017 C150.50930151 302.92027372 150.52095288 303.68487728 150.53295732 304.47265065 C150.47501629 309.65337757 149.38667907 312.5873879 146.01663208 316.50793457 C140.59780763 321.59595137 134.97349758 321.07059717 127.94631958 321.01586914 C126.10738129 321.02522908 126.10738129 321.02522908 124.23129272 321.03477812 C120.83564694 321.0479627 117.44088745 321.04323162 114.04529572 321.03083324 C110.38059963 321.02177974 106.71598077 321.03575394 103.05130005 321.04675293 C95.87513142 321.0645396 88.69913013 321.06069756 81.52295494 321.04910237 C75.69075523 321.04006888 69.85860241 321.03884367 64.02639771 321.04319763 C63.19633461 321.04381056 62.36627151 321.0444235 61.51105499 321.045055 C59.82479857 321.0463339 58.13854216 321.04763076 56.45228577 321.04894537 C40.64017702 321.06035159 24.82816104 321.0472368 9.0160675 321.0257439 C-4.55149909 321.00787287 -18.11892879 321.01097697 -31.68649292 321.02941895 C-47.44200901 321.05082491 -63.19744381 321.05925295 -78.95297241 321.04696989 C-80.63302611 321.04569569 -82.31307982 321.04443821 -83.99313354 321.04319763 C-84.81975243 321.04258053 -85.64637131 321.04196343 -86.49803925 321.04132763 C-92.32324678 321.0378739 -98.14840275 321.04370355 -103.97360229 321.05311584 C-111.07259266 321.06433418 -118.17140611 321.06129936 -125.27037621 321.03999287 C-128.89243685 321.0294801 -132.51420252 321.0253642 -136.13626099 321.03858948 C-140.06202595 321.0527069 -143.98730787 321.03585066 -147.91305542 321.01586914 C-149.6316275 321.02925347 -149.6316275 321.02925347 -151.38491821 321.04290819 C-157.56898338 320.98166441 -161.29984194 320.68550438 -165.98336792 316.50793457 C-170.44163944 311.47640379 -170.52648744 307.34886717 -170.37399292 300.95324707 C-170.36833313 300.05169891 -170.36267334 299.15015076 -170.35684204 298.22128296 C-170.33455347 295.35794694 -170.28437181 292.49588868 -170.23336792 289.63293457 C-170.21329317 287.68503605 -170.19504411 285.7371178 -170.17868042 283.78918457 C-170.13471339 279.02827987 -170.06573855 274.26832343 -169.98336792 269.50793457 C-170.5152774 269.71946671 -171.04718689 269.93099884 -171.59521484 270.14894104 C-172.65577591 270.56072853 -172.65577591 270.56072853 -173.73776245 270.98083496 C-174.43467194 271.2542421 -175.13158142 271.52764923 -175.84960938 271.80934143 C-183.8523944 274.42945547 -194.37329345 273.37824688 -201.87789917 269.75793457 C-209.3666479 265.31192419 -214.69480845 258.99912144 -217.62789917 250.67980957 C-219.50738841 239.19633688 -218.34162368 228.98305741 -211.79586792 219.25793457 C-204.27208723 211.90134901 -196.72743665 208.14486758 -186.10836792 208.19543457 C-185.43934448 208.17932129 -184.77032104 208.16320801 -184.08102417 208.14660645 C-180.29261846 208.14295673 -177.26658433 208.63537933 -173.72897339 210.03063965 C-173.0232016 210.3057991 -172.31742981 210.58095856 -171.590271 210.86445618 C-170.79485397 211.18297798 -170.79485397 211.18297798 -169.98336792 211.50793457 C-169.99225037 210.92799744 -170.00113281 210.3480603 -170.01028442 209.75054932 C-170.09875821 203.71616469 -170.15910214 197.68196419 -170.20309448 191.64709473 C-170.22321348 189.39473996 -170.250512 187.14243744 -170.28512573 184.89025879 C-170.33363001 181.65331126 -170.35633397 178.4170541 -170.37399292 175.17980957 C-170.39463806 174.17238708 -170.4152832 173.1649646 -170.43655396 172.12701416 C-170.43780682 168.22617202 -170.42334402 165.36446357 -168.62594604 161.86535645 C-164.3215748 159.65431579 -160.07434599 160.01970427 -155.31149292 160.11730957 C-154.2739386 160.12296936 -153.23638428 160.12862915 -152.16738892 160.13446045 C-148.855578 160.15683966 -145.54485148 160.20704038 -142.23336792 160.25793457 C-139.9872898 160.27799751 -137.74119471 160.29624863 -135.49508667 160.31262207 C-129.99081083 160.35670939 -124.48716685 160.42363716 -118.98336792 160.50793457 C-119.19490005 159.97602509 -119.40643219 159.4441156 -119.62437439 158.89608765 C-119.89889938 158.18904694 -120.17342438 157.48200623 -120.45626831 156.75354004 C-120.86637901 155.70817581 -120.86637901 155.70817581 -121.28477478 154.64169312 C-123.90488882 146.63890809 -122.85368023 136.11800904 -119.23336792 128.61340332 C-114.78735754 121.12465459 -108.47455479 115.79649404 -100.15524292 112.86340332 C-88.67177023 110.98391409 -78.45849076 112.14967881 -68.73336792 118.69543457 C-61.37678236 126.21921526 -57.62030093 133.76386584 -57.67086792 144.38293457 C-57.65475464 145.05195801 -57.63864136 145.72098145 -57.62203979 146.41027832 C-57.61656895 152.08901127 -58.82282317 154.7464819 -60.98336792 160.50793457 C-44.15336792 160.50793457 -27.32336792 160.50793457 -9.98336792 160.50793457 C-9.98336792 143.01793457 -9.98336792 125.52793457 -9.98336792 107.50793457 C-7.34336792 108.49793457 -4.70336792 109.48793457 -1.98336792 110.50793457 C8.59423805 111.88901875 17.1442841 110.79367326 26.01663208 104.50793457 C28.5020143 102.39485657 30.28766677 100.26740901 32.01663208 97.50793457 C32.42655396 96.88660645 32.83647583 96.26527832 33.25881958 95.62512207 C37.10689347 88.64551219 37.26717732 80.24748412 36.01663208 72.50793457 C33.61565037 64.93169194 29.80357047 58.76033166 23.01663208 54.50793457 C22.39530396 54.0980127 21.77397583 53.68809082 21.13381958 53.26574707 C14.07618305 49.37465469 5.83658188 49.65274794 -1.98336792 50.50793457 C-3.41355539 50.97542615 -4.83056192 51.48523442 -6.23117065 52.03503418 C-6.93789413 52.30955917 -7.64461761 52.58408417 -8.37275696 52.8669281 C-8.90425858 53.07846024 -9.43576019 53.28999237 -9.98336792 53.50793457 C-10.08474614 46.60295138 -10.15482412 39.69815992 -10.20309448 32.79260254 C-10.22321606 30.44324573 -10.25051643 28.09393903 -10.28512573 25.74475098 C-10.33361832 22.36881142 -10.35633149 18.99353371 -10.37399292 15.61730957 C-10.39463806 14.56613953 -10.4152832 13.51496948 -10.43655396 12.4319458 C-10.43685608 11.45123108 -10.4371582 10.47051636 -10.43746948 9.46008301 C-10.44635193 8.59848572 -10.45523438 7.73688843 -10.46438599 6.84918213 C-9.28768087 1.12183388 -5.29675256 0.00749929 0 0 Z " fill="#EC284A" transform="translate(281.9833679199219,159.4920654296875)"/>
<path d="M0 0 C7.35658556 7.52378069 11.11306699 15.06843127 11.0625 25.6875 C11.07861328 26.35652344 11.09472656 27.02554688 11.11132812 27.71484375 C11.11679897 33.3935767 9.91054475 36.05104733 7.75 41.8125 C24.58 41.8125 41.41 41.8125 58.75 41.8125 C58.75 58.9725 58.75 76.1325 58.75 93.8125 C55.12 92.8225 51.49 91.8325 47.75 90.8125 C38.85955598 89.66099558 31.2480559 91.18292404 23.75 96.1328125 C17.57673821 101.00223883 13.853498 107.28809305 11.75 114.8125 C10.68007614 125.31268301 11.89295277 134.2127486 18.5 142.625 C23.77103223 148.26873147 30.64199098 152.39122091 38.40234375 153.03125 C46.13354351 153.27005154 50.71506023 152.00384721 58.75 149.8125 C58.75 166.9725 58.75 184.1325 58.75 201.8125 C39.29604846 201.90280579 19.84226672 201.97648515 0.3881588 202.01974869 C-8.64478689 202.04037092 -17.67759307 202.06848502 -26.71044922 202.11425781 C-34.58380902 202.15413598 -42.45706777 202.17993528 -50.33052576 202.18885398 C-54.49922149 202.19406709 -58.66762817 202.20631257 -62.83623123 202.23542023 C-66.76130743 202.26260495 -70.68597599 202.27093892 -74.61113739 202.26493073 C-76.05026592 202.26602961 -77.48940833 202.27396563 -78.92845535 202.2893219 C-80.89683369 202.30929338 -82.86543161 202.30203833 -84.83389282 202.29351807 C-85.93451365 202.29720524 -87.03513447 202.30089241 -88.16910744 202.30469131 C-93.19194841 201.50226194 -96.28936018 198.89666206 -99.60058594 195.15966797 C-101.79360956 190.70934916 -101.75722678 187.14809119 -101.640625 182.2578125 C-101.63496521 181.35626434 -101.62930542 180.45471619 -101.62347412 179.52584839 C-101.60118555 176.66251237 -101.55100389 173.80045411 -101.5 170.9375 C-101.47992525 168.98960148 -101.46167619 167.04168323 -101.4453125 165.09375 C-101.40134547 160.3328453 -101.33237063 155.57288886 -101.25 150.8125 C-101.78190948 151.02403214 -102.31381897 151.23556427 -102.86184692 151.45350647 C-103.92240799 151.86529396 -103.92240799 151.86529396 -105.00439453 152.28540039 C-105.70130402 152.55880753 -106.3982135 152.83221466 -107.11624146 153.11390686 C-115.11902648 155.7340209 -125.63992553 154.68281231 -133.14453125 151.0625 C-140.63327998 146.61648962 -145.96144053 140.30368687 -148.89453125 131.984375 C-150.77402049 120.50090231 -149.60825576 110.28762284 -143.0625 100.5625 C-135.53871931 93.20591444 -127.99406873 89.44943301 -117.375 89.5 C-116.70597656 89.48388672 -116.03695312 89.46777344 -115.34765625 89.45117188 C-111.55925054 89.44752216 -108.53321641 89.93994476 -104.99560547 91.33520508 C-104.28983368 91.61036453 -103.58406189 91.88552399 -102.85690308 92.16902161 C-102.32662506 92.38136948 -101.79634705 92.59371735 -101.25 92.8125 C-101.25888245 92.23256287 -101.26776489 91.65262573 -101.2769165 91.05511475 C-101.36539029 85.02073012 -101.42573422 78.98652962 -101.46972656 72.95166016 C-101.48984556 70.69930539 -101.51714408 68.44700287 -101.55175781 66.19482422 C-101.60026209 62.95787669 -101.62296605 59.72161953 -101.640625 56.484375 C-101.66127014 55.47695251 -101.68191528 54.46953003 -101.70318604 53.43157959 C-101.7044389 49.53073745 -101.6899761 46.669029 -99.89257812 43.16992188 C-95.58820688 40.95888122 -91.34097807 41.3242697 -86.578125 41.421875 C-85.54057068 41.42753479 -84.50301636 41.43319458 -83.434021 41.43902588 C-80.12221008 41.46140509 -76.81148356 41.51160581 -73.5 41.5625 C-71.25392188 41.58256294 -69.00782679 41.60081406 -66.76171875 41.6171875 C-61.25744291 41.66127482 -55.75379893 41.72820259 -50.25 41.8125 C-50.46153214 41.28059052 -50.67306427 40.74868103 -50.89100647 40.20065308 C-51.16553146 39.49361237 -51.44005646 38.78657166 -51.72290039 38.05810547 C-51.99630753 37.36119598 -52.26971466 36.6642865 -52.55140686 35.94625854 C-55.1715209 27.94347352 -54.12031231 17.42257447 -50.5 9.91796875 C-46.05398962 2.42922002 -39.74118687 -2.89894053 -31.421875 -5.83203125 C-19.93840231 -7.71152049 -9.72512284 -6.54575576 0 0 Z " fill="#3AA8FD" transform="translate(213.25,278.1875)"/>
<path d="M0 0 C7.58421148 5.12830909 13.95384186 12.87292718 20.375 19.375 C22.52577301 21.5523492 24.67984123 23.72636102 26.8359375 25.8984375 C27.3254892 26.39628754 27.81504089 26.89413757 28.31942749 27.40707397 C30.9057843 30.03816422 30.9057843 30.03816422 34 32 C34.20625 31.175 34.4125 30.35 34.625 29.5 C37.85316326 21.28285715 43.29564329 16.14535299 51 12 C58.78224564 8.70751146 68.40279199 8.69547851 76.3125 11.625 C86.63125015 16.44153167 92.20728556 22.89127234 96.375 33.5 C97.97851465 42.47968202 97.41277551 51.18793988 92.7109375 59.1953125 C87.89181681 65.97300631 82.41780061 70.35081928 75 74 C76.40076782 75.35363647 76.40076782 75.35363647 77.82983398 76.73461914 C81.29836745 80.09435694 84.74684512 83.47407427 88.18969727 86.86010742 C89.68106414 88.32134567 91.1777777 89.77714806 92.67993164 91.22729492 C94.84136997 93.31575519 96.98266834 95.42316968 99.12109375 97.53515625 C99.79401962 98.17711441 100.4669455 98.81907257 101.16026306 99.48048401 C104.21420445 102.53219517 105.83357085 104.45576905 107.11743164 108.65405273 C106.87090154 115.67836665 101.65855898 119.61048457 96.92578125 124.26953125 C96.2419487 124.95053391 95.55811615 125.63153656 94.8535614 126.33317566 C92.677874 128.49770768 90.49532083 130.65516424 88.3125 132.8125 C86.83222319 134.28274103 85.35240024 135.75343918 83.87304688 137.22460938 C80.25393443 140.82172302 76.62865016 144.41250895 73 148 C71 145 71 145 69.73828125 142.73046875 C64.98355653 134.25012412 59.99286207 129.0514537 50.7421875 125.69140625 C41.57544632 123.3801339 32.78695491 124.7014357 24.65625 129.3359375 C17.5097045 134.21941026 13.37447548 141.27581247 11.359375 149.66796875 C9.89325803 159.181793 12.41052107 167.36104546 18 175 C18.33 175.99 18.66 176.98 19 178 C20.76351527 179.07062568 20.76351527 179.07062568 23 180 C24.92017797 181.03517975 26.8366671 182.07722246 28.75 183.125 C29.73484375 183.66382813 30.7196875 184.20265625 31.734375 184.7578125 C32.48203125 185.16773438 33.2296875 185.57765625 34 186 C30.11482503 190.64515774 26.086386 195.06276393 21.796875 199.3359375 C20.9510788 200.18316879 20.9510788 200.18316879 20.0881958 201.04751587 C18.90963356 202.22675246 17.72983233 203.40475201 16.54882812 204.58154297 C14.73710186 206.38785962 12.93084383 208.1995232 11.125 210.01171875 C9.97427927 211.16177955 8.82324885 212.31153057 7.671875 213.4609375 C7.13230164 214.0025351 6.59272827 214.54413269 6.0368042 215.10214233 C2.92311808 218.19623883 1.25423879 219.79932179 -3.125 220.5 C-7.188012 219.97574039 -7.80386409 219.65446555 -10.65383911 217.04801941 C-11.35393223 216.40883764 -12.05402534 215.76965588 -12.7753334 215.11110497 C-16.71269827 211.37472913 -20.57649989 207.57083956 -24.41357422 203.73168945 C-25.31861191 202.83001038 -26.2236496 201.9283313 -27.15611267 200.99932861 C-29.61471544 198.54947898 -32.07014342 196.09647202 -34.52469397 193.6425631 C-36.06059374 192.10737776 -37.59720487 190.57290812 -39.13406754 189.03868675 C-44.50107716 183.68089533 -49.86553167 178.32056115 -55.22753906 172.95776367 C-60.2195409 167.96515905 -65.21711726 162.97818263 -70.21728694 157.99375945 C-74.52080053 153.70331482 -78.82045668 149.40903036 -83.11712086 145.11172646 C-85.67904688 142.54954566 -88.24249712 139.98893707 -90.80984116 137.43218422 C-93.66642856 134.58706424 -96.51495694 131.73400662 -99.36279297 128.88012695 C-100.21265274 128.03588669 -101.06251251 127.19164642 -101.93812561 126.32182312 C-102.71182999 125.54392426 -103.48553436 124.76602539 -104.28268433 123.96455383 C-104.95626417 123.29151875 -105.62984402 122.61848368 -106.32383537 121.9250536 C-109.55672348 118.21212304 -110.34816829 115.13392011 -110.5 110.25 C-110.5515625 109.26515625 -110.603125 108.2803125 -110.65625 107.265625 C-108.95579069 98.80381558 -100.51488834 92.23367455 -94.62988281 86.38696289 C-93.24350365 84.99773621 -93.24350365 84.99773621 -91.82911682 83.58044434 C-89.31536941 81.06188842 -86.79548131 78.54956315 -84.27423573 76.03851628 C-81.63066503 73.40378047 -78.99241936 70.76372201 -76.35345459 68.12437439 C-71.92865624 63.70050949 -67.50001919 59.28051781 -63.06884766 54.86303711 C-57.94395987 49.75392491 -52.82436843 44.63955398 -47.70772862 39.52218252 C-42.25360205 34.06738139 -36.79568048 28.61638975 -31.33662319 23.16652369 C-29.76444923 21.59648208 -28.19298815 20.02572993 -26.62168121 18.45482063 C-23.70163017 15.53595771 -20.77734598 12.62137273 -17.85253906 9.70727539 C-16.54498405 8.3990406 -16.54498405 8.3990406 -15.21101379 7.06437683 C-14.41759079 6.27521881 -13.62416779 5.48606079 -12.80670166 4.67298889 C-12.11577549 3.98373857 -11.42484932 3.29448824 -10.71298599 2.58435154 C-7.30290834 -0.56965077 -4.55515268 -0.58776164 0 0 Z " fill="#91D633" transform="translate(142,35)"/>
<path d="M0 0 C17.16 0 34.32 0 52 0 C51.01 3.3 50.02 6.6 49 10 C47.55105161 19.82869988 50.17279274 28.57145079 55.8671875 36.6484375 C61.99692349 43.40686436 70.65914944 46.98456195 79.625 47.4375 C88.46722416 47.29435067 96.45948771 43.93209254 103 38 C109.4399536 29.19049237 112.16918831 20.91242422 111 10 C110.01 6.7 109.02 3.4 108 0 C125.16 0 142.32 0 160 0 C160.09030579 19.45395154 160.16398515 38.90773328 160.20724869 58.3618412 C160.22787092 67.39478689 160.25598502 76.42759307 160.30175781 85.46044922 C160.34163598 93.33380902 160.36743528 101.20706777 160.37635398 109.08052576 C160.38156709 113.24922149 160.39381257 117.41762817 160.42292023 121.58623123 C160.45010495 125.51130743 160.45843892 129.43597599 160.45243073 133.36113739 C160.45352961 134.80026592 160.46146563 136.23940833 160.4768219 137.67845535 C160.49679338 139.64683369 160.48953833 141.61543161 160.48101807 143.58389282 C160.48470524 144.68451365 160.48839241 145.78513447 160.49219131 146.91910744 C159.65890722 152.13508485 157.16240392 155.0432539 153.1510067 158.34493637 C149.63002697 160.19432802 147.53554006 160.49425642 143.58389282 160.48101807 C142.31352173 160.48651672 141.04315063 160.49201538 139.73428345 160.49768066 C138.3392906 160.48352684 136.94430163 160.46898764 135.54931641 160.45410156 C134.07061799 160.45297247 132.59191733 160.45360816 131.11322021 160.45587158 C127.10937335 160.45701725 123.10600773 160.43353221 119.10227251 160.40557575 C114.91426579 160.38053732 110.72624751 160.37821818 106.53817749 160.37347412 C98.61217765 160.3610515 90.68639902 160.32823962 82.7604965 160.28807616 C73.73516736 160.24333619 64.70982756 160.22136583 55.6844151 160.20129442 C37.12279259 160.15950624 18.56147323 160.08616288 0 160 C-0.33 143.17 -0.66 126.34 -1 109 C-4.3 109.99 -7.6 110.98 -11 112 C-19.98497808 113.19871703 -27.75711492 111.63961266 -35.22265625 106.45703125 C-42.44098018 100.56094236 -47.37639201 93.12005985 -48.3359375 83.703125 C-48.46018748 72.7194265 -46.57059461 64.85708101 -38.92578125 56.75390625 C-31.54444786 50.03135312 -24.24674433 47.81175912 -14.390625 47.63671875 C-11 48 -11 48 -1 51 C-0.67 34.17 -0.34 17.34 0 0 Z " fill="#FED52C" transform="translate(272,320)"/>
<path d="M0 0 C3.96 0 7.92 0 12 0 C12.09260916 19.4539095 12.1639852 38.90775672 12.20724869 58.3618412 C12.22787092 67.39478689 12.25598502 76.42759307 12.30175781 85.46044922 C12.34163598 93.33380902 12.36743528 101.20706777 12.37635398 109.08052576 C12.38156709 113.24922149 12.39381257 117.41762817 12.42292023 121.58623123 C12.45010495 125.51130743 12.45843892 129.43597599 12.45243073 133.36113739 C12.45352961 134.80026592 12.46146563 136.23940833 12.4768219 137.67845535 C12.49679338 139.64683369 12.48953833 141.61543161 12.48101807 143.58389282 C12.48470524 144.68451365 12.48839241 145.78513447 12.49219131 146.91910744 C11.65890722 152.13508485 9.16240392 155.0432539 5.1510067 158.34493637 C1.63002697 160.19432802 -0.46445994 160.49425642 -4.41610718 160.48101807 C-5.68647827 160.48651672 -6.95684937 160.49201538 -8.26571655 160.49768066 C-9.6607094 160.48352684 -11.05569837 160.46898764 -12.45068359 160.45410156 C-13.92938201 160.45297247 -15.40808267 160.45360816 -16.88677979 160.45587158 C-20.89062665 160.45701725 -24.89399227 160.43353221 -28.89772749 160.40557575 C-33.08573421 160.38053732 -37.27375249 160.37821818 -41.46182251 160.37347412 C-49.38782235 160.3610515 -57.31360098 160.32823962 -65.2395035 160.28807616 C-74.26483264 160.24333619 -83.29017244 160.22136583 -92.3155849 160.20129442 C-110.8771854 160.15950629 -129.43856679 160.08836058 -148 160 C-148 156.04 -148 152.08 -148 148 C-146.29697723 147.99635437 -144.59395447 147.99270874 -142.83932495 147.98895264 C-126.80047669 147.95203304 -110.76182719 147.89453076 -94.72312737 147.81609726 C-86.47719881 147.77630078 -78.23136577 147.74391142 -69.98535156 147.72900391 C-62.7974735 147.7159905 -55.60980555 147.68903395 -48.42204583 147.64538693 C-44.61670914 147.6227649 -40.81163167 147.60708975 -37.00622177 147.60811615 C-33.4224553 147.60886235 -29.839262 147.59092882 -26.25564384 147.55883217 C-24.31737621 147.54628711 -22.37901238 147.55340042 -20.4407196 147.56114197 C-11.96002611 147.51700159 -11.96002611 147.51700159 -5 143 C0.3655061 137.44989855 -0.42508603 131.00745038 -0.45410156 123.74267578 C-0.44535985 122.39204216 -0.43487198 121.04141889 -0.42277527 119.69081116 C-0.39496721 116.03624155 -0.39150941 112.38201074 -0.39249516 108.72735071 C-0.38936155 104.90359609 -0.36373406 101.07999304 -0.34051514 97.25631714 C-0.29998577 90.02103682 -0.27962168 82.78584656 -0.26654124 75.55047023 C-0.25066078 67.31098759 -0.21224078 59.07165798 -0.17194796 50.83226418 C-0.08959097 33.88821793 -0.03627215 16.94420536 0 0 Z " fill="#F6CF28" transform="translate(420,320)"/>
<path d="M0 0 C0.60585937 0.77859375 1.21171875 1.5571875 1.8359375 2.359375 C4.47054303 5.57416442 7.26636702 8.13318351 11 10 C12.96356655 10.10581791 14.93074348 10.14665143 16.89712524 10.15821838 C18.78181267 10.17290161 18.78181267 10.17290161 20.70457458 10.18788147 C22.10464439 10.19378604 23.5047146 10.19959646 24.90478516 10.20532227 C26.37304461 10.21489819 27.84130129 10.2249081 29.30955505 10.23532104 C33.3030932 10.26240713 37.29664321 10.2833966 41.29022264 10.30332303 C45.46094975 10.32515978 49.63164014 10.35255975 53.80233765 10.37937927 C61.70355328 10.42933747 69.60478925 10.47426468 77.50604475 10.51740164 C86.49989826 10.56674732 95.49371495 10.62167533 104.48753285 10.67708123 C122.99165459 10.79094927 141.4958116 10.89757977 160 11 C160 14.96 160 18.92 160 23 C140.5460905 23.09260916 121.09224328 23.1639852 101.6381588 23.20724869 C92.60521311 23.22787092 83.57240693 23.25598502 74.53955078 23.30175781 C66.66619098 23.34163598 58.79293223 23.36743528 50.91947424 23.37635398 C46.75077851 23.38156709 42.58237183 23.39381257 38.41376877 23.42292023 C34.48869257 23.45010495 30.56402401 23.45843892 26.63886261 23.45243073 C25.19973408 23.45352961 23.76059167 23.46146563 22.32154465 23.4768219 C20.35316631 23.49679338 18.38456839 23.48953833 16.41610718 23.48101807 C15.31548635 23.48470524 14.21486553 23.48839241 13.08089256 23.49219131 C8.14573537 22.70376995 5.04678936 20.07433644 1.625 16.5625 C-0.84393825 11.14982768 -0.31283954 5.85705139 0 0 Z " fill="#33A5F2" transform="translate(112,457)"/>
<path d="M0 0 C3.375 2.125 3.375 2.125 5 5 C5.80573518 8.86752888 5.31339525 10.44553149 3.375 13.875 C-2.08332526 17.31172331 -7.73752111 16.92666752 -14 16 C-17.375 13.875 -17.375 13.875 -19 11 C-19.80573518 7.13247112 -19.31339525 5.55446851 -17.375 2.125 C-11.91667474 -1.31172331 -6.26247889 -0.92666752 0 0 Z " fill="#2E9DE8" transform="translate(187,440)"/>
<path d="M0 0 C3.375 2.125 3.375 2.125 5 5 C5.80573518 8.86752888 5.31339525 10.44553149 3.375 13.875 C-2.08332526 17.31172331 -7.73752111 16.92666752 -14 16 C-17.375 13.875 -17.375 13.875 -19 11 C-19.80573518 7.13247112 -19.31339525 5.55446851 -17.375 2.125 C-11.91667474 -1.31172331 -6.26247889 -0.92666752 0 0 Z " fill="#2E9DE8" transform="translate(155,440)"/>
<path d="M0 0 C2.875 1.625 2.875 1.625 5 5 C5.92666752 11.26247889 6.31172331 16.91667474 2.875 22.375 C-0.55446851 24.31339525 -2.13247112 24.80573518 -6 24 C-8.875 22.375 -8.875 22.375 -11 19 C-11.92666752 12.73752111 -12.31172331 7.08332526 -8.875 1.625 C-5.44553149 -0.31339525 -3.86752888 -0.80573518 0 0 Z " fill="#EDC624" transform="translate(403,432)"/>
<path d="M0 0 C2.875 1.625 2.875 1.625 5 5 C5.92666752 11.26247889 6.31172331 16.91667474 2.875 22.375 C-0.55446851 24.31339525 -2.13247112 24.80573518 -6 24 C-8.875 22.375 -8.875 22.375 -11 19 C-11.92666752 12.73752111 -12.31172331 7.08332526 -8.875 1.625 C-5.44553149 -0.31339525 -3.86752888 -0.80573518 0 0 Z " fill="#EDC624" transform="translate(403,400)"/>
<path d="M0 0 C3.375 2.125 3.375 2.125 5 5 C5.80573518 8.86752888 5.31339525 10.44553149 3.375 13.875 C-2.08332526 17.31172331 -7.73752111 16.92666752 -14 16 C-17.375 13.875 -17.375 13.875 -19 11 C-19.80573518 7.13247112 -19.31339525 5.55446851 -17.375 2.125 C-11.91667474 -1.31172331 -6.26247889 -0.92666752 0 0 Z " fill="#E0244B" transform="translate(403,184)"/>
<path d="M0 0 C3.375 2.125 3.375 2.125 5 5 C5.80573518 8.86752888 5.31339525 10.44553149 3.375 13.875 C-2.08332526 17.31172331 -7.73752111 16.92666752 -14 16 C-17.375 13.875 -17.375 13.875 -19 11 C-19.80573518 7.13247112 -19.31339525 5.55446851 -17.375 2.125 C-11.91667474 -1.31172331 -6.26247889 -0.92666752 0 0 Z " fill="#E0244B" transform="translate(371,184)"/>
<path d="M0 0 C5.87902342 1.37177213 9.18413122 5.13813618 12.75 9.875 C14.125 13.625 14.125 13.625 13.75 16.875 C11.31851987 20.44623644 9.66656376 21.62823283 5.5 22.75 C-0.37902342 21.37822787 -3.68413122 17.61186382 -7.25 12.875 C-8.625 9.125 -8.625 9.125 -8.25 5.875 C-5.81851987 2.30376356 -4.16656376 1.12176717 0 0 Z " fill="#89C628" transform="translate(93.25,159.125)"/>
<path d="M0 0 C8.68546638 7.10629067 8.68546638 7.10629067 9.3125 12.875 C9 16 9 16 7.375 18.3125 C4.27298957 20.51656004 2.84566357 21.22186521 -1 21 C-3.97932455 18.97044115 -6.47522494 16.56245827 -9 14 C-9.56332031 13.50886719 -10.12664062 13.01773438 -10.70703125 12.51171875 C-12.66456538 10.22300059 -12.53351767 7.85235119 -12.41015625 4.9453125 C-12 3 -12 3 -9.9375 0.4375 C-5.89919446 -1.53869207 -4.27580297 -1.44942473 0 0 Z " fill="#89C628" transform="translate(75,138)"/>
</svg>
