<?xml version="1.0" encoding="UTF-8"?>
<svg version="1.1" xmlns="http://www.w3.org/2000/svg" width="512" height="512">
<path d="M0 0 C1.47436523 -0.08121094 1.47436523 -0.08121094 2.97851562 -0.1640625 C15.84472168 -0.38306175 28.14851477 3.63261906 40.45945358 6.96504974 C42.4298154 7.49792175 44.40116029 8.02699449 46.37283325 8.55499268 C55.69544653 11.05390799 65.00417562 13.60252267 74.31088638 16.15991974 C81.00581987 17.99824188 87.70304299 19.82822373 94.39988136 21.65959167 C96.17931894 22.14624726 97.95872621 22.63301367 99.73810387 23.11988831 C114.62266532 27.19243882 129.51447259 31.23786157 144.41015625 35.26953125 C145.46382511 35.55473192 146.51749397 35.83993259 147.60309219 36.13377571 C156.99650974 38.6760831 166.39032219 41.21692926 175.7845459 43.7562561 C186.23473965 46.58115231 196.68405099 49.40922772 207.13083458 52.24671268 C212.8205188 53.79166842 218.51208293 55.32948917 224.20478153 56.86329842 C227.9662347 57.87827825 231.72613084 58.89893457 235.4856472 59.92106247 C237.25968058 60.40213365 239.03435328 60.88085398 240.80968666 61.35710526 C243.2409905 62.00968725 245.66989743 62.67053693 248.09838867 63.33349609 C248.81780073 63.52445232 249.53721279 63.71540855 250.27842522 63.91215134 C255.20936266 65.27186266 255.20936266 65.27186266 257.4375 67.5 C257.66455078 69.37939453 257.66455078 69.37939453 257.6328125 71.6328125 C257.62636719 72.43847656 257.61992188 73.24414062 257.61328125 74.07421875 C257.59652344 74.91597656 257.57976563 75.75773437 257.5625 76.625 C257.55347656 77.47449219 257.54445313 78.32398438 257.53515625 79.19921875 C257.51155647 81.29959884 257.47568483 83.39983444 257.4375 85.5 C253.15870842 87.79041001 249.05850666 89.31659955 244.37817383 90.5847168 C243.69936661 90.77047272 243.02055939 90.95622864 242.32118225 91.14761353 C240.09728136 91.75441628 237.87102994 92.35202499 235.64453125 92.94921875 C234.09075445 93.3704667 232.53710125 93.79217077 230.98356628 94.21430969 C227.737587 95.09487036 224.49047672 95.97108496 221.24243164 96.84399414 C217.07757151 97.96349352 212.91522486 99.09202236 208.7536211 100.22355938 C205.55029855 101.09380955 202.34594645 101.96021479 199.14124107 102.82535744 C197.60556399 103.24023941 196.07015273 103.65610661 194.5350132 104.07297325 C192.39388562 104.65358212 190.25148516 105.22922478 188.10864258 105.8034668 C186.88985916 106.13195114 185.67107574 106.46043549 184.4153595 106.7988739 C181.4375 107.5 181.4375 107.5 178.4375 107.5 C178.44194122 108.45498383 178.44638245 109.40996765 178.45095825 110.39389038 C178.49163279 119.42647272 178.5215458 128.45903629 178.54112434 137.49168968 C178.55152847 142.13463556 178.56562561 146.77750707 178.58837891 151.42041016 C178.61022813 155.90729115 178.62209394 160.39410092 178.62725449 164.88103104 C178.63092867 166.58650456 178.63810301 168.29197452 178.64896011 169.99741745 C178.7677842 189.44913309 175.84687744 204.92479569 161.68359375 219.27734375 C158.6066757 222.082979 155.36807816 224.17620533 151.71484375 226.16796875 C150.51009399 226.82768677 150.51009399 226.82768677 149.28100586 227.50073242 C148.67264893 227.83049072 148.06429199 228.16024902 147.4375 228.5 C148.19869644 228.50364563 148.95989288 228.50729126 149.74415588 228.51104736 C156.93845317 228.54900686 164.13223715 228.60594869 171.32620335 228.68390274 C175.02420823 228.72331326 178.72197731 228.75553278 182.42016602 228.77099609 C185.99311505 228.78620571 189.56541552 228.82072559 193.13807487 228.86830902 C194.49707317 228.88307886 195.85616409 228.89103849 197.21524239 228.89188385 C206.14091251 228.90301347 211.39019807 229.45414686 218.40625 235.078125 C233.41348564 251.46357616 236.13054966 277.96340869 235.33544922 299.22949219 C234.30170777 318.46173655 231.30802242 340.01573765 217.4375 354.5 C212.4274517 358.79432711 207.94683618 359.61884551 201.48968506 359.65821838 C199.6639798 359.67290161 199.6639798 359.67290161 197.8013916 359.68788147 C196.45581094 359.69378521 195.11022987 359.69959568 193.76464844 359.70532227 C192.34535438 359.71490419 190.92606315 359.72491445 189.5067749 359.73532104 C185.65591306 359.76234216 181.805039 359.78336683 177.95413494 359.80332303 C173.92889368 359.82519982 169.90368996 359.85258023 165.878479 359.87937927 C158.2571166 359.92928326 150.63573334 359.9742306 143.01433015 360.01740164 C134.3372314 360.06679361 125.66017034 360.12170447 116.98310804 360.17708123 C99.13460702 360.29086606 81.28607043 360.39771272 63.4375 360.5 C63.95248047 360.99927002 64.46746094 361.49854004 64.99804688 362.01293945 C67.31896618 364.27163502 69.62828963 366.54183765 71.9375 368.8125 C72.74832031 369.59818359 73.55914062 370.38386719 74.39453125 371.19335938 C75.16152344 371.95068359 75.92851562 372.70800781 76.71875 373.48828125 C77.43095703 374.18477783 78.14316406 374.88127441 78.87695312 375.59887695 C80.4375 377.5 80.4375 377.5 80.4375 380.5 C72.53159267 382.64118324 64.48973842 384.0341799 56.4375 385.5 C54.6458287 390.37086397 53.70131462 395.15220718 52.875 400.25 C51.56484375 408.2453125 51.56484375 408.2453125 50.4375 410.5 C47.1726256 409.91799126 45.54876021 408.9813186 43.22949219 406.63256836 C42.62917175 406.03202133 42.02885132 405.4314743 41.41033936 404.81272888 C40.77477112 404.16167679 40.13920288 403.51062469 39.484375 402.83984375 C38.82415344 402.17537735 38.16393188 401.51091095 37.48370361 400.8263092 C35.3778236 398.70364437 33.28261672 396.57078395 31.1875 394.4375 C29.76110768 392.99606066 28.3340323 391.55529691 26.90625 390.11523438 C23.40869406 386.58461168 19.92067435 383.04480947 16.4375 379.5 C11.85872761 383.31825748 7.54439143 387.28017496 3.390625 391.5546875 C2.28804167 392.6747561 1.185169 393.79453993 0.08203125 394.9140625 C-1.62845039 396.65569776 -3.33644446 398.39958758 -5.03955078 400.1484375 C-6.70200773 401.85303591 -8.37361732 403.54819948 -10.046875 405.2421875 C-10.55627625 405.77020966 -11.06567749 406.29823181 -11.59051514 406.84225464 C-12.85862175 408.11953106 -14.2055243 409.3175676 -15.5625 410.5 C-16.5525 410.5 -17.5425 410.5 -18.5625 410.5 C-18.68254395 409.78344238 -18.80258789 409.06688477 -18.92626953 408.32861328 C-19.48530829 405.08850248 -20.08577394 401.85744305 -20.6875 398.625 C-20.87570313 397.49707031 -21.06390625 396.36914062 -21.2578125 395.20703125 C-21.83754986 392.18152692 -22.45692411 389.37566416 -23.5625 386.5 C-26.108968 384.62120261 -26.108968 384.62120261 -29.5625 384.5 C-31.14596824 384.15558968 -32.7265387 383.79770446 -34.3046875 383.4296875 C-36.01487503 383.0744947 -37.72583519 382.72300414 -39.4375 382.375 C-40.75621094 382.10236328 -40.75621094 382.10236328 -42.1015625 381.82421875 C-44.25456468 381.379577 -46.40819171 380.93826171 -48.5625 380.5 C-47.98869828 376.83622257 -46.58980342 375.17232775 -43.96484375 372.609375 C-43.24619141 371.90039062 -42.52753906 371.19140625 -41.78710938 370.4609375 C-41.03236328 369.73132813 -40.27761719 369.00171875 -39.5 368.25 C-38.74138672 367.50492187 -37.98277344 366.75984375 -37.20117188 365.9921875 C-35.32817793 364.15453306 -33.44854389 362.32424276 -31.5625 360.5 C-32.44672134 360.49761165 -33.33094269 360.49522329 -34.24195862 360.49276257 C-55.76711687 360.43360039 -77.29216328 360.35804242 -98.81719971 360.26428509 C-109.22659289 360.21933901 -119.63595194 360.17992156 -130.04541016 360.15356445 C-139.11936831 360.1305748 -148.19321838 360.09716587 -157.2670908 360.05129844 C-162.07066509 360.02737935 -166.87413242 360.00864193 -171.67776489 360.00238609 C-176.20203121 359.99632934 -180.72602389 359.97630803 -185.25018883 359.94572449 C-186.90774318 359.93695376 -188.56533331 359.93321968 -190.22290993 359.93499184 C-207.92561678 359.94793881 -207.92561678 359.94793881 -214.84765625 354.80078125 C-230.95688907 336.77968344 -233.50760298 309.40799635 -232.34375 286.2421875 C-231.10547761 267.98733068 -227.91080587 246.72684972 -213.8125 233.75 C-208.91985767 229.67850044 -205.03273454 229.35839632 -198.83203125 229.40234375 C-197.70640022 229.40446617 -197.70640022 229.40446617 -196.55802917 229.40663147 C-194.1636454 229.4122244 -191.76935547 229.42477556 -189.375 229.4375 C-187.75065239 229.44251592 -186.12630332 229.44707866 -184.50195312 229.45117188 C-180.52209931 229.46219152 -176.54231556 229.47945127 -172.5625 229.5 C-172.46835815 228.20763428 -172.46835815 228.20763428 -172.37231445 226.88916016 C-171.94787691 221.19505645 -171.44508482 215.54261469 -170.75 209.875 C-170.29511906 204.25348634 -171.26002124 200.25168338 -173.5546875 195.1328125 C-175.71774731 189.48202835 -175.7065631 183.52645054 -175.67602539 177.54516602 C-175.67617142 176.78336533 -175.67631744 176.02156464 -175.6764679 175.23667908 C-175.6757765 172.74239154 -175.66802061 170.24818059 -175.66015625 167.75390625 C-175.65828932 166.01513205 -175.65686672 164.27635732 -175.65586853 162.5375824 C-175.652065 157.97887703 -175.64225334 153.42020392 -175.63116455 148.86151123 C-175.62090375 144.20260047 -175.61636093 139.54368445 -175.61132812 134.88476562 C-175.600629 125.7564963 -175.58357876 116.62825084 -175.5625 107.5 C-176.10677139 107.40275635 -176.65104279 107.3055127 -177.21180725 107.20532227 C-185.20847903 105.69739912 -193.02658727 103.57856166 -200.87109375 101.4375 C-202.32931435 101.04145108 -203.78757206 100.64553879 -205.24586487 100.24975586 C-208.28132681 99.42500564 -211.31606087 98.59763882 -214.3503418 97.76855469 C-218.23798841 96.70667821 -222.12780003 95.65297825 -226.0182333 94.60136414 C-229.02095477 93.78847193 -232.02228687 92.97054353 -235.02324104 92.15115356 C-236.45769262 91.76029376 -237.8926211 91.3711798 -239.32803154 90.9838562 C-241.3274992 90.44368588 -243.32494134 89.89657752 -245.32202148 89.34765625 C-246.45768051 89.03836182 -247.59333954 88.72906738 -248.76341248 88.41040039 C-251.5625 87.5 -251.5625 87.5 -254.5625 85.5 C-254.93481445 83.65234375 -254.93481445 83.65234375 -254.92578125 81.4375 C-254.92513672 80.64085937 -254.92449219 79.84421875 -254.92382812 79.0234375 C-254.90771484 78.19070312 -254.89160156 77.35796875 -254.875 76.5 C-254.87822266 75.66726562 -254.88144531 74.83453125 -254.88476562 73.9765625 C-254.82950255 67.76700255 -254.82950255 67.76700255 -252.5625 65.5 C-250.66908646 64.80722141 -250.66908646 64.80722141 -248.31329346 64.17250061 C-247.41898935 63.92799825 -246.52468525 63.68349588 -245.60328102 63.43158436 C-244.61690336 63.16935927 -243.6305257 62.90713419 -242.61425781 62.63696289 C-241.57409704 62.35469943 -240.53393627 62.07243597 -239.46225548 61.78161907 C-235.98174991 60.83886247 -232.49871828 59.90580292 -229.015625 58.97265625 C-226.56285629 58.3102735 -224.11025304 57.64727781 -221.6578064 56.98370361 C-216.43171823 55.57101525 -211.20456654 54.16237536 -205.97637939 52.75747681 C-198.49184911 50.74622414 -191.00935759 48.72747597 -183.52744985 46.70649183 C-172.74188433 43.79318554 -161.9553445 40.88351456 -151.16791224 37.97712862 C-133.89252593 33.3225804 -116.62457992 28.6409652 -99.35995483 23.94668579 C-92.62995501 22.11696613 -85.89887628 20.29122073 -79.16796875 18.46484375 C-70.59993586 16.13962287 -62.03241865 13.81251751 -53.46551514 11.48313904 C-48.8716183 10.23433217 -44.27737437 8.98680596 -39.68304443 7.73959351 C-37.59828602 7.17332162 -35.51368515 6.60646931 -33.42926025 6.03897095 C-30.64985931 5.28229431 -27.86992343 4.5276159 -25.08984375 3.7734375 C-24.28847488 3.55470474 -23.48710602 3.33597198 -22.66145325 3.11061096 C-14.93278881 1.01853972 -7.98669704 0.17289302 0 0 Z " fill="#676D7A" transform="translate(254.5625,50.5)"/>
<path d="M0 0 C0.4021875 0.8971875 0.4021875 0.8971875 0.8125 1.8125 C3.03283209 5.90258543 5.27020641 7.3431063 9.6875 8.6875 C10.49574219 8.93886719 11.30398437 9.19023438 12.13671875 9.44921875 C12.75160156 9.63097656 13.36648437 9.81273438 14 10 C11.81193173 12.18806827 10.95313985 12.43320654 8.02734375 13.11328125 C7.21910156 13.30664062 6.41085938 13.5 5.578125 13.69921875 C4.27101562 14.00279297 4.27101562 14.00279297 2.9375 14.3125 C-3.59714263 15.88305788 -10.06976929 17.54468495 -16.5 19.5 C-22.60654603 21.34611471 -28.7419693 22.97932201 -34.9375 24.5 C-43.5512435 26.61434235 -52.09080779 28.93388253 -60.62792969 31.33642578 C-64.9133375 32.53524612 -69.20670501 33.70480033 -73.5 34.875 C-74.40234375 35.1215332 -75.3046875 35.36806641 -76.234375 35.62207031 C-81.45082853 37.0442441 -86.67209455 38.44662174 -91.8984375 39.83203125 C-93.63963867 40.29536865 -93.63963867 40.29536865 -95.41601562 40.76806641 C-97.66640358 41.36624265 -99.91766504 41.96114549 -102.16992188 42.55224609 C-114.30819684 45.78344733 -124.00930329 48.91052346 -131 60 C-131.88565586 62.65696758 -132.1450262 64.28190083 -132.20532227 67.01245117 C-132.22526749 67.81305466 -132.24521271 68.61365814 -132.26576233 69.43852234 C-132.28247482 70.29798965 -132.29918732 71.15745697 -132.31640625 72.04296875 C-132.3475779 73.36836418 -132.3475779 73.36836418 -132.37937927 74.72053528 C-132.44475754 77.54277785 -132.50370528 80.36511335 -132.5625 83.1875 C-132.60569637 85.10092106 -132.64931102 87.01433273 -132.69335938 88.92773438 C-132.80042695 93.61839437 -132.90172752 98.30914783 -133 103 C-132.20762939 103.30309082 -131.41525879 103.60618164 -130.59887695 103.91845703 C-126.54700704 105.60467438 -124.6939386 107.98730938 -123 112 C-122.12583158 117.56151979 -122.05324452 123.00205446 -124.75 128.0625 C-126.71712056 130.63068518 -128.20119401 132.41400994 -131 134 C-131.66 134 -132.32 134 -133 134 C-132.54753906 135.13179687 -132.09507812 136.26359375 -131.62890625 137.4296875 C-129.94674055 141.92402335 -128.88230976 146.42751795 -127.9375 151.125 C-127.76831055 151.94524658 -127.59912109 152.76549316 -127.42480469 153.6105957 C-125.99262771 160.70456287 -124.89056416 167.81689696 -124 175 C-113.81635367 179.25781765 -103.58928109 182.88681831 -93 186 C-92.03449219 186.28746094 -91.06898438 186.57492187 -90.07421875 186.87109375 C-83.45060085 188.76495783 -76.75833101 190.08546321 -69.9921875 191.3515625 C-67 192 -67 192 -66 193 C-64.50503158 193.20699563 -63.0033408 193.36679259 -61.5 193.5 C-57.11111111 193.88888889 -57.11111111 193.88888889 -56 195 C-53.33267593 195.37436127 -50.67625345 195.70570409 -48 196 C-40.13513514 196.86486486 -40.13513514 196.86486486 -39 198 C-36.14417841 198.38682028 -33.30382453 198.7135913 -30.4375 199 C-29.66986328 199.0825 -28.90222656 199.165 -28.11132812 199.25 C-14.10698022 200.6921211 -0.06483408 201.19133624 14 201.5625 C15.56511119 201.60586703 17.13021543 201.64948577 18.6953125 201.69335938 C22.4634683 201.79845763 26.23170006 201.90020936 30 202 C33.60191765 215.65378086 35.23752697 227.87496185 35.25 242.0625 C35.25067474 242.75253113 35.25134949 243.44256226 35.25204468 244.15350342 C35.22191586 263.54688928 32.48901367 286.51098633 18 301 C12.44233515 304.58481855 7.53554119 305.63247908 1.00927734 305.73730469 C0.08056509 305.76573833 -0.84814716 305.79417198 -1.80500221 305.82346725 C-5.20342091 305.9124768 -8.60064029 305.96060835 -12 306 C-13.00785883 306.01204814 -13.00785883 306.01204814 -14.03607845 306.02433968 C-25.79208822 306.15999962 -37.54811669 306.1886458 -49.30480528 306.20018864 C-52.17241952 306.20314976 -55.04003004 306.20725909 -57.90764236 306.21169281 C-66.90867602 306.2252873 -75.90970088 306.23500062 -84.91074407 306.2388947 C-95.25389317 306.24339715 -105.59691157 306.26107926 -115.94002092 306.2898953 C-123.98044075 306.31151218 -132.02082369 306.3215985 -140.06127226 306.32293582 C-144.8466695 306.32398109 -149.63194247 306.32983353 -154.41730881 306.34775543 C-158.9040521 306.36424286 -163.3905775 306.36638846 -167.87734032 306.35761642 C-169.51881304 306.35684722 -171.1602976 306.36117342 -172.80174065 306.37107468 C-190.33263245 306.47060664 -190.33263245 306.47060664 -197.28515625 301.30078125 C-213.39438907 283.27968344 -215.94510298 255.90799635 -214.78125 232.7421875 C-213.54297761 214.48733068 -210.34830587 193.22684972 -196.25 180.25 C-191.35735767 176.17850044 -187.47023454 175.85839632 -181.26953125 175.90234375 C-180.14390022 175.90446617 -180.14390022 175.90446617 -178.99552917 175.90663147 C-176.6011454 175.9122244 -174.20685547 175.92477556 -171.8125 175.9375 C-170.18815239 175.94251592 -168.56380332 175.94707866 -166.93945312 175.95117188 C-162.95959931 175.96219152 -158.97981556 175.97945127 -155 176 C-154.95681641 175.20005615 -154.91363281 174.4001123 -154.86914062 173.57592773 C-154.37605355 165.86352558 -153.26438546 158.57878205 -151.5 151.0625 C-150.84347189 148.18690689 -150.18995397 145.31078602 -149.54589844 142.43237305 C-149.09862696 140.43945456 -148.63723877 138.44970909 -148.171875 136.4609375 C-148.08679688 135.24277344 -148.08679688 135.24277344 -148 134 C-150.5147871 131.69375829 -150.5147871 131.69375829 -152.4296875 130.3359375 C-155.59369255 127.64417201 -156.67678998 124.02305533 -157.31640625 120.01953125 C-157.64196053 114.59012595 -156.13027536 111.3993059 -153 107 C-152.13971191 106.44973145 -151.27942383 105.89946289 -150.39306641 105.33251953 C-147.52979813 102.54169469 -147.41015497 100.77507499 -147.35800171 96.85714722 C-147.37801743 95.65555466 -147.37801743 95.65555466 -147.3984375 94.4296875 C-147.38642807 93.17528366 -147.38642807 93.17528366 -147.37417603 91.89553833 C-147.35111487 89.2215335 -147.3605457 86.54904534 -147.375 83.875 C-147.41302322 57.81007992 -147.41302322 57.81007992 -139 46 C-138.4225 45.13375 -137.845 44.2675 -137.25 43.375 C-127.90410172 33.50988515 -114.3519554 30.66804025 -101.6875 27.25 C-100.42623291 26.90565918 -99.16496582 26.56131836 -97.86547852 26.20654297 C-87.839497 23.47288639 -77.79486285 20.80871012 -67.74926758 18.14819336 C-57.60134328 15.45130818 -47.4869286 12.64098577 -37.375 9.8125 C-24.96356694 6.34089366 -12.53738132 2.99259102 0 0 Z " fill="#EBE0F6" transform="translate(237,104)"/>
<path d="M0 0 C1.31834335 -0.0127597 2.63668671 -0.02551941 3.99497986 -0.03866577 C5.42186332 -0.04172334 6.84874877 -0.04395115 8.27563477 -0.04541016 C9.75244778 -0.05184439 11.22925954 -0.05857321 12.70606995 -0.06558228 C15.79512486 -0.0775275 18.88406816 -0.08126584 21.97314453 -0.08007812 C25.91850921 -0.07987483 29.86315445 -0.10719944 33.80834866 -0.14162254 C36.85654447 -0.16392856 39.90456794 -0.16791458 42.95283699 -0.16685867 C44.40681505 -0.1692082 45.86079832 -0.17799506 47.31469536 -0.19352341 C56.30014474 -0.28052843 62.07897991 0.1218236 69.24829102 5.86865234 C84.25552665 22.2541035 86.97259067 48.75393604 86.17749023 70.02001953 C85.14374879 89.25226389 82.15006344 110.80626499 68.27954102 125.29052734 C63.29892343 129.55962813 58.85322537 130.41518089 52.43075562 130.41751099 C50.63616913 130.42174072 50.63616913 130.42174072 48.80532837 130.42605591 C47.49534882 130.42403168 46.18536926 130.42200745 44.83569336 130.41992188 C43.438883 130.42127745 42.042073 130.42305827 40.64526367 130.42523193 C36.8463464 130.42979691 33.04745625 130.42801808 29.24853849 130.42485285 C25.24883166 130.42231343 21.24912709 130.42467221 17.24942017 130.42623901 C10.50896797 130.42806072 3.76852671 130.42565919 -2.97192383 130.42089844 C-10.69680539 130.41550435 -18.42166036 130.41718267 -26.14654124 130.42272484 C-32.81703909 130.42731457 -39.48752908 130.42787689 -46.15802801 130.42528617 C-50.12373434 130.42374889 -54.08942835 130.42345677 -58.05513382 130.42682266 C-76.63437501 130.44049631 -95.15816545 130.19442836 -113.72045898 129.29052734 C-112.92752441 128.66001465 -112.13458984 128.02950195 -111.31762695 127.37988281 C-98.25485928 116.87121899 -92.9246135 99.62849392 -91.13061523 83.49365234 C-89.5035465 65.45859086 -89.63775139 45.74523106 -95.13452148 28.35693359 C-95.72045898 26.29052734 -95.72045898 26.29052734 -95.72045898 23.29052734 C-90.40532685 21.8614588 -85.14459902 20.83053189 -79.70556641 19.9987793 C-57.57730893 16.60181035 -36.62815118 10.57551572 -15.49926758 3.24853516 C-14.58226074 2.93239258 -13.66525391 2.61625 -12.72045898 2.29052734 C-11.35740379 1.77487717 -11.35740379 1.77487717 -9.96681213 1.24880981 C-6.48615252 0.22136303 -3.62366463 0.02390128 0 0 Z " fill="#F2E8FA" transform="translate(403.720458984375,279.70947265625)"/>
<path d="M0 0 C7.0295187 21.2250516 8.94016667 46.12211904 4 68 C3.74347656 69.19496094 3.48695313 70.38992188 3.22265625 71.62109375 C0.37670552 83.55454379 -3.90917514 96.2521635 -14 104 C-14.99 104.495 -14.99 104.495 -16 105 C-15.37246826 104.93079346 -14.74493652 104.86158691 -14.09838867 104.7902832 C-3.86394493 103.87581109 5.54821443 103.36703113 13.82421875 110.19140625 C18.57671252 114.71000629 23.37953021 119.50575555 27 125 C27 125.99 27 126.98 27 128 C19.09409267 130.14118324 11.05223842 131.5341799 3 133 C1.2083287 137.87086397 0.26381462 142.65220718 -0.5625 147.75 C-1.87265625 155.7453125 -1.87265625 155.7453125 -3 158 C-6.2648744 157.41799126 -7.88873979 156.4813186 -10.20800781 154.13256836 C-10.80832825 153.53202133 -11.40864868 152.9314743 -12.02716064 152.31272888 C-12.980513 151.33615074 -12.980513 151.33615074 -13.953125 150.33984375 C-14.61334656 149.67537735 -15.27356812 149.01091095 -15.95379639 148.3263092 C-18.0596764 146.20364437 -20.15488328 144.07078395 -22.25 141.9375 C-23.67639232 140.49606066 -25.1034677 139.05529691 -26.53125 137.61523438 C-30.02880594 134.08461168 -33.51682565 130.54480947 -37 127 C-41.57877239 130.81825748 -45.89310857 134.78017496 -50.046875 139.0546875 C-51.14945833 140.1747561 -52.252331 141.29453993 -53.35546875 142.4140625 C-55.06595039 144.15569776 -56.77394446 145.89958758 -58.47705078 147.6484375 C-60.13950773 149.35303591 -61.81111732 151.04819948 -63.484375 152.7421875 C-63.99377625 153.27020966 -64.50317749 153.79823181 -65.02801514 154.34225464 C-66.29612175 155.61953106 -67.6430243 156.8175676 -69 158 C-69.99 158 -70.98 158 -72 158 C-72.18006592 156.92516357 -72.18006592 156.92516357 -72.36376953 155.82861328 C-72.92280829 152.58850248 -73.52327394 149.35744305 -74.125 146.125 C-74.31320313 144.99707031 -74.50140625 143.86914062 -74.6953125 142.70703125 C-75.27504986 139.68152692 -75.89442411 136.87566416 -77 134 C-79.546468 132.12120261 -79.546468 132.12120261 -83 132 C-84.58346824 131.65558968 -86.1640387 131.29770446 -87.7421875 130.9296875 C-89.45237503 130.5744947 -91.16333519 130.22300414 -92.875 129.875 C-93.75414062 129.69324219 -94.63328125 129.51148438 -95.5390625 129.32421875 C-97.69206468 128.879577 -99.84569171 128.43826171 -102 128 C-100.60085691 119.81853094 -91.85464746 112.77120185 -85.75732422 107.73193359 C-79.61285379 103.87246191 -72.94444279 104.491463 -65.9609375 104.9765625 C-60.78643338 105.26293014 -57.19471554 104.02004362 -53 101 C-51.0018242 99.02275838 -51.0018242 99.02275838 -49.75 96.75 C-49.03650391 95.56664062 -49.03650391 95.56664062 -48.30859375 94.359375 C-47.87675781 93.58078125 -47.44492187 92.8021875 -47 92 C-46.61972656 91.32453125 -46.23945313 90.6490625 -45.84765625 89.953125 C-43.30139777 85.14886371 -41.42950867 80.24153181 -40 75 C-39.71898437 73.99710937 -39.43796875 72.99421875 -39.1484375 71.9609375 C-34.44246975 51.77365529 -35.83979312 29.15437014 -40 9 C-40.33879916 7.00091865 -40.67304221 5.00105215 -41 3 C-35.9648231 2.57007951 -30.92942292 2.1429123 -25.89379883 1.71826172 C-24.18182105 1.57350544 -22.46990599 1.42800544 -20.75805664 1.28173828 C-18.29329396 1.0712706 -15.82831594 0.86350456 -13.36328125 0.65625 C-12.22080681 0.55781799 -12.22080681 0.55781799 -11.05525208 0.45739746 C-7.35982091 0.14928342 -3.70880165 -0.07693279 0 0 Z " fill="#FC4F2E" transform="translate(308,303)"/>
<path d="M0 0 C0.4021875 0.8971875 0.4021875 0.8971875 0.8125 1.8125 C3.03283209 5.90258543 5.27020641 7.3431063 9.6875 8.6875 C10.49574219 8.93886719 11.30398437 9.19023438 12.13671875 9.44921875 C12.75160156 9.63097656 13.36648437 9.81273438 14 10 C11.81193173 12.18806827 10.95313985 12.43320654 8.02734375 13.11328125 C7.21910156 13.30664062 6.41085938 13.5 5.578125 13.69921875 C4.27101562 14.00279297 4.27101562 14.00279297 2.9375 14.3125 C-3.59714263 15.88305788 -10.06976929 17.54468495 -16.5 19.5 C-22.60654603 21.34611471 -28.7419693 22.97932201 -34.9375 24.5 C-43.5512435 26.61434235 -52.09080779 28.93388253 -60.62792969 31.33642578 C-64.9133375 32.53524612 -69.20670501 33.70480033 -73.5 34.875 C-74.40234375 35.1215332 -75.3046875 35.36806641 -76.234375 35.62207031 C-81.45082853 37.0442441 -86.67209455 38.44662174 -91.8984375 39.83203125 C-93.05923828 40.14092285 -94.22003906 40.44981445 -95.41601562 40.76806641 C-97.66640358 41.36624265 -99.91766504 41.96114549 -102.16992188 42.55224609 C-114.30819684 45.78344733 -124.00930329 48.91052346 -131 60 C-131.88565586 62.65696758 -132.1450262 64.28190083 -132.20532227 67.01245117 C-132.22526749 67.81305466 -132.24521271 68.61365814 -132.26576233 69.43852234 C-132.29083107 70.72772331 -132.29083107 70.72772331 -132.31640625 72.04296875 C-132.33718735 72.9265657 -132.35796844 73.81016266 -132.37937927 74.72053528 C-132.44475754 77.54277785 -132.50370528 80.36511335 -132.5625 83.1875 C-132.60569637 85.10092106 -132.64931102 87.01433273 -132.69335938 88.92773438 C-132.80042695 93.61839437 -132.90172752 98.30914783 -133 103 C-132.20762939 103.30309082 -131.41525879 103.60618164 -130.59887695 103.91845703 C-126.54700704 105.60467438 -124.6939386 107.98730938 -123 112 C-122.12583158 117.56151979 -122.05324452 123.00205446 -124.75 128.0625 C-126.71712056 130.63068518 -128.20119401 132.41400994 -131 134 C-131.66 134 -132.32 134 -133 134 C-132.319375 135.71703125 -132.319375 135.71703125 -131.625 137.46875 C-130.02335642 141.75483845 -128.92387791 146.02386236 -128 150.5 C-127.83266357 151.29736572 -127.66532715 152.09473145 -127.49291992 152.91625977 C-125.52335231 162.74157775 -124.42032797 172.68999537 -123.32543945 182.64428711 C-123.02418007 184.82497111 -122.53573674 186.86830569 -122 189 C-121.83241993 191.32963775 -121.73450053 193.66481562 -121.6875 196 C-121.63142578 197.8253125 -121.63142578 197.8253125 -121.57421875 199.6875 C-122 203 -122 203 -123.8359375 205.359375 C-130.15161154 210.14743113 -138.438375 209.62469652 -146 209 C-150.12552387 208.00551135 -153.45734657 206.36176895 -157 204 C-159.94145047 185.0824362 -154.3762983 163.0184468 -150.0859375 144.703125 C-149.80266602 143.47541382 -149.80266602 143.47541382 -149.51367188 142.22290039 C-149.07351337 140.31812702 -148.62721457 138.41477435 -148.1796875 136.51171875 C-148.12039062 135.68285156 -148.06109375 134.85398438 -148 134 C-150.5147871 131.69375829 -150.5147871 131.69375829 -152.4296875 130.3359375 C-155.59369255 127.64417201 -156.67678998 124.02305533 -157.31640625 120.01953125 C-157.64196053 114.59012595 -156.13027536 111.3993059 -153 107 C-152.13971191 106.44973145 -151.27942383 105.89946289 -150.39306641 105.33251953 C-147.52979813 102.54169469 -147.41015497 100.77507499 -147.35800171 96.85714722 C-147.37801743 95.65555466 -147.37801743 95.65555466 -147.3984375 94.4296875 C-147.39043121 93.59341827 -147.38242493 92.75714905 -147.37417603 91.89553833 C-147.35111487 89.2215335 -147.3605457 86.54904534 -147.375 83.875 C-147.41302322 57.81007992 -147.41302322 57.81007992 -139 46 C-138.4225 45.13375 -137.845 44.2675 -137.25 43.375 C-127.90410172 33.50988515 -114.3519554 30.66804025 -101.6875 27.25 C-99.79559937 26.73348877 -99.79559937 26.73348877 -97.86547852 26.20654297 C-87.839497 23.47288639 -77.79486285 20.80871012 -67.74926758 18.14819336 C-57.60134328 15.45130818 -47.4869286 12.64098577 -37.375 9.8125 C-24.96356694 6.34089366 -12.53738132 2.99259102 0 0 Z " fill="#FCCB3D" transform="translate(237,104)"/>
<path d="M0 0 C8.40797843 3.88060543 13.34243757 11.90231587 16.95703125 20.09375 C18.23189829 23.64618851 19.08460535 27.33842139 20 31 C8.78 31.33 -2.44 31.66 -14 32 C-12.35 33.98 -10.7 35.96 -9 38 C-7.671875 40.81640625 -7.671875 40.81640625 -6.75 43.5625 C-6.43546875 44.47128906 -6.1209375 45.38007813 -5.796875 46.31640625 C-3.81689725 52.9842725 -4 57.65112085 -4 65 C5.24 65 14.48 65 24 65 C24 86.39353643 21.42407905 107.97796635 6.2109375 124.1796875 C1.85796845 127.76358075 -2.30778998 128.47328841 -7.80078125 128.30078125 C-13.11375857 127.57413959 -16.18463412 124.0122303 -19.5 120.125 C-35.15152892 98.8071339 -35.97294811 67.80375728 -32.41845703 42.58154297 C-29.98769205 27.58568014 -25.79215154 11.30705159 -13.46484375 1.33984375 C-9.01139466 -1.08096931 -4.8832245 -1.00559381 0 0 Z " fill="#CABCE1" transform="translate(56,281)"/>
<path d="M0 0 C7.09013757 21.40808528 8.68771305 45.89589319 4 68 C3.66551864 69.66643665 3.33203013 71.33307322 3 73 C1.85934082 72.99476318 0.71868164 72.98952637 -0.45654297 72.98413086 C-4.67951679 72.96606131 -8.90248718 72.95456081 -13.12548828 72.94506836 C-14.95492121 72.94003263 -16.78435009 72.93320373 -18.61376953 72.92456055 C-21.23991898 72.91246176 -23.86601532 72.90676417 -26.4921875 72.90234375 C-27.31306854 72.89718246 -28.13394958 72.89202118 -28.97970581 72.88670349 C-33.12211844 72.77648126 -33.12211844 72.77648126 -37 74 C-37 73.34 -37 72.68 -37 72 C-37.66 72 -38.32 72 -39 72 C-38.85925049 71.23703613 -38.71850098 70.47407227 -38.57348633 69.68798828 C-37.09549948 61.03632616 -36.65201939 52.64307765 -36.6875 43.875 C-36.68799347 43.20211945 -36.68848694 42.52923889 -36.68899536 41.83596802 C-36.71404605 30.63565641 -37.73776575 19.95952862 -40 9 C-40.33879916 7.00091865 -40.67304221 5.00105215 -41 3 C-35.9648231 2.57007951 -30.92942292 2.1429123 -25.89379883 1.71826172 C-24.18182105 1.57350544 -22.46990599 1.42800544 -20.75805664 1.28173828 C-18.29329396 1.0712706 -15.82831594 0.86350456 -13.36328125 0.65625 C-12.22080681 0.55781799 -12.22080681 0.55781799 -11.05525208 0.45739746 C-7.35982091 0.14928342 -3.70880165 -0.07693279 0 0 Z " fill="#FE663E" transform="translate(308,303)"/>
<path d="M0 0 C0.9725473 0.31122299 1.9450946 0.62244598 2.94711304 0.94309998 C12.48011555 3.97143376 22.05896859 6.71969959 31.7265625 9.28515625 C33.17239984 9.67166509 34.61814774 10.05850866 36.06381226 10.44566345 C39.82219656 11.45140411 43.58157025 12.45338984 47.34124756 13.45428467 C53.36138828 15.05758537 59.38001889 16.66654173 65.3985405 18.27590752 C67.46836929 18.82877359 69.53866093 19.3798755 71.60903931 19.93067932 C80.10062463 22.19446751 88.55849744 24.55691312 97 27 C97 30.49456219 96.07562338 32.245878 94.5625 35.375 C91.34245803 42.03525776 90.87561381 47.56681052 90.89453125 54.84375 C90.88108199 56.58204372 90.86606008 58.32032585 90.84960938 60.05859375 C90.82674245 62.78442901 90.81254072 65.50894397 90.82495117 68.23486328 C90.83376701 70.87628033 90.8048875 73.51510196 90.76953125 76.15625 C90.78176224 76.96783569 90.79399323 77.77942139 90.80659485 78.61560059 C90.68745995 84.1881032 90.68745995 84.1881032 88.67904663 86.56005859 C87.18064714 87.78570422 85.59203281 88.89870994 84 90 C81.0135093 94.47973606 80.1064305 98.69815427 81 104 C82.95585051 109.78342893 85.06776152 112.05420921 90 116 C88.68 121.94 87.36 127.88 86 134 C83.61488006 130.81984008 82.52416834 129.24234491 81.375 125.6875 C81.13523437 124.96949219 80.89546875 124.25148438 80.6484375 123.51171875 C79.15588627 117.73033056 78.85613443 111.98776233 78.88647461 106.04516602 C78.88632858 105.28336533 78.88618256 104.52156464 78.8860321 103.73667908 C78.8867235 101.24239154 78.89447939 98.74818059 78.90234375 96.25390625 C78.90421068 94.51513205 78.90563328 92.77635732 78.90663147 91.0375824 C78.910435 86.47887703 78.92024666 81.92020392 78.93133545 77.36151123 C78.94159625 72.70260047 78.94613907 68.04368445 78.95117188 63.38476562 C78.961871 54.2564963 78.97892124 45.12825084 79 36 C78.45572861 35.90275635 77.91145721 35.8055127 77.35069275 35.70532227 C69.35402097 34.19739912 61.53591273 32.07856166 53.69140625 29.9375 C52.23318565 29.54145108 50.77492794 29.14553879 49.31663513 28.74975586 C46.28117319 27.92500564 43.24643913 27.09763882 40.2121582 26.26855469 C36.32451159 25.20667821 32.43469997 24.15297825 28.5442667 23.10136414 C25.54154523 22.28847193 22.54021313 21.47054353 19.53925896 20.65115356 C18.10480738 20.26029376 16.6698789 19.8711798 15.23446846 19.4838562 C13.2350008 18.94368588 11.23755866 18.39657752 9.24047852 17.84765625 C8.10481949 17.53836182 6.96916046 17.22906738 5.79908752 16.91040039 C3 16 3 16 0 14 C-0.41981929 9.33160952 -0.12768269 4.68169867 0 0 Z " fill="#696E7C" transform="translate(0,122)"/>
<path d="M0 0 C4.62 0 9.24 0 14 0 C16.35526296 5.09191794 17.87956712 9.9480245 19 15.4375 C19.25100464 16.64031616 19.25100464 16.64031616 19.50708008 17.86743164 C21.46962139 27.71005785 22.57795074 37.674346 23.67456055 47.64428711 C23.97581993 49.82497111 24.46426326 51.86830569 25 54 C25.16758007 56.32963775 25.26549947 58.66481562 25.3125 61 C25.36857422 62.8253125 25.36857422 62.8253125 25.42578125 64.6875 C25 68 25 68 23.1640625 70.359375 C16.84838846 75.14743113 8.561625 74.62469652 1 74 C-3.12552387 73.00551135 -6.45734657 71.36176895 -10 69 C-13.25438211 48.06985622 -7.77716962 19.44292405 0 0 Z " fill="#FBCD41" transform="translate(90,239)"/>
<path d="M0 0 C1.32 0 2.64 0 4 0 C5.91273078 -0.00834973 7.82546138 -0.01675381 9.7381897 -0.02565002 C12.8739543 -0.03896742 16.0097252 -0.0471203 19.14550781 -0.05493164 C20.80208972 -0.05998816 22.45866711 -0.0668318 24.11523438 -0.07543945 C26.5065215 -0.08752863 28.89775048 -0.09323064 31.2890625 -0.09765625 C32.40312973 -0.10539818 32.40312973 -0.10539818 33.53970337 -0.11329651 C38.77225753 -0.11387124 38.77225753 -0.11387124 41 1 C40.52309147 7.09761626 39.17950493 11.64812044 36.375 17.0625 C36.01744629 17.76133301 35.65989258 18.46016602 35.29150391 19.18017578 C32.13265458 25.13602482 28.87573839 30.38486113 22.45507812 33.06054688 C18.1650905 34.22701609 14.30372142 34.2508223 9.8828125 34.1953125 C9.02565643 34.1924826 8.16850037 34.18965271 7.28536987 34.18673706 C4.56510068 34.17559999 1.84516859 34.1505076 -0.875 34.125 C-2.72655772 34.11496182 -4.57812064 34.10583744 -6.4296875 34.09765625 C-10.9532536 34.07568188 -15.47656977 34.041197 -20 34 C-17.85251119 31.84112623 -15.69374914 29.71268274 -13.47265625 27.62890625 C-6.38641444 20.09487664 -2.83607849 9.77654386 0 0 Z " fill="#FB4528" transform="translate(269,375)"/>
<path d="M0 0 C8.40797843 3.88060543 13.34243757 11.90231587 16.95703125 20.09375 C18.24555314 23.68423795 19.0927682 27.29430522 20 31 C18.75911621 30.99363525 17.51823242 30.98727051 16.23974609 30.98071289 C11.62109261 30.96624651 7.0036787 30.99766865 2.38525391 31.04272461 C0.38920312 31.05583735 -1.60696923 31.05662332 -3.60302734 31.04467773 C-6.4787494 31.02963285 -9.35111511 31.05939532 -12.2265625 31.09765625 C-13.11429352 31.08340103 -14.00202454 31.06914581 -14.91665649 31.05445862 C-18.52506426 31.13814933 -21.01121987 31.21393828 -23.89720154 33.50823975 C-27.09701076 37.12635098 -28.84173766 40.32755516 -29.8125 45.125 C-30.13154297 46.61386719 -30.13154297 46.61386719 -30.45703125 48.1328125 C-30.63621094 49.07898438 -30.81539062 50.02515625 -31 51 C-31.18949219 51.94617188 -31.37898438 52.89234375 -31.57421875 53.8671875 C-31.78498047 54.92292969 -31.78498047 54.92292969 -32 56 C-32.33 56 -32.66 56 -33 56 C-33.1768973 49.48100689 -32.62965818 43.567369 -31.3125 37.1875 C-31.13315918 36.31311279 -30.95381836 35.43872559 -30.76904297 34.5378418 C-28.11575435 22.24790894 -23.21598145 9.14161076 -13.0546875 1.03515625 C-8.85312036 -1.08160286 -4.53792774 -0.7850133 0 0 Z " fill="#D3C9E5" transform="translate(56,281)"/>
<path d="M0 0 C5.22170653 0.03733333 10.37618922 -0.10781478 15.58699036 -0.44224548 C25.03756278 -0.89490298 31.86485607 -0.96451019 39.48542786 5.19056702 C44.32931596 9.65942494 49.11490419 14.43456563 52.69636536 19.99916077 C52.69636536 20.98916077 52.69636536 21.97916077 52.69636536 22.99916077 C44.79045803 25.140344 36.74860378 26.53334067 28.69636536 27.99916077 C26.90469406 32.87002473 25.96017997 37.65136794 25.13386536 42.74916077 C23.82370911 50.74447327 23.82370911 50.74447327 22.69636536 52.99916077 C19.03258793 52.42535905 17.3686931 51.02646418 14.80574036 48.40150452 C13.74226379 47.323526 13.74226379 47.323526 12.65730286 46.22377014 C11.92769348 45.46902405 11.19808411 44.71427795 10.44636536 43.93666077 C9.70128723 43.17804749 8.95620911 42.4194342 8.18855286 41.63783264 C6.35089842 39.7648387 4.52060811 37.88520466 2.69636536 35.99916077 C3.94162509 32.54313548 5.30666952 29.9481329 7.67292786 27.14369202 C8.25792053 26.44308655 8.84291321 25.74248108 9.44563293 25.02064514 C10.37412048 23.92719788 10.37412048 23.92719788 11.32136536 22.81166077 C12.58882878 21.29778673 13.85575819 19.78346544 15.12214661 18.26869202 C15.73525696 17.53859924 16.34836731 16.80850647 16.98005676 16.05628967 C19.82554761 12.64574829 22.58278497 9.16811511 25.34089661 5.68666077 C26.69636536 3.99916077 26.69636536 3.99916077 27.69636536 2.99916077 C-0.35363464 2.66916077 -28.40363464 2.33916077 -57.30363464 1.99916077 C-57.30363464 1.66916077 -57.30363464 1.33916077 -57.30363464 0.99916077 C-38.21573919 -0.26583586 -19.11931126 -0.19546109 0 0 Z " fill="#FD5F3B" transform="translate(282.3036346435547,408.00083923339844)"/>
<path d="M0 0 C0.33 0 0.66 0 1 0 C1 11.88 1 23.76 1 36 C2.65 36.66 4.3 37.32 6 38 C9.27939198 40.70448623 10.79621935 43.70353346 11.453125 47.8828125 C11.68306035 54.4359701 11.17775659 58.88224818 7 64 C3.35733209 67.15912792 -0.17129313 69.28155775 -5.0625 69.5 C-10.70442433 68.78356516 -15.00043532 67.44979852 -18.8125 63.125 C-22.45909518 57.91557831 -23.98892404 53.42190182 -23 47 C-20.76178554 41.02336247 -16.89498604 37.35099348 -11.1875 34.6875 C-8 34 -8 34 0 35 C0 23.45 0 11.9 0 0 Z " fill="#FC5E37" transform="translate(103,171)"/>
<path d="M0 0 C0.30252686 0.62608154 0.60505371 1.25216309 0.91674805 1.8972168 C2.52233899 5.01395215 4.01048839 6.58471274 7.26171875 7.94921875 C8.06222656 8.19285156 8.86273438 8.43648437 9.6875 8.6875 C10.49574219 8.93886719 11.30398437 9.19023438 12.13671875 9.44921875 C12.75160156 9.63097656 13.36648437 9.81273438 14 10 C11.81193173 12.18806827 10.95313985 12.43320654 8.02734375 13.11328125 C7.21910156 13.30664062 6.41085938 13.5 5.578125 13.69921875 C4.70671875 13.90160156 3.8353125 14.10398437 2.9375 14.3125 C-3.59714263 15.88305788 -10.06976929 17.54468495 -16.5 19.5 C-23.43779061 21.59741435 -30.42476612 23.39547252 -37.46411133 25.1184082 C-43.95675737 26.71531107 -50.39897633 28.45759117 -56.82592773 30.30078125 C-61.84615078 31.7281637 -66.8949973 32.91536349 -72 34 C-70.66073876 29.98221628 -68.50865531 29.21976152 -65 27 C-64.34 26.34 -63.68 25.68 -63 25 C-61.59654097 24.04284094 -60.17787085 23.10784533 -58.75 22.1875 C-54.92448448 19.67200829 -51.47275918 16.97665073 -48 14 C-44.80664502 11.87109668 -42.3704295 11.16130627 -38.671875 10.1953125 C-36.75761719 9.69064453 -36.75761719 9.69064453 -34.8046875 9.17578125 C-33.45316894 8.82535133 -32.10160629 8.47509138 -30.75 8.125 C-29.44517536 7.78307501 -28.14048644 7.44063165 -26.8359375 7.09765625 C-24.22525708 6.41188235 -21.61386132 5.72893327 -19.00195312 5.04785156 C-12.66100709 3.39149395 -6.33087845 1.69435433 0 0 Z " fill="#FBB631" transform="translate(237,104)"/>
<path d="M0 0 C1.73798301 1.46459242 3.46564265 2.93818261 5.1781311 4.43260193 C6.54719087 5.61043731 7.9633191 6.73390608 9.39990234 7.82836914 C11.88024586 11.19465775 11.61054372 14.72188475 11.6015625 18.74609375 C11.61013275 19.59422134 11.618703 20.44234894 11.62753296 21.31617737 C11.63900253 23.1073144 11.64003242 24.89854457 11.63134766 26.68969727 C11.62502746 29.42561272 11.67194179 32.15719782 11.72265625 34.89257812 C11.72720278 36.63541122 11.72860897 38.37825592 11.7265625 40.12109375 C11.74498199 40.9358165 11.76340149 41.75053925 11.78237915 42.58995056 C11.69163797 48.18058267 11.69163797 48.18058267 9.68133545 50.56228638 C8.18293454 51.78820685 6.59316016 52.90003319 5 54 C2.0135093 58.47973606 1.1064305 62.69815427 2 68 C3.95585051 73.78342893 6.06776152 76.05420921 11 80 C9.68 85.94 8.36 91.88 7 98 C4.61488006 94.81984008 3.52416834 93.24234491 2.375 89.6875 C2.13523437 88.96949219 1.89546875 88.25148438 1.6484375 87.51171875 C0.15588627 81.73033056 -0.14386557 75.98776233 -0.11352539 70.04516602 C-0.11367142 69.28336533 -0.11381744 68.52156464 -0.1139679 67.73667908 C-0.1132765 65.24239154 -0.10552061 62.74818059 -0.09765625 60.25390625 C-0.09578932 58.51513205 -0.09436672 56.77635732 -0.09336853 55.0375824 C-0.089565 50.47887703 -0.07975334 45.92020392 -0.06866455 41.36151123 C-0.05840375 36.70260047 -0.05386093 32.04368445 -0.04882812 27.38476562 C-0.038129 18.2564963 -0.02107876 9.12825084 0 0 Z " fill="#7E8493" transform="translate(79,158)"/>
<path d="M0 0 C13.86 0 27.72 0 42 0 C40.39633726 4.00915685 39.47651597 6.01596534 36.8125 9.125 C36.26207031 9.78757812 35.71164062 10.45015625 35.14453125 11.1328125 C29.54876958 16.00489643 23.87814709 16.42740423 16.78515625 16.29296875 C15.92941513 16.28872391 15.07367401 16.28447906 14.19200134 16.28010559 C11.4818358 16.26342789 8.77243752 16.22579705 6.0625 16.1875 C4.2155056 16.17243902 2.36849944 16.1587531 0.52148438 16.14648438 C-3.98596884 16.11356026 -8.49285472 16.06185469 -13 16 C-10.86638093 13.85281979 -8.72260546 11.74341005 -6.5 9.6875 C-3.38830804 6.54730307 -3.38830804 6.54730307 0 0 Z " fill="#F9361D" transform="translate(262,393)"/>
<path d="M0 0 C-4.70894468 6.40795952 -9.69635939 12.53995918 -14.7890625 18.64453125 C-18.67459955 23.3260043 -22.3972848 28.09740404 -26 33 C-31.29012124 28.59156563 -36.18808428 23.92440206 -41 19 C-39.71207454 17.42586888 -38.40441868 15.86646009 -37.04296875 14.35546875 C-34.88163765 11.9346259 -34.88163765 11.9346259 -32.73828125 8.86328125 C-23.88749568 -2.48560161 -13.49266465 -1.33760529 0 0 Z " fill="#FB4426" transform="translate(311,410)"/>
<path d="M0 0 C0.50806447 1.72681437 1.00610467 3.45657979 1.5 5.1875 C1.7784375 6.15042969 2.056875 7.11335938 2.34375 8.10546875 C3 11 3 11 3 16 C-10.53 16 -24.06 16 -38 16 C-41 6 -41 6 -41 3 C-35.9648231 2.57007951 -30.92942292 2.1429123 -25.89379883 1.71826172 C-24.18182105 1.57350544 -22.46990599 1.42800544 -20.75805664 1.28173828 C-18.29329396 1.0712706 -15.82831594 0.86350456 -13.36328125 0.65625 C-12.22080681 0.55781799 -12.22080681 0.55781799 -11.05525208 0.45739746 C-7.35982091 0.14928342 -3.70880165 -0.07693279 0 0 Z " fill="#F15034" transform="translate(308,303)"/>
<path d="M0 0 C0.33 0 0.66 0 1 0 C1.495 5.94 1.495 5.94 2 12 C0.02 12 -1.96 12 -4 12 C-4.66 12.33 -5.32 12.66 -6 13 C-7.33333333 12.66666667 -8.66666667 12.33333333 -10 12 C-10.99 12.495 -10.99 12.495 -12 13 C-13.33333333 12.66666667 -14.66666667 12.33333333 -16 12 C-16.99 12.495 -16.99 12.495 -18 13 C-19.33333333 12.66666667 -20.66666667 12.33333333 -22 12 C-22.99 12.495 -22.99 12.495 -24 13 C-25.33333333 12.66666667 -26.66666667 12.33333333 -28 12 C-28.99 12.495 -28.99 12.495 -30 13 C-31.33333333 12.66666667 -32.66666667 12.33333333 -34 12 C-34.99 12.495 -34.99 12.495 -36 13 C-36.99 12.67 -37.98 12.34 -39 12 C-39.66 8.7 -40.32 5.4 -41 2 C-27.47 2 -13.94 2 0 2 C0 1.34 0 0.68 0 0 Z " fill="#FD673E" transform="translate(311,317)"/>
<path d="M0 0 C0.33 0 0.66 0 1 0 C1.04936158 5.09031755 1.08570105 10.18049643 1.10986328 15.27099609 C1.11993376 17.00344265 1.13359089 18.73587216 1.15087891 20.46826172 C1.17508162 22.95544639 1.18647239 25.44240675 1.1953125 27.9296875 C1.20563507 28.70682098 1.21595764 29.48395447 1.22659302 30.28463745 C1.22699271 32.19125493 1.1223214 34.09731036 1 36 C0.34 36.66 -0.32 37.32 -1 38 C-1.44931885 38.93827637 -1.44931885 38.93827637 -1.90771484 39.89550781 C-3.14456006 42.27852206 -4.56470683 43.79242366 -6.4765625 45.671875 C-7.146875 46.33574219 -7.8171875 46.99960938 -8.5078125 47.68359375 C-9.55582031 48.70646484 -9.55582031 48.70646484 -10.625 49.75 C-11.33140625 50.44738281 -12.0378125 51.14476562 -12.765625 51.86328125 C-14.50598703 53.58012488 -16.25084981 55.29211832 -18 57 C-18.99 56.67 -19.98 56.34 -21 56 C-21.33 56.66 -21.66 57.32 -22 58 C-23.44865941 53.65402177 -23.88893053 49.39624753 -22.28125 45.0625 C-19.57489298 39.99899332 -16.32722801 37.08603974 -11.1875 34.6875 C-8 34 -8 34 0 35 C0 23.45 0 11.9 0 0 Z " fill="#FF7D3A" transform="translate(103,171)"/>
<path d="M0 0 C3.36918352 1.3941449 5.18254198 2.81527998 7 6 C7.82707738 11.2828636 7.91741671 17.05969028 5.5 21.9375 C2.01402036 26.20782506 -1.64689531 29.37241356 -7.19140625 30.41015625 C-10.26398492 30.54030231 -12.37015551 30.55733418 -14.73046875 28.46875 C-15.14941406 27.9840625 -15.56835938 27.499375 -16 27 C-15.24074219 26.26394531 -14.48148437 25.52789062 -13.69921875 24.76953125 C-12.69504479 23.7841269 -11.69115346 22.79843448 -10.6875 21.8125 C-10.18798828 21.32974609 -9.68847656 20.84699219 -9.17382812 20.34960938 C-4.3885519 15.62771429 -1.85515911 11.84447739 -0.8125 5.1875 C-0.65394531 4.21167969 -0.49539062 3.23585937 -0.33203125 2.23046875 C-0.22246094 1.49441406 -0.11289063 0.75835937 0 0 Z " fill="#F94326" transform="translate(107,210)"/>
<path d="M0 0 C0.66 0 1.32 0 2 0 C4.44662309 5.83712107 6.58965473 11.66005283 8.34375 17.7421875 C8.8933803 19.63317745 9.5022692 21.50680761 10.125 23.375 C11 26 11 26 11.5 28.25 C11.91501249 30.23877444 11.91501249 30.23877444 14 32 C14 32.66 14 33.32 14 34 C11.70858714 34.05384521 9.41681812 34.09272087 7.125 34.125 C5.84882812 34.14820313 4.57265625 34.17140625 3.2578125 34.1953125 C0 34 0 34 -2 32 C-2.82838084 24.90435651 -1.69886738 17.44867123 -1 10.375 C-0.90460938 9.37082031 -0.80921875 8.36664063 -0.7109375 7.33203125 C-0.47813335 4.88758764 -0.2410936 2.4436375 0 0 Z " fill="#FEE232" transform="translate(89,278)"/>
<path d="M0 0 C5.28 0 10.56 0 16 0 C16.35353384 10.13463664 16.65372583 23.69254834 12 33 C11.34 33 10.68 33 10 33 C9.7525 31.783125 9.505 30.56625 9.25 29.3125 C6.95941938 18.89392582 6.95941938 18.89392582 3 9.05078125 C1.60696922 6.19397984 0.87315732 3.05605061 0 0 Z " fill="#AC9DCC" transform="translate(64,346)"/>
<path d="M0 0 C-2.63209395 4.80357145 -6.02480667 8.85913423 -9.5 13.0625 C-10.65690589 14.46951304 -11.81317639 15.87704881 -12.96875 17.28515625 C-13.47857422 17.90269775 -13.98839844 18.52023926 -14.51367188 19.15649414 C-16.0570781 21.07079448 -17.53568325 23.02475455 -19 25 C-21.36527945 24.82479412 -22.68470033 24.33402514 -24.31958008 22.60205078 C-25.54638672 21.06803385 -26.77319336 19.53401693 -28 18 C-25.25074902 14.95865795 -22.44466036 11.9760599 -19.625 9 C-18.85027344 8.14148438 -18.07554687 7.28296875 -17.27734375 6.3984375 C-11.72572217 0.61741007 -8.03922742 -1.37560585 0 0 Z " fill="#F9321A" transform="translate(298,410)"/>
<path d="M0 0 C0.85857101 0.00424484 1.71714203 0.00848969 2.60173035 0.01286316 C5.33246789 0.0295988 8.06245587 0.06724109 10.79296875 0.10546875 C12.64907785 0.12052222 14.50519857 0.13420947 16.36132812 0.14648438 C20.9013286 0.17948552 25.44077177 0.23123216 29.98046875 0.29296875 C28.96752125 3.55691069 27.95816903 4.30563365 24.93139648 6.0246582 C20.56094381 7.68983753 16.3917562 7.67361789 11.765625 7.5859375 C10.90988388 7.58169266 10.05414276 7.57744781 9.17247009 7.57307434 C6.46230455 7.55639664 3.75290627 7.5187658 1.04296875 7.48046875 C-0.80402565 7.46540777 -2.65103181 7.45172185 -4.49804688 7.43945312 C-9.00550009 7.40652901 -13.51238597 7.35482344 -18.01953125 7.29296875 C-12.27532315 1.12326375 -8.17715965 -0.15305017 0 0 Z " fill="#F92C16" transform="translate(267.01953125,401.70703125)"/>
<path d="M0 0 C0 7.59 0 15.18 0 23 C-2.64 23 -5.28 23 -8 23 C-10.84715499 23.43354565 -10.84715499 23.43354565 -13 24 C-13.16236745 21.41414795 -13.28095486 18.83848046 -13.375 16.25 C-13.42527344 15.52039063 -13.47554688 14.79078125 -13.52734375 14.0390625 C-13.5859375 11.890625 -13.5859375 11.890625 -13 8 C-10.0859375 5.58984375 -10.0859375 5.58984375 -7 4 C-5.98198643 3.01834406 -4.9753197 2.02408568 -4 1 C-2 0 -2 0 0 0 Z " fill="#FFBB32" transform="translate(103,183)"/>
<path d="M0 0 C0.66 0 1.32 0 2 0 C2 1.32 2 2.64 2 4 C2.66 4 3.32 4 4 4 C4.50559908 5.43554025 5.0042749 6.8735202 5.5 8.3125 C5.7784375 9.11300781 6.056875 9.91351563 6.34375 10.73828125 C7 13 7 13 7 16 C7.66 16 8.32 16 9 16 C9.25394531 16.845625 9.50789063 17.69125 9.76953125 18.5625 C12.18892016 26.53651588 14.86354513 34.27949571 18 42 C15.51565563 44.34290892 14.22268407 44.97982934 10.765625 45.29296875 C9.60546875 45.25816406 8.4453125 45.22335937 7.25 45.1875 C6.07953125 45.16042969 4.9090625 45.13335937 3.703125 45.10546875 C2.81109375 45.07066406 1.9190625 45.03585937 1 45 C1 44.67 1 44.34 1 44 C5.95 43.505 5.95 43.505 11 43 C9.68704654 36.43523272 8.01036068 30.90246486 4.9375 24.9375 C3.07574282 21.08986849 2.05581226 17.42556849 1.5 13.1875 C1.335 12.135625 1.17 11.08375 1 10 C0.34 9.67 -0.32 9.34 -1 9 C-0.67 6.03 -0.34 3.06 0 0 Z " fill="#FCD83D" transform="translate(90,268)"/>
<path d="M0 0 C3.37198902 1.46575198 5.64987004 3.35181521 8.25 5.9375 C8.95640625 6.62714844 9.6628125 7.31679688 10.390625 8.02734375 C12 10 12 10 12 13 C-4.81730769 17.44230769 -4.81730769 17.44230769 -13 17 C-8.74093983 11.27445024 -4.39719064 5.62007798 0 0 Z " fill="#FD6F44" transform="translate(323,418)"/>
<path d="M0 0 C0.34375 2.34375 0.34375 2.34375 0.5 5.5 C0.82887262 10.93536754 1.37336286 16.29005806 2.0625 21.6875 C2.83092361 27.83970014 3.19717456 33.78900127 3 40 C2.67 40 2.34 40 2 40 C1.7525 38.80375 1.505 37.6075 1.25 36.375 C-0.3498468 29.17568942 -2.49335367 22.12311086 -4.57324219 15.05078125 C-5.13516689 13.1389016 -5.69263786 11.22571473 -6.25 9.3125 C-6.58515625 8.17425781 -6.9203125 7.03601563 -7.265625 5.86328125 C-8 3 -8 3 -8 0 C-2.25 -1.125 -2.25 -1.125 0 0 Z " fill="#F6BC40" transform="translate(104,240)"/>
<path d="M0 0 C0.8950292 2.93612238 1.0294562 5.02711504 0.4765625 8.0390625 C0.3425 8.78414063 0.2084375 9.52921875 0.0703125 10.296875 C-0.15011719 11.44929688 -0.15011719 11.44929688 -0.375 12.625 C-0.51421875 13.40101563 -0.6534375 14.17703125 -0.796875 14.9765625 C-1.8502318 20.7004636 -1.8502318 20.7004636 -3 23 C-6.28754511 22.42110619 -7.93672495 21.45171589 -10.25 19.0625 C-10.77078125 18.53785156 -11.2915625 18.01320313 -11.828125 17.47265625 C-13 16 -13 16 -13 14 C-11.89820712 12.86377609 -10.78811634 11.73477557 -9.64453125 10.640625 C-6.25519837 7.25934279 -3.15761101 3.59638574 0 0 Z " fill="#FC6F44" transform="translate(308,438)"/>
<path d="M0 0 C0.33 0 0.66 0 1 0 C1 11.88 1 23.76 1 36 C-2.58859585 37.79429793 -3.67329964 38.18910999 -7.375 38.3125 C-11.14825236 38.7103388 -13.9731779 39.44902653 -16.85546875 42.1328125 C-18.95515081 45.55823237 -19.17057711 49.4206909 -19.578125 53.35546875 C-20 56 -20 56 -22 58 C-23.44865941 53.65402177 -23.88893053 49.39624753 -22.28125 45.0625 C-19.57489298 39.99899332 -16.32722801 37.08603974 -11.1875 34.6875 C-8 34 -8 34 0 35 C0 23.45 0 11.9 0 0 Z " fill="#ED7E46" transform="translate(103,171)"/>
<path d="M0 0 C0 1.65 0 3.3 0 5 C-13.53 5 -27.06 5 -41 5 C-41 4.34 -41 3.68 -41 3 C-35.9648231 2.57007951 -30.92942292 2.1429123 -25.89379883 1.71826172 C-24.18182105 1.57350544 -22.46990599 1.42800544 -20.75805664 1.28173828 C-18.29329396 1.0712706 -15.82831594 0.86350456 -13.36328125 0.65625 C-12.22080681 0.55781799 -12.22080681 0.55781799 -11.05525208 0.45739746 C-7.35982091 0.14928342 -3.70880165 -0.07693279 0 0 Z " fill="#E04432" transform="translate(308,303)"/>
<path d="M0 0 C11.22 0 22.44 0 34 0 C34 0.66 34 1.32 34 2 C33.34 2 32.68 2 32 2 C31.67 2.66 31.34 3.32 31 4 C20.11 4 9.22 4 -2 4 C-2 3.34 -2 2.68 -2 2 C-1.34 2 -0.68 2 0 2 C0 1.34 0 0.68 0 0 Z " fill="#FA5C38" transform="translate(276,319)"/>
<path d="M0 0 C2.64 0 5.28 0 8 0 C8.8125 1.6875 8.8125 1.6875 9 4 C6.75 6.75 6.75 6.75 4 9 C3.01 9 2.02 9 1 9 C0.67 6.03 0.34 3.06 0 0 Z " fill="#FA391F" transform="translate(235,452)"/>
<path d="M0 0 C0.75 1.5625 0.75 1.5625 1 4 C-0.98340666 8.18719185 -2.74112332 11.8018701 -7 14 C-7.99 13.67 -8.98 13.34 -10 13 C-8.38405168 10.95880212 -6.7143618 8.95927063 -5 7 C-4.34 7 -3.68 7 -3 7 C-2.690625 6.030625 -2.38125 5.06125 -2.0625 4.0625 C-1 1 -1 1 0 0 Z " fill="#F33922" transform="translate(113,224)"/>
<path d="M0 0 C0.66 0.33 1.32 0.66 2 1 C1.79503906 1.80824219 1.59007812 2.61648438 1.37890625 3.44921875 C0.97478516 5.05216797 0.97478516 5.05216797 0.5625 6.6875 C0.29566406 7.74324219 0.02882813 8.79898437 -0.24609375 9.88671875 C-0.89897932 12.5828317 -1.47941193 15.2757576 -2 18 C-2.33 18 -2.66 18 -3 18 C-3.11065148 12.57807726 -3.09006648 7.34132574 -2 2 C-1.34 1.34 -0.68 0.68 0 0 Z " fill="#E7DCF2" transform="translate(26,319)"/>
</svg>
