<?xml version="1.0" standalone="no"?>
<!DOCTYPE svg PUBLIC "-//W3C//DTD SVG 20010904//EN"
 "http://www.w3.org/TR/2001/REC-SVG-20010904/DTD/svg10.dtd">
<svg version="1.0" xmlns="http://www.w3.org/2000/svg"
 width="137.000000pt" height="118.000000pt" viewBox="0 0 137.000000 118.000000"
 preserveAspectRatio="xMidYMid meet">
<metadata>
Created by potrace 1.10, written by Peter Selinger 2001-2011
</metadata>
<g transform="translate(0.000000,118.000000) scale(0.100000,-0.100000)"
fill="#4f46e5" stroke="none">
<path d="M387 1055 c-64 -44 -90 -124 -62 -191 43 -104 140 -141 235 -91 50
26 90 90 90 141 0 46 -40 117 -79 143 -49 33 -133 32 -184 -2z m169 -59 c97
-97 -22 -245 -137 -171 -50 33 -64 113 -28 159 45 57 115 62 165 12z"/>
<path d="M853 902 c-8 -6 -398 -658 -442 -741 -28 -51 -26 -51 454 -51 378 0
444 2 455 15 10 12 -27 81 -211 394 -123 209 -229 382 -235 385 -6 2 -15 1
-21 -2z m207 -409 l188 -318 -188 -3 c-104 -1 -277 -1 -384 0 l-196 3 63 105
c34 58 120 203 191 323 71 120 131 216 133 213 3 -3 90 -148 193 -323z"/>
<path d="M284 503 c-48 -82 -115 -195 -149 -253 -81 -134 -79 -140 44 -140 92
0 120 12 107 45 -4 11 -22 15 -70 15 l-65 0 110 188 c61 103 114 191 118 195
5 5 23 -15 40 -43 32 -53 67 -66 65 -25 0 29 -82 165 -99 165 -8 0 -53 -66
-101 -147z"/>
</g>
</svg>
