<?xml version="1.0" standalone="no"?>
<!DOCTYPE svg PUBLIC "-//W3C//DTD SVG 20010904//EN"
 "http://www.w3.org/TR/2001/REC-SVG-20010904/DTD/svg10.dtd">
<svg version="1.0" xmlns="http://www.w3.org/2000/svg"
 width="89.000000pt" height="103.000000pt" viewBox="0 0 89.000000 103.000000"
 preserveAspectRatio="xMidYMid meet">

<g transform="translate(0.000000,103.000000) scale(0.100000,-0.100000)"
fill="#000000" stroke="none">
<path d="M318 956 c-21 -8 -49 -21 -64 -30 -34 -23 -80 -97 -88 -143 -5 -32
-13 -41 -49 -59 -81 -39 -114 -150 -72 -238 20 -43 94 -96 132 -96 21 0 23 -4
23 -52 0 -39 -5 -57 -21 -74 -15 -16 -20 -30 -15 -48 12 -47 81 -46 92 1 6 21
2 31 -19 48 -20 15 -27 30 -27 56 0 45 14 62 70 83 66 26 70 32 68 95 -1 54
-2 54 -5 11 -5 -55 -22 -75 -82 -94 -135 -45 -258 82 -206 212 19 46 62 88
101 98 18 5 24 13 24 33 1 37 32 101 66 133 80 75 208 76 284 3 19 -18 35 -24
66 -22 54 2 90 -23 105 -71 8 -27 21 -44 43 -56 63 -34 97 -118 82 -201 -5
-22 -23 -52 -49 -79 -54 -56 -96 -66 -161 -37 -46 20 -46 20 -46 70 0 28 -4
51 -10 51 -15 0 -12 -83 4 -105 7 -10 38 -30 67 -44 52 -25 54 -28 57 -70 3
-34 -1 -48 -17 -63 -23 -21 -27 -58 -9 -76 19 -19 55 -14 72 10 20 29 20 34
-2 56 -13 13 -21 40 -24 80 -6 58 -5 61 18 66 40 10 99 77 113 129 25 89 -15
194 -89 232 -19 10 -30 23 -30 36 0 12 -15 36 -34 55 -28 28 -42 34 -76 34
-29 0 -51 8 -76 26 -67 51 -144 66 -216 40z m-83 -726 c0 -18 -6 -26 -23 -28
-13 -2 -25 3 -28 12 -10 26 4 48 28 44 17 -2 23 -10 23 -28z m485 15 c17 -20
5 -45 -20 -45 -23 0 -35 22 -26 45 7 19 30 19 46 0z"/>
<path d="M448 735 c-3 -27 -7 -126 -7 -219 0 -145 -2 -170 -17 -180 -20 -15
-22 -65 -3 -77 20 -12 53 -11 67 3 18 18 14 55 -8 71 -18 13 -20 27 -22 233
-2 130 -6 199 -10 169z m26 -420 c27 -28 -10 -69 -40 -44 -17 14 -18 31 -2 47
16 16 23 15 42 -3z"/>
<path d="M390 531 l0 -139 -34 -12 c-19 -6 -37 -18 -40 -26 -3 -9 -6 -57 -6
-108 0 -79 -3 -94 -20 -109 -24 -20 -26 -50 -4 -72 23 -22 56 -15 73 17 14 25
14 29 -7 51 -20 21 -22 34 -22 119 l0 96 38 19 37 18 3 143 c2 92 -1 142 -8
142 -6 0 -10 -51 -10 -139z m-45 -431 c0 -18 -6 -26 -23 -28 -13 -2 -25 3 -28
12 -10 26 4 48 28 44 17 -2 23 -10 23 -28z"/>
<path d="M504 530 l1 -145 38 -18 37 -19 0 -97 c0 -84 -3 -99 -20 -114 -24
-20 -26 -50 -4 -72 23 -22 56 -15 73 17 14 25 14 29 -7 51 -19 20 -22 34 -22
113 0 96 -14 134 -50 134 -10 0 -22 6 -27 13 -4 6 -11 73 -14 147 l-5 135 0
-145z m111 -430 c0 -18 -6 -26 -23 -28 -24 -4 -38 18 -28 44 3 9 15 14 28 12
17 -2 23 -10 23 -28z"/>
</g>
</svg>
