<svg width="100" height="90" viewBox="0 0 100 90" fill="none" xmlns="http://www.w3.org/2000/svg">
<path fill-rule="evenodd" clip-rule="evenodd" d="M20.2509 32.0835L49.9958 89.9741L0 32.0835H20.2509Z" fill="#EA6C00"/>
<path fill-rule="evenodd" clip-rule="evenodd" d="M79.7491 32.0835L50.0042 89.9741L100 32.0835H79.7491Z" fill="#EA6C00"/>
<path fill-rule="evenodd" clip-rule="evenodd" d="M20.2498 32.0835H79.7395L49.9946 89.9741L20.2498 32.0835Z" fill="#FDAD00"/>
<path fill-rule="evenodd" clip-rule="evenodd" d="M49.9946 0.000488281L21.8153 2.96239L20.2498 32.0835L49.9946 0.000488281Z" fill="#FDD231"/>
<path fill-rule="evenodd" clip-rule="evenodd" d="M49.9946 0.000488281L78.1739 2.96239L79.7395 32.0835L49.9946 0.000488281Z" fill="#FDD231"/>
<path fill-rule="evenodd" clip-rule="evenodd" d="M100 32.0835L78.1835 2.9624L79.7491 32.0835H100Z" fill="#FDAD00"/>
<path fill-rule="evenodd" clip-rule="evenodd" d="M0 32.0835L21.8164 2.9624L20.2509 32.0835H0Z" fill="#FDAD00"/>
<path fill-rule="evenodd" clip-rule="evenodd" d="M49.9946 0.000488281L20.2498 32.0835H79.7395L49.9946 0.000488281Z" fill="#FEEEB7"/>
</svg>
